SplineFontDB: 3.0
FontName: Appu-Regular
FullName: Appu Regular
FamilyName: Appu
Weight: Regular
Copyright: Copyright (c) 2014 by TipTopTyp. All rights reserved under SIL openfont License 1.1
Version: 1.0.1
ItalicAngle: 0
UnderlinePosition: -399
UnderlineWidth: 26
Ascent: 819
Descent: 205
UFOAscent: 800
UFODescent: -200
LayerCount: 2
Layer: 0 1 "Back"  1
Layer: 1 1 "Fore"  0
FSType: 0
OS2Version: 0
OS2_WeightWidthSlopeOnly: 0
OS2_UseTypoMetrics: 0
CreationTime: 1417701656
ModificationTime: 1417714721
PfmFamily: 17
TTFWeight: 400
TTFWidth: 5
LineGap: 0
VLineGap: 0
Panose: 2 11 6 0 0 0 0 0 0 0
OS2TypoAscent: 999
OS2TypoAOffset: 0
OS2TypoDescent: -365
OS2TypoDOffset: 0
OS2TypoLinegap: 0
OS2WinAscent: 1121
OS2WinAOffset: 0
OS2WinDescent: 515
OS2WinDOffset: 0
HheadAscent: 0
HheadAOffset: 1
HheadDescent: 0
HheadDOffset: 1
OS2SubXSize: 932
OS2SubYSize: 866
OS2SubXOff: 0
OS2SubYOff: 266
OS2SupXSize: 932
OS2SupYSize: 866
OS2SupXOff: 0
OS2SupYOff: 666
OS2StrikeYSize: 67
OS2StrikeYPos: 333
OS2Vendor: 'ACE '
OS2CodePages: 00000001.00000000
OS2UnicodeRanges: 80008023.00002042.00000000.00000000
Lookup: 4 0 0 "halnHalantFormslookup29"  {"halnHalantFormslookup29 subtable"  } ['haln' ('deva' <'dflt' 'MAR ' 'NEP ' > 'DFLT' <'dflt' > ) ]
Lookup: 1 0 0 "LocalizedMrForms_lookup0"  {"LocalizedMrForms_lookup0 subtable"  } ['locl' ('deva' <'MAR ' > ) ]
Lookup: 4 0 0 "LocalizedMrHalfFormslookup1"  {"LocalizedMrHalfFormslookup1 subtable"  } ['locl' ('deva' <'MAR ' > ) ]
Lookup: 1 0 0 "LocalizedNpFormslookup2"  {"LocalizedNpFormslookup2 subtable"  } ['locl' ('deva' <'NEP ' > ) ]
Lookup: 4 0 0 "LocalizedNpFormslookup3"  {"LocalizedNpFormslookup3 subtable"  } ['locl' ('deva' <'NEP ' > ) ]
Lookup: 4 0 0 "NuktaFormslookup5"  {"NuktaFormslookup5 subtable"  } ['nukt' ('deva' <'dflt' 'MAR ' 'NEP ' > ) ]
Lookup: 4 0 0 "AkhandFormslookup6"  {"AkhandFormslookup6 subtable"  } ['akhn' ('deva' <'dflt' 'MAR ' 'NEP ' > ) ]

StartChar: 60_degree
Encoding: 65537 -1 1
Width: 500
VWidth: 0
Flags: W
PickledData: "(dp1
S'com.typemytype.robofont.layerData'
p2
(dp3
S'mask'
p4
(dp5
S'name'
p6
S'60_degree'
p7
sS'lib'
p8
(dp9
sS'unicodes'
p10
(tsS'width'
p11
I500
sS'contours'
p12
((dp13
S'points'
p14
((dp15
S'segmentType'
p16
S'move'
p17
sS'x'
I91
sS'y'
I269
s(dp18
g16
S'line'
p19
sS'x'
I215
sS'smooth'
p20
I01
sS'y'
I53
stp21
stp22
sS'components'
p23
(tsS'anchors'
p24
(tsss."
LayerCount: 2
Fore
SplineSet
126 290 m 1,0,-1
 395 -160 l 1,1,-1
 325 -202 l 1,2,-1
 56 248 l 1,3,-1
 126 290 l 1,0,-1
EndSplineSet
EndChar

StartChar: A
Encoding: 65 65 2
Width: 624
VWidth: 0
Flags: W
PickledData: "(dp1
S'com.typemytype.robofont.layerData'
p2
(dp3
S'mask'
p4
(dp5
S'name'
p6
S'A'
sS'lib'
p7
(dp8
sS'unicodes'
p9
(tsS'width'
p10
I624
sS'contours'
p11
(tsS'components'
p12
(tsS'anchors'
p13
(tsss."
LayerCount: 2
Fore
SplineSet
316 608.5 m 1,0,-1
 256 426 l 1,1,-1
 189.450704225 251 l 1,2,-1
 435.495305164 251 l 1,3,-1
 371 426 l 1,4,-1
 316 608.5 l 1,0,-1
158.267605634 169 m 1,5,-1
 94 0 l 1,6,-1
 2 0 l 1,7,-1
 283 718 l 1,8,-1
 356 718 l 1,9,-1
 622 0 l 1,10,-1
 528 0 l 1,11,-1
 465.715962441 169 l 1,12,-1
 158.267605634 169 l 1,5,-1
EndSplineSet
EndChar

StartChar: AE
Encoding: 198 198 3
Width: 806
VWidth: 0
Flags: W
PickledData: "(dp1
S'com.typemytype.robofont.layerData'
p2
(dp3
S'mask'
p4
(dp5
S'name'
p6
S'AE'
p7
sS'lib'
p8
(dp9
sS'unicodes'
p10
(tsS'width'
p11
I806
sS'contours'
p12
((dp13
S'points'
p14
((dp15
S'segmentType'
p16
S'line'
p17
sS'x'
I436
sS'smooth'
p18
I00
sS'y'
I734
s(dp19
g16
S'line'
p20
sS'x'
I769
sg18
I00
sS'y'
I734
s(dp21
g16
S'line'
p22
sS'x'
I769
sg18
I00
sS'y'
I650
s(dp23
g16
S'line'
p24
sS'x'
I436
sg18
I00
sS'y'
I650
stp25
s(dp26
g14
((dp27
g16
S'line'
p28
sS'x'
I474
sg18
I00
sS'y'
I734
s(dp29
g16
S'line'
p30
sS'x'
I474
sg18
I00
sS'y'
I0
s(dp31
g16
S'line'
p32
sS'x'
I382
sg18
I00
sS'y'
I0
s(dp33
g16
S'line'
p34
sS'x'
I382
sg18
I00
sS'y'
I734
stp35
s(dp36
g14
((dp37
g16
S'line'
p38
sS'x'
I-40
sg18
I00
sS'y'
I16
s(dp39
g16
S'line'
p40
sS'x'
I382
sg18
I00
sS'y'
I733
s(dp41
g16
S'line'
p42
sS'x'
I458
sg18
I00
sS'y'
I689
s(dp43
g16
S'line'
p44
sS'x'
I36
sg18
I00
sS'y'
I-28
stp45
s(dp46
g14
((dp47
g16
S'line'
p48
sS'x'
I431
sg18
I00
sS'y'
I413
s(dp49
g16
S'line'
p50
sS'x'
I750
sg18
I00
sS'y'
I413
s(dp51
g16
S'line'
p52
sS'x'
I750
sg18
I00
sS'y'
I329
s(dp53
g16
S'line'
p54
sS'x'
I431
sg18
I00
sS'y'
I329
stp55
s(dp56
g14
((dp57
g16
S'line'
p58
sS'x'
I145
sg18
I00
sS'y'
I279
s(dp59
g16
S'line'
p60
sS'x'
I414
sg18
I00
sS'y'
I279
s(dp61
g16
S'line'
p62
sS'x'
I414
sg18
I00
sS'y'
I195
s(dp63
g16
S'line'
p64
sS'x'
I145
sg18
I00
sS'y'
I195
stp65
s(dp66
g14
((dp67
g16
S'line'
p68
sS'x'
I429
sg18
I00
sS'y'
I84
s(dp69
g16
S'line'
p70
sS'x'
I768
sg18
I00
sS'y'
I84
s(dp71
g16
S'line'
p72
sS'x'
I768
sg18
I00
sS'y'
I0
s(dp73
g16
S'line'
p74
sS'x'
I429
sg18
I00
sS'y'
I0
stp75
stp76
sS'components'
p77
(tsS'anchors'
p78
(tsssS'com.typemytype.robofont.mark'
p79
(F0.44109999999999999
F0.91300000000000003
F0.1201
F1
tp80
s."
LayerCount: 2
Fore
SplineSet
436 734 m 1,0,-1
 474 734 l 1,1,-1
 769 734 l 1,2,-1
 769 650 l 1,3,-1
 474 650 l 1,4,-1
 474 413 l 1,5,-1
 750 413 l 1,6,-1
 750 329 l 1,7,-1
 474 329 l 1,8,-1
 474 84 l 1,9,-1
 768 84 l 1,10,-1
 768 0 l 1,11,-1
 474 0 l 1,12,-1
 429 0 l 1,13,-1
 382 0 l 1,14,-1
 382 195 l 1,15,-1
 165.471698113 195 l 1,16,-1
 50 0 l 1,17,-1
 -48 0 l 1,18,-1
 382 733 l 1,19,-1
 382 734 l 1,20,-1
 436 734 l 1,0,-1
382 560.656862745 m 1,21,-1
 215.213352685 279 l 1,22,-1
 382 279 l 1,23,-1
 382 560.656862745 l 1,21,-1
EndSplineSet
EndChar

StartChar: B
Encoding: 66 66 13
Width: 542
VWidth: 0
Flags: W
PickledData: "(dp1
S'com.typemytype.robofont.layerData'
p2
(dp3
S'mask'
p4
(dp5
S'name'
p6
S'B'
sS'lib'
p7
(dp8
sS'unicodes'
p9
(tsS'width'
p10
I542
sS'contours'
p11
(tsS'components'
p12
(tsS'anchors'
p13
(tsss."
LayerCount: 2
Fore
SplineSet
294 316 m 1,0,-1
 164 316 l 1,1,-1
 164 82 l 1,2,-1
 273 82 l 2,3,4
 339 82 339 82 378 112.5 c 128,-1,5
 417 143 417 143 417 203 c 0,6,7
 417 251 417 251 386.5 283.5 c 128,-1,8
 356 316 356 316 309 316 c 2,9,-1
 294 316 l 1,0,-1
405.494936787 365.011553516 m 1,10,11
 452.184223426 341.851492678 452.184223426 341.851492678 479.592111715 299.788401948 c 128,-1,12
 507.000000003 257.725311218 507.000000003 257.725311218 507 203 c 0,13,14
 507 103 507 103 444.5 51.5 c 128,-1,15
 382 0 382 0 273 0 c 2,16,-1
 164 0 l 1,17,-1
 119 0 l 1,18,-1
 74 0 l 1,19,-1
 74 717 l 1,20,-1
 118 717 l 1,21,-1
 164 717 l 1,22,-1
 254 717 l 2,23,24
 357 717 357 717 421.5 666 c 128,-1,25
 486 615 486 615 486 521 c 0,26,27
 486 420.399687727 486 420.399687727 405.494936787 365.011553516 c 1,10,11
290 396 m 1,28,29
 339 398 339 398 367.5 435 c 128,-1,30
 396 472 396 472 396 521 c 0,31,32
 396 578 396 578 356 606.5 c 128,-1,33
 316 635 316 635 254 635 c 2,34,-1
 164 635 l 1,35,-1
 164 396 l 1,36,-1
 290 396 l 1,28,29
EndSplineSet
EndChar

StartChar: C
Encoding: 67 67 14
Width: 612
VWidth: 0
Flags: W
PickledData: "(dp1
S'com.typemytype.robofont.layerData'
p2
(dp3
S'mask'
p4
(dp5
S'name'
p6
S'C'
sS'lib'
p7
(dp8
sS'unicodes'
p9
(tsS'width'
p10
I612
sS'contours'
p11
(tsS'components'
p12
(tsS'anchors'
p13
(tsss."
LayerCount: 2
Fore
SplineSet
590 84 m 1,0,1
 500 -10 500 -10 367 -10 c 0,2,3
 222 -10 222 -10 128.5 88.5 c 128,-1,4
 35 187 35 187 35 353 c 128,-1,5
 35 519 35 519 129.5 623 c 128,-1,6
 224 727 224 727 370 727 c 0,7,8
 500 727 500 727 592 630 c 1,9,-1
 533 571 l 1,10,11
 465 645 465 645 370 645 c 0,12,13
 260 645 260 645 194.5 562.5 c 128,-1,14
 129 480 129 480 129 353 c 0,15,16
 129 228 129 228 195 150 c 128,-1,17
 261 72 261 72 370 72 c 0,18,19
 470 72 470 72 532 142 c 1,20,-1
 590 84 l 1,0,1
EndSplineSet
EndChar

StartChar: D
Encoding: 68 68 20
Width: 633
VWidth: 0
Flags: W
PickledData: "(dp1
S'com.typemytype.robofont.layerData'
p2
(dp3
S'mask'
p4
(dp5
S'name'
p6
S'D'
sS'lib'
p7
(dp8
sS'unicodes'
p9
(tsS'width'
p10
I633
sS'contours'
p11
(tsS'components'
p12
(tsS'anchors'
p13
(tsss."
LayerCount: 2
Fore
SplineSet
160 635 m 1,0,-1
 160 82 l 1,1,-1
 255 82 l 2,2,3
 368 82 368 82 436 160 c 128,-1,4
 504 238 504 238 504 358 c 0,5,6
 504 479 504 479 432 557 c 128,-1,7
 360 635 360 635 250 635 c 2,8,-1
 160 635 l 1,0,-1
110 0 m 1,9,-1
 70 0 l 1,10,-1
 70 717 l 1,11,-1
 110 717 l 1,12,-1
 160 717 l 1,13,-1
 250 717 l 2,14,15
 396 717 396 717 497 617 c 128,-1,16
 598 517 598 517 598 358 c 128,-1,17
 598 199 598 199 502 99.5 c 128,-1,18
 406 0 406 0 255 0 c 2,19,-1
 160 0 l 1,20,-1
 110 0 l 1,9,-1
EndSplineSet
EndChar

StartChar: Danda
Encoding: 65538 -1 21
Width: 398
VWidth: 0
Flags: W
PickledData: "(dp1
S'com.typemytype.robofont.layerData'
p2
(dp3
S'mask'
p4
(dp5
S'name'
p6
S'Danda'
p7
sS'lib'
p8
(dp9
sS'unicodes'
p10
(tsS'width'
p11
I398
sS'contours'
p12
(tsS'components'
p13
(tsS'anchors'
p14
(tsssS'com.typemytype.robofont.mark'
p15
(F1
F1
F0
F1
tp16
s."
LayerCount: 2
Fore
SplineSet
232 652 m 1,0,-1
 232 0 l 1,1,-1
 146 0 l 1,2,-1
 146 652 l 1,3,-1
 232 652 l 1,0,-1
EndSplineSet
EndChar

StartChar: E
Encoding: 69 69 24
Width: 508
VWidth: 0
Flags: W
PickledData: "(dp1
S'com.typemytype.robofont.layerData'
p2
(dp3
S'mask'
p4
(dp5
S'name'
p6
S'E'
sS'lib'
p7
(dp8
sS'unicodes'
p9
(tsS'width'
p10
I508
sS'contours'
p11
(tsS'components'
p12
(tsS'anchors'
p13
(tsss."
LayerCount: 2
Fore
SplineSet
115 717 m 1,0,-1
 160 717 l 1,1,-1
 448 717 l 1,2,-1
 448 635 l 1,3,-1
 160 635 l 1,4,-1
 160 403 l 1,5,-1
 430 403 l 1,6,-1
 430 321 l 1,7,-1
 160 321 l 1,8,-1
 160 82 l 1,9,-1
 447 82 l 1,10,-1
 447 0 l 1,11,-1
 160 0 l 1,12,-1
 116 0 l 1,13,-1
 70 0 l 1,14,-1
 70 717 l 1,15,-1
 115 717 l 1,0,-1
EndSplineSet
EndChar

StartChar: Euro
Encoding: 8364 8364 35
Width: 620
VWidth: 0
Flags: W
PickledData: "(dp1
S'com.typemytype.robofont.layerData'
p2
(dp3
S'mask'
p4
(dp5
S'name'
p6
S'Euro'
p7
sS'lib'
p8
(dp9
sS'unicodes'
p10
(tsS'width'
p11
I620
sS'contours'
p12
(tsS'components'
p13
(tsS'anchors'
p14
(tsssS'com.typemytype.robofont.mark'
p15
(F1
F0.43530000000000002
F0.81179999999999997
F1
tp16
s."
LayerCount: 2
Fore
SplineSet
590 84 m 1,0,1
 500 -10 500 -10 367 -10 c 0,2,3
 222 -10 222 -10 128.5 88.5 c 128,-1,4
 35 187 35 187 35 353 c 128,-1,5
 35 519 35 519 129.5 623 c 128,-1,6
 224 727 224 727 370 727 c 0,7,8
 500 727 500 727 592 630 c 1,9,-1
 533 571 l 1,10,11
 465 645 465 645 370 645 c 0,12,13
 330.531438661 645 330.531438661 645 295.604161982 633.356547308 c 128,-1,14
 260.676885303 621.713094617 260.676885303 621.713094617 233.07819907 600.236708638 c 128,-1,15
 205.479512836 578.76032266 205.479512836 578.76032266 184.4783014 548.873323279 c 128,-1,16
 163.477089963 518.986323899 163.477089963 518.986323899 150.17648444 482 c 1,17,-1
 479 482 l 1,18,-1
 439 408 l 1,19,-1
 132.523844055 408 l 1,20,21
 129 381.207892464 129 381.207892464 129 353 c 0,22,23
 129 339.824652557 129 339.824652557 129.788818138 327 c 1,24,-1
 479 327 l 1,25,-1
 439 253 l 1,26,-1
 141.802990718 253 l 1,27,28
 164.91986324 169.003502393 164.91986324 169.003502393 224.842185676 120.501751196 c 128,-1,29
 284.764508112 72 284.764508112 72 370 72 c 0,30,31
 470 72 470 72 532 142 c 1,32,-1
 590 84 l 1,0,1
EndSplineSet
EndChar

StartChar: F
Encoding: 70 70 36
Width: 468
VWidth: 0
Flags: W
PickledData: "(dp1
S'com.typemytype.robofont.layerData'
p2
(dp3
S'mask'
p4
(dp5
S'name'
p6
S'F'
sS'lib'
p7
(dp8
sS'unicodes'
p9
(tsS'width'
p10
I468
sS'contours'
p11
(tsS'components'
p12
(tsS'anchors'
p13
(tsss."
LayerCount: 2
Fore
SplineSet
160 403 m 1,0,-1
 413 403 l 1,1,-1
 413 321 l 1,2,-1
 160 321 l 1,3,-1
 160 0 l 1,4,-1
 70 0 l 1,5,-1
 70 717 l 1,6,-1
 115 717 l 1,7,-1
 160 717 l 1,8,-1
 448 717 l 1,9,-1
 448 635 l 1,10,-1
 160 635 l 1,11,-1
 160 403 l 1,0,-1
EndSplineSet
EndChar

StartChar: G
Encoding: 71 71 37
Width: 680
VWidth: 0
Flags: W
PickledData: "(dp1
S'com.typemytype.robofont.layerData'
p2
(dp3
S'mask'
p4
(dp5
S'name'
p6
S'G'
sS'lib'
p7
(dp8
sS'unicodes'
p9
(tsS'width'
p10
I680
sS'contours'
p11
(tsS'components'
p12
(tsS'anchors'
p13
(tsss."
LayerCount: 2
Fore
SplineSet
525 272 m 1,0,-1
 609 272 l 1,1,-1
 609 159.832335329 l 1,2,-1
 692 49 l 1,3,-1
 623 -2 l 1,4,-1
 566.372035004 73.9560728086 l 1,5,6
 527.276922648 35.0977477957 527.276922648 35.0977477957 471.936212212 12.5488738979 c 128,-1,7
 416.595501776 -10 416.595501776 -10 355 -10 c 0,8,9
 218 -10 218 -10 126.5 89 c 128,-1,10
 35 188 35 188 35 353 c 0,11,12
 35 519 35 519 129.5 623 c 128,-1,13
 224 727 224 727 370 727 c 0,14,15
 501 727 501 727 598 630 c 1,16,-1
 539 571 l 1,17,18
 467 645 467 645 370 645 c 0,19,20
 260 645 260 645 194.5 562.5 c 128,-1,21
 129 480 129 480 129 353 c 0,22,23
 129 229 129 229 193 150.5 c 128,-1,24
 257 72 257 72 358 72 c 0,25,26
 472.095700724 72 472.095700724 72 518.671490122 137.937641993 c 1,27,-1
 456 222 l 1,28,-1
 525 272 l 1,0,-1
EndSplineSet
EndChar

StartChar: Gastick
Encoding: 65539 -1 39
Width: 257
VWidth: 0
Flags: W
PickledData: "(dp1
S'com.typemytype.robofont.layerData'
p2
(dp3
S'mask'
p4
(dp5
S'name'
p6
S'Gastick'
p7
sS'lib'
p8
(dp9
sS'unicodes'
p10
(tsS'width'
p11
I257
sS'contours'
p12
(tsS'components'
p13
(tsS'anchors'
p14
(tsssS'com.typemytype.robofont.mark'
p15
(F1
F1
F0
F1
tp16
s."
LayerCount: 2
Fore
SplineSet
216 649 m 1,0,-1
 216 320 l 2,1,2
 216 291 216 291 214 268 c 128,-1,3
 212 245 212 245 210 230 c 128,-1,4
 208 215 208 215 202 205 c 128,-1,5
 196 195 196 195 193 189.5 c 128,-1,6
 190 184 190 184 181 181.5 c 128,-1,7
 172 179 172 179 169 178.5 c 128,-1,8
 166 178 166 178 155.5 178.5 c 128,-1,9
 145 179 145 179 142 179 c 0,10,11
 110 179 110 179 68.5 217.5 c 128,-1,12
 27 256 27 256 27 296 c 0,13,14
 27 331.468686076 27 331.468686076 47.975884512 350.35078053 c 128,-1,15
 68.951769024 369.232874984 68.951769024 369.232874984 130 370.857790337 c 1,16,-1
 130 649 l 1,17,-1
 216 649 l 1,0,-1
143.308879328 293 m 1,18,-1
 141 293 l 1,19,-1
 140 293.5 l 2,20,21
 139 294 139 294 136.5 295 c 128,-1,22
 134 296 134 296 132 297 c 128,-1,23
 130 298 130 298 127 299 c 128,-1,24
 124 300 124 300 121.5 300 c 128,-1,25
 119 300 119 300 117 300 c 128,-1,26
 115 300 115 300 114 299 c 128,-1,27
 113 298 113 298 113 296 c 0,28,29
 113 284 113 284 123 270.5 c 128,-1,30
 133 257 133 257 142 257 c 0,31,32
 151.781767257 257 151.781767257 257 143.308879328 293 c 1,18,-1
EndSplineSet
EndChar

StartChar: H
Encoding: 72 72 44
Width: 650
VWidth: 0
Flags: W
PickledData: "(dp1
S'com.typemytype.robofont.layerData'
p2
(dp3
S'mask'
p4
(dp5
S'name'
p6
S'H'
sS'lib'
p7
(dp8
sS'unicodes'
p9
(tsS'width'
p10
I650
sS'contours'
p11
(tsS'components'
p12
(tsS'anchors'
p13
(tsss."
LayerCount: 2
Fore
SplineSet
580 717 m 1,0,-1
 580 0 l 1,1,-1
 490 0 l 1,2,-1
 490 317 l 1,3,-1
 160 317 l 1,4,-1
 160 0 l 1,5,-1
 70 0 l 1,6,-1
 70 717 l 1,7,-1
 160 717 l 1,8,-1
 160 401 l 1,9,-1
 490 401 l 1,10,-1
 490 717 l 1,11,-1
 580 717 l 1,0,-1
EndSplineSet
EndChar

StartChar: I
Encoding: 73 73 46
Width: 230
VWidth: 0
Flags: W
PickledData: "(dp1
S'com.typemytype.robofont.layerData'
p2
(dp3
S'mask'
p4
(dp5
S'name'
p6
S'I'
sS'lib'
p7
(dp8
sS'unicodes'
p9
(tsS'width'
p10
I230
sS'contours'
p11
(tsS'components'
p12
(tsS'anchors'
p13
(tsss."
LayerCount: 2
Fore
SplineSet
160 717 m 1,0,-1
 160 0 l 1,1,-1
 70 0 l 1,2,-1
 70 717 l 1,3,-1
 160 717 l 1,0,-1
EndSplineSet
EndChar

StartChar: J
Encoding: 74 74 56
Width: 240
VWidth: 0
Flags: W
PickledData: "(dp1
S'com.typemytype.robofont.layerData'
p2
(dp3
S'mask'
p4
(dp5
S'name'
p6
S'J'
sS'lib'
p7
(dp8
sS'unicodes'
p9
(tsS'width'
p10
I240
sS'contours'
p11
(tsS'components'
p12
(tsS'anchors'
p13
(tsss."
LayerCount: 2
Fore
SplineSet
170 717 m 1,0,-1
 170 56 l 2,1,2
 170 -71 170 -71 109 -132 c 128,-1,3
 48 -193 48 -193 -43 -193 c 1,4,-1
 -58 -108 l 1,5,6
 80 -108 80 -108 80 56 c 2,7,-1
 80 717 l 1,8,-1
 170 717 l 1,0,-1
EndSplineSet
EndChar

StartChar: K
Encoding: 75 75 58
Width: 553
VWidth: 0
Flags: W
PickledData: "(dp1
S'com.typemytype.robofont.layerData'
p2
(dp3
S'mask'
p4
(dp5
S'name'
p6
S'K'
sS'lib'
p7
(dp8
sS'unicodes'
p9
(tsS'width'
p10
I553
sS'contours'
p11
(tsS'components'
p12
(tsS'anchors'
p13
(tsss."
LayerCount: 2
Fore
SplineSet
70 0 m 1,0,-1
 70 717 l 1,1,-1
 160 717 l 1,2,-1
 160 384.17989418 l 1,3,-1
 464 730 l 1,4,-1
 529 674 l 1,5,-1
 273.931346931 383.167752718 l 1,6,-1
 558 26 l 1,7,-1
 491 -26 l 1,8,-1
 217.20205035 318.484348415 l 1,9,-1
 160 253.261904762 l 1,10,-1
 160 0 l 1,11,-1
 70 0 l 1,0,-1
EndSplineSet
EndChar

StartChar: L
Encoding: 76 76 60
Width: 463
VWidth: 0
Flags: W
PickledData: "(dp1
S'com.typemytype.robofont.layerData'
p2
(dp3
S'mask'
p4
(dp5
S'name'
p6
S'L'
sS'lib'
p7
(dp8
sS'unicodes'
p9
(tsS'width'
p10
I463
sS'contours'
p11
(tsS'components'
p12
(tsS'anchors'
p13
(tsss."
LayerCount: 2
Fore
SplineSet
114 0 m 1,0,-1
 70 0 l 1,1,-1
 70 718 l 1,2,-1
 160 718 l 1,3,-1
 160 82 l 1,4,-1
 444 82 l 1,5,-1
 444 0 l 1,6,-1
 160 0 l 1,7,-1
 114 0 l 1,0,-1
EndSplineSet
EndChar

StartChar: M
Encoding: 77 77 65
Width: 770
VWidth: 0
Flags: W
PickledData: "(dp1
S'com.typemytype.robofont.layerData'
p2
(dp3
S'mask'
p4
(dp5
S'name'
p6
S'M'
sS'lib'
p7
(dp8
sS'unicodes'
p9
(tsS'width'
p10
I770
sS'contours'
p11
(tsS'components'
p12
(tsS'anchors'
p13
(tsss."
LayerCount: 2
Fore
SplineSet
386.966101695 138.186440678 m 1,0,-1
 609 717 l 1,1,-1
 699 717 l 1,2,-1
 699 0 l 1,3,-1
 609 0 l 1,4,-1
 609 361 l 1,5,-1
 614.292307692 499.923076923 l 1,6,-1
 566 361 l 1,7,-1
 429 3 l 1,8,-1
 348 3 l 1,9,-1
 207 361 l 1,10,-1
 153.181818182 513.727272727 l 1,11,-1
 159 361 l 1,12,-1
 159 0 l 1,13,-1
 69 0 l 1,14,-1
 69 717 l 1,15,-1
 159 717 l 1,16,-1
 386.966101695 138.186440678 l 1,0,-1
EndSplineSet
EndChar

StartChar: N
Encoding: 78 78 66
Width: 648
VWidth: 0
Flags: W
PickledData: "(dp1
S'com.typemytype.robofont.layerData'
p2
(dp3
S'mask'
p4
(dp5
S'name'
p6
S'N'
sS'lib'
p7
(dp8
sS'unicodes'
p9
(tsS'width'
p10
I648
sS'contours'
p11
(tsS'components'
p12
(tsS'anchors'
p13
(tsss."
LayerCount: 2
Fore
SplineSet
70 0 m 1,0,-1
 70 717 l 1,1,-1
 160 717 l 1,2,-1
 488 174.98 l 1,3,-1
 488 717 l 1,4,-1
 578 717 l 1,5,-1
 578 0 l 1,6,-1
 488 0 l 1,7,-1
 160 542.02 l 1,8,-1
 160 0 l 1,9,-1
 70 0 l 1,0,-1
EndSplineSet
EndChar

StartChar: Nastick
Encoding: 65540 -1 68
Width: 312
VWidth: 0
Flags: W
PickledData: "(dp1
S'com.typemytype.robofont.layerData'
p2
(dp3
S'mask'
p4
(dp5
S'name'
p6
S'Nastick'
p7
sS'lib'
p8
(dp9
sS'unicodes'
p10
(tsS'width'
p11
I312
sS'contours'
p12
(tsS'components'
p13
(tsS'anchors'
p14
(tsssS'com.typemytype.robofont.mark'
p15
(F1
F1
F0
F1
tp16
s."
LayerCount: 2
Fore
SplineSet
142 242 m 1,0,-1
 54 363 l 1,1,-1
 86 426 l 1,2,-1
 344 426 l 1,3,-1
 344 348 l 1,4,-1
 163.818181818 348 l 1,5,-1
 206 290 l 1,6,-1
 142 242 l 1,0,-1
EndSplineSet
EndChar

StartChar: Nastick45
Encoding: 65541 -1 69
Width: 371
VWidth: 0
Flags: W
PickledData: "(dp1
S'com.typemytype.robofont.layerData'
p2
(dp3
S'mask'
p4
(dp5
S'name'
p6
S'Nastick45'
p7
sS'lib'
p8
(dp9
sS'unicodes'
p10
(tsS'width'
p11
I371
sS'contours'
p12
((dp13
S'points'
p14
((dp15
S'segmentType'
p16
S'move'
p17
sS'x'
I240
sS'smooth'
p18
I00
sS'y'
I-27
s(dp19
g16
S'line'
p20
sS'x'
I92
sg18
I00
sS'y'
I-4
s(dp21
g16
S'line'
p22
sS'x'
I426
sg18
I00
sS'y'
I330
stp23
stp24
sS'components'
p25
(tsS'anchors'
p26
(tsssS'com.typemytype.robofont.mark'
p27
(F1
F1
F0
F1
tp28
s."
LayerCount: 2
Fore
SplineSet
234 -66 m 1,0,-1
 86 -43 l 1,1,-1
 64 24 l 1,2,-1
 235 195 l 1,3,-1
 291 139 l 1,4,-1
 175.029239766 23.0292397661 l 1,5,-1
 246 12 l 1,6,-1
 234 -66 l 1,0,-1
EndSplineSet
EndChar

StartChar: O
Encoding: 79 79 73
Width: 740
VWidth: 0
Flags: W
PickledData: "(dp1
S'com.typemytype.robofont.layerData'
p2
(dp3
S'mask'
p4
(dp5
S'name'
p6
S'O'
sS'lib'
p7
(dp8
sS'unicodes'
p9
(tsS'width'
p10
I740
sS'contours'
p11
(tsS'components'
p12
(tsS'anchors'
p13
(tsss."
LayerCount: 2
Fore
SplineSet
370 729 m 0,0,1
 516 729 516 729 610.5 623 c 128,-1,2
 705 517 705 517 705 358 c 128,-1,3
 705 199 705 199 610.5 94 c 128,-1,4
 516 -11 516 -11 370 -11 c 128,-1,5
 224 -11 224 -11 129.5 94 c 128,-1,6
 35 199 35 199 35 358 c 128,-1,7
 35 517 35 517 130 623 c 128,-1,8
 225 729 225 729 370 729 c 0,0,1
370 71 m 0,9,10
 480 71 480 71 546 154.5 c 128,-1,11
 612 238 612 238 612 358 c 128,-1,12
 612 478 612 478 546 562 c 128,-1,13
 480 646 480 646 370 646 c 0,14,15
 261 646 261 646 195 562 c 128,-1,16
 129 478 129 478 129 358 c 128,-1,17
 129 238 129 238 195 154.5 c 128,-1,18
 261 71 261 71 370 71 c 0,9,10
EndSplineSet
EndChar

StartChar: Oslash
Encoding: 216 216 83
Width: 750
VWidth: 0
Flags: W
PickledData: "(dp1
S'com.typemytype.robofont.layerData'
p2
(dp3
S'mask'
p4
(dp5
S'name'
p6
S'Oslash'
p7
sS'lib'
p8
(dp9
sS'unicodes'
p10
(tsS'width'
p11
I750
sS'contours'
p12
((dp13
S'points'
p14
((dp15
S'segmentType'
p16
S'line'
p17
sS'x'
I12
sS'smooth'
p18
I00
sS'y'
I28
s(dp19
g16
S'line'
p20
sS'x'
I656
sg18
I00
sS'y'
I770
s(dp21
g16
S'line'
p22
sS'x'
I722
sg18
I00
sS'y'
I714
s(dp23
g16
S'line'
p24
sS'x'
I78
sg18
I00
sS'y'
I-28
stp25
stp26
sS'components'
p27
((dp28
S'transformation'
p29
(I1
I0
I0
I1
I0
I0
tp30
sS'baseGlyph'
p31
S'O'
stp32
sS'anchors'
p33
(tsss."
LayerCount: 2
Fore
SplineSet
169.512233209 192.364823793 m 1,0,-1
 498.702359204 606.681038016 l 1,1,2
 442.48671004 646 442.48671004 646 370 646 c 0,3,4
 261 646 261 646 195 562 c 128,-1,5
 129 478 129 478 129 358 c 0,6,7
 129 265.199351903 129 265.199351903 169.512233209 192.364823793 c 1,0,-1
110.191407216 117.704078804 m 1,8,9
 35 218.002253622 35 218.002253622 35 358 c 0,10,11
 35 517 35 517 130 623 c 128,-1,12
 225 729 225 729 370 729 c 0,13,14
 395.669463377 729 395.669463377 729 420.348087379 725.364515552 c 128,-1,15
 445.026711381 721.729031104 445.026711381 721.729031104 467.878561258 714.688683102 c 128,-1,16
 490.730411135 707.648335099 490.730411135 707.648335099 511.855244018 697.513472628 c 128,-1,17
 532.9800769 687.378610157 532.9800769 687.378610157 552.342043583 674.191540941 c 1,18,-1
 638 782 l 1,19,-1
 707 729 l 1,20,-1
 616.994910028 615.720271377 l 1,21,22
 705 511.505594997 705 511.505594997 705 358 c 0,23,24
 705 199 705 199 610.5 94 c 128,-1,25
 516 -11 516 -11 370 -11 c 0,26,27
 257.175850457 -11 257.175850457 -11 171.608528866 55.1603252012 c 1,28,-1
 96 -40 l 1,29,-1
 27 13 l 1,30,-1
 110.191407216 117.704078804 l 1,8,9
370 71 m 0,31,32
 480 71 480 71 546 154.5 c 128,-1,33
 612 238 612 238 612 358 c 0,34,35
 612 465.427272365 612 465.427272365 559.706043214 543.616934913 c 1,36,-1
 225.533617091 123.030035259 l 1,37,38
 244.948872981 106.489432375 244.948872981 106.489432375 267.139082613 95.0326097982 c 128,-1,39
 289.329292246 83.5757872213 289.329292246 83.5757872213 315.509085744 77.2878936106 c 128,-1,40
 341.688879243 71 341.688879243 71 370 71 c 0,31,32
EndSplineSet
EndChar

StartChar: P
Encoding: 80 80 85
Width: 557
VWidth: 0
Flags: W
PickledData: "(dp1
S'com.typemytype.robofont.layerData'
p2
(dp3
S'mask'
p4
(dp5
S'name'
p6
S'P'
sS'lib'
p7
(dp8
sS'unicodes'
p9
(tsS'width'
p10
I557
sS'contours'
p11
(tsS'components'
p12
(tsS'anchors'
p13
(tsss."
LayerCount: 2
Fore
SplineSet
70 0 m 1,0,-1
 70 717 l 1,1,-1
 115 717 l 1,2,-1
 160 717 l 1,3,-1
 297 717 l 2,4,5
 396 717 396 717 460.5 649 c 128,-1,6
 525 581 525 581 525 482 c 0,7,8
 525 387 525 387 458 322 c 128,-1,9
 391 257 391 257 285 257 c 0,10,11
 209.344592114 257 209.344592114 257 160 261.79771507 c 1,12,-1
 160 0 l 1,13,-1
 70 0 l 1,0,-1
160 635 m 1,14,-1
 160 344.808097528 l 1,15,16
 189.932976321 341.291167686 189.932976321 341.291167686 218.475423511 340.145583843 c 128,-1,17
 247.017870701 339 247.017870701 339 285 339 c 0,18,19
 352 339 352 339 393.5 380.5 c 128,-1,20
 435 422 435 422 435 482 c 0,21,22
 435 545 435 545 397.5 590 c 128,-1,23
 360 635 360 635 297 635 c 2,24,-1
 160 635 l 1,14,-1
EndSplineSet
EndChar

StartChar: Q
Encoding: 81 81 87
Width: 746
VWidth: 0
Flags: W
PickledData: "(dp1
S'com.typemytype.robofont.layerData'
p2
(dp3
S'mask'
p4
(dp5
S'name'
p6
S'Q'
sS'lib'
p7
(dp8
sS'unicodes'
p9
(tsS'width'
p10
I746
sS'contours'
p11
(tsS'components'
p12
(tsS'anchors'
p13
(tsss."
LayerCount: 2
Fore
SplineSet
370 729 m 0,0,1
 516 729 516 729 610.5 623 c 128,-1,2
 705 517 705 517 705 358 c 0,3,4
 705 230.841000674 705 230.841000674 642.383533557 135.200363209 c 1,5,-1
 741 37 l 1,6,-1
 682 -21 l 1,7,-1
 588.915861597 72.0841384025 l 1,8,9
 498.177583561 -11 498.177583561 -11 370 -11 c 0,10,11
 224 -11 224 -11 129.5 94 c 128,-1,12
 35 199 35 199 35 358 c 128,-1,13
 35 517 35 517 130 623 c 128,-1,14
 225 729 225 729 370 729 c 0,0,1
527.127537795 133.872462205 m 1,15,-1
 446 215 l 1,16,-1
 504 273 l 1,17,-1
 576.134230119 201.170133722 l 1,18,19
 612 271.144344281 612 271.144344281 612 358 c 0,20,21
 612 478 612 478 546 562 c 128,-1,22
 480 646 480 646 370 646 c 0,23,24
 261 646 261 646 195 562 c 128,-1,25
 129 478 129 478 129 358 c 128,-1,26
 129 238 129 238 195 154.5 c 128,-1,27
 261 71 261 71 370 71 c 0,28,29
 462.791292066 71 462.791292066 71 527.127537795 133.872462205 c 1,15,-1
EndSplineSet
EndChar

StartChar: R
Encoding: 82 82 88
Width: 561
VWidth: 0
Flags: W
PickledData: "(dp1
S'com.typemytype.robofont.layerData'
p2
(dp3
S'mask'
p4
(dp5
S'name'
p6
S'R'
sS'lib'
p7
(dp8
sS'unicodes'
p9
(tsS'width'
p10
I561
sS'contours'
p11
(tsS'components'
p12
(tsS'anchors'
p13
(tsss."
LayerCount: 2
Fore
SplineSet
70 0 m 1,0,-1
 70 717 l 1,1,-1
 115 717 l 1,2,-1
 160 717 l 1,3,-1
 308 717 l 2,4,5
 397 717 397 717 461 649 c 128,-1,6
 525 581 525 581 525 483 c 0,7,8
 525 403.336882423 525 403.336882423 475.807539974 343.806494941 c 128,-1,9
 426.615079949 284.27610746 426.615079949 284.27610746 351.620188229 265.843474416 c 1,10,-1
 531 29 l 1,11,-1
 461 -24 l 1,12,-1
 245.026315789 259 l 1,13,-1
 160 259 l 1,14,-1
 160 0 l 1,15,-1
 70 0 l 1,0,-1
160 339 m 1,16,-1
 300 339 l 2,17,18
 358 339 358 339 396.5 382.5 c 128,-1,19
 435 426 435 426 435 483 c 0,20,21
 435 544 435 544 396.5 589.5 c 128,-1,22
 358 635 358 635 299 635 c 2,23,-1
 160 635 l 1,24,-1
 160 339 l 1,16,-1
EndSplineSet
EndChar

StartChar: Rastick
Encoding: 65543 -1 90
Width: 309
VWidth: 0
Flags: W
PickledData: "(dp1
S'com.typemytype.robofont.layerData'
p2
(dp3
S'mask'
p4
(dp5
S'name'
p6
S'Rastick'
p7
sS'lib'
p8
(dp9
sS'unicodes'
p10
(tsS'width'
p11
I309
sS'contours'
p12
((dp13
S'points'
p14
((dp15
S'segmentType'
p16
S'move'
p17
sS'x'
I30
sS'smooth'
p18
I00
sS'y'
I17
s(dp19
g16
S'line'
p20
sS'x'
I239
sg18
I00
sS'y'
I228
stp21
stp22
sS'components'
p23
(tsS'anchors'
p24
(tsssS'com.typemytype.robofont.mark'
p25
(F1
F1
F0
F1
tp26
s."
LayerCount: 2
Fore
SplineSet
28 71 m 1,0,-1
 211 256 l 1,1,-1
 267 200 l 1,2,-1
 84 15 l 1,3,-1
 28 71 l 1,0,-1
EndSplineSet
EndChar

StartChar: S
Encoding: 83 83 93
Width: 512
VWidth: 0
Flags: W
PickledData: "(dp1
S'com.typemytype.robofont.layerData'
p2
(dp3
S'mask'
p4
(dp5
S'name'
p6
S'S'
sS'lib'
p7
(dp8
sS'unicodes'
p9
(tsS'width'
p10
I512
sS'contours'
p11
(tsS'components'
p12
(tsS'anchors'
p13
(tsss."
LayerCount: 2
Fore
SplineSet
91 143 m 1,0,1
 120 106 120 106 164 81.5 c 128,-1,2
 208 57 208 57 256 57 c 0,3,4
 315 57 315 57 351 94.5 c 128,-1,5
 387 132 387 132 387 185 c 0,6,7
 387 275 387 275 294 317 c 2,8,-1
 212 354 l 2,9,10
 137 387 137 387 100.5 432.5 c 128,-1,11
 64 478 64 478 64 544 c 0,12,13
 64 632 64 632 117 681.5 c 128,-1,14
 170 731 170 731 258 731 c 0,15,16
 391 731 391 731 446 646 c 1,17,-1
 374 601 l 1,18,19
 345 649 345 649 258 649 c 0,20,21
 210 649 210 649 182 620.5 c 128,-1,22
 154 592 154 592 154 544 c 0,23,24
 154 505 154 505 176.5 480.5 c 128,-1,25
 199 456 199 456 247 435 c 1,26,-1
 324 399 l 1,27,28
 477 333 477 333 477 185 c 0,29,30
 477 96 477 96 416 35.5 c 128,-1,31
 355 -25 355 -25 256 -25 c 0,32,33
 189 -25 189 -25 127 7 c 128,-1,34
 65 39 65 39 24 90 c 1,35,-1
 91 143 l 1,0,1
EndSplineSet
EndChar

StartChar: T
Encoding: 84 84 98
Width: 515
VWidth: 0
Flags: W
PickledData: "(dp1
S'com.typemytype.robofont.layerData'
p2
(dp3
S'mask'
p4
(dp5
S'name'
p6
S'T'
sS'lib'
p7
(dp8
sS'unicodes'
p9
(tsS'width'
p10
I515
sS'contours'
p11
(tsS'components'
p12
(tsS'anchors'
p13
(tsss."
LayerCount: 2
Fore
SplineSet
5 717 m 1,0,-1
 510 717 l 1,1,-1
 510 635 l 1,2,-1
 302 635 l 1,3,-1
 302 0 l 1,4,-1
 212 0 l 1,5,-1
 212 635 l 1,6,-1
 5 635 l 1,7,-1
 5 717 l 1,0,-1
EndSplineSet
EndChar

StartChar: Thorn
Encoding: 222 222 101
Width: 567
VWidth: 0
Flags: W
PickledData: "(dp1
S'com.typemytype.robofont.layerData'
p2
(dp3
S'mask'
p4
(dp5
S'name'
p6
S'Thorn'
p7
sS'lib'
p8
(dp9
sS'unicodes'
p10
(tsS'width'
p11
I567
sS'contours'
p12
(tsS'components'
p13
(tsS'anchors'
p14
(tsss."
LayerCount: 2
Fore
SplineSet
76 0 m 1,0,-1
 76 734 l 1,1,-1
 168 734 l 1,2,-1
 168 664 l 1,3,-1
 308 664 l 2,4,5
 409 664 409 664 475.5 594.5 c 128,-1,6
 542 525 542 525 542 424 c 0,7,8
 542 327 542 327 473 260 c 128,-1,9
 404 193 404 193 296 193 c 0,10,11
 218.445623963 193 218.445623963 193 168 197.7742124 c 1,12,-1
 168 0 l 1,13,-1
 76 0 l 1,0,-1
168 282.790889378 m 1,14,15
 219.026542063 277 219.026542063 277 296 277 c 0,16,17
 364 277 364 277 407 320 c 128,-1,18
 450 363 450 363 450 424 c 0,19,20
 450 488 450 488 411 534 c 128,-1,21
 372 580 372 580 308 580 c 2,22,-1
 168 580 l 1,23,-1
 168 282.790889378 l 1,14,15
EndSplineSet
EndChar

StartChar: U
Encoding: 85 85 102
Width: 645
VWidth: 0
Flags: W
PickledData: "(dp1
S'com.typemytype.robofont.layerData'
p2
(dp3
S'mask'
p4
(dp5
S'name'
p6
S'U'
sS'lib'
p7
(dp8
sS'unicodes'
p9
(tsS'width'
p10
I645
sS'contours'
p11
(tsS'components'
p12
(tsS'anchors'
p13
(tsss."
LayerCount: 2
Fore
SplineSet
575 717 m 1,0,-1
 575 251 l 2,1,2
 575 129 575 129 504.5 50.5 c 128,-1,3
 434 -28 434 -28 322 -28 c 0,4,5
 211 -28 211 -28 140.5 51 c 128,-1,6
 70 130 70 130 70 251 c 2,7,-1
 70 717 l 1,8,-1
 160 717 l 1,9,-1
 160 251 l 2,10,11
 160 168 160 168 203 111 c 128,-1,12
 246 54 246 54 322 54 c 128,-1,13
 398 54 398 54 441.5 111 c 128,-1,14
 485 168 485 168 485 251 c 2,15,-1
 485 717 l 1,16,-1
 575 717 l 1,0,-1
EndSplineSet
EndChar

StartChar: V
Encoding: 86 86 113
Width: 586
VWidth: 0
Flags: W
PickledData: "(dp1
S'com.typemytype.robofont.layerData'
p2
(dp3
S'mask'
p4
(dp5
S'name'
p6
S'V'
sS'lib'
p7
(dp8
sS'unicodes'
p9
(tsS'width'
p10
I586
sS'contours'
p11
(tsS'components'
p12
(tsS'anchors'
p13
(tsss."
LayerCount: 2
Fore
SplineSet
296.331300813 140.451219512 m 1,0,-1
 91 734 l 1,1,-1
 6 705 l 1,2,-1
 256 -16 l 1,3,-1
 331 -16 l 1,4,-1
 580 705 l 1,5,-1
 500 734 l 1,6,-1
 296.331300813 140.451219512 l 1,0,-1
EndSplineSet
EndChar

StartChar: W
Encoding: 87 87 114
Width: 798
VWidth: 0
Flags: W
PickledData: "(dp1
S'com.typemytype.robofont.layerData'
p2
(dp3
S'mask'
p4
(dp5
S'name'
p6
S'W'
sS'lib'
p7
(dp8
sS'unicodes'
p9
(tsS'width'
p10
I798
sS'contours'
p11
(tsS'components'
p12
(tsS'anchors'
p13
(tsss."
LayerCount: 2
Fore
SplineSet
580.509090909 123.472727273 m 1,0,-1
 624 361 l 1,1,-1
 711 734 l 1,2,-1
 793 714 l 1,3,-1
 624 -16 l 1,4,-1
 538 -16 l 1,5,-1
 441 360 l 1,6,-1
 395.579439252 570.280373832 l 1,7,-1
 351 360 l 1,8,-1
 255 -16 l 1,9,-1
 173 -16 l 1,10,-1
 3 713 l 1,11,-1
 90 734 l 1,12,-1
 177 361 l 1,13,-1
 219.458715596 129.110091743 l 1,14,-1
 266 361 l 1,15,-1
 355 714 l 1,16,-1
 442 714 l 1,17,-1
 532 361 l 1,18,-1
 580.509090909 123.472727273 l 1,0,-1
EndSplineSet
EndChar

StartChar: X
Encoding: 88 88 119
Width: 548
VWidth: 0
Flags: W
PickledData: "(dp1
S'com.typemytype.robofont.layerData'
p2
(dp3
S'mask'
p4
(dp5
S'name'
p6
S'X'
sS'lib'
p7
(dp8
sS'unicodes'
p9
(tsS'width'
p10
I548
sS'contours'
p11
(tsS'components'
p12
(tsS'anchors'
p13
(tsss."
LayerCount: 2
Fore
SplineSet
531 27 m 1,0,-1
 459 -17 l 1,1,-1
 271.525112867 284.23805728 l 1,2,-1
 85 -17 l 1,3,-1
 18 26 l 1,4,-1
 223.91792226 360.734156733 l 1,5,-1
 19 690 l 1,6,-1
 91 734 l 1,7,-1
 277.972635427 433.568969894 l 1,8,-1
 463 734 l 1,9,-1
 531 690 l 1,10,-1
 325.487697369 357.220904455 l 1,11,-1
 531 27 l 1,0,-1
EndSplineSet
EndChar

StartChar: Y
Encoding: 89 89 120
Width: 524
VWidth: 0
Flags: W
PickledData: "(dp1
S'com.typemytype.robofont.layerData'
p2
(dp3
S'mask'
p4
(dp5
S'name'
p6
S'Y'
sS'lib'
p7
(dp8
sS'unicodes'
p9
(tsS'width'
p10
I524
sS'contours'
p11
(tsS'components'
p12
(tsS'anchors'
p13
(tsss."
LayerCount: 2
Fore
SplineSet
218 282.16509434 m 1,0,-1
 13 697 l 1,1,-1
 89 734 l 1,2,-1
 264.109279809 379.631931381 l 1,3,-1
 440 734 l 1,4,-1
 513 697 l 1,5,-1
 308 280.100961538 l 1,6,-1
 308 0 l 1,7,-1
 218 0 l 1,8,-1
 218 282.16509434 l 1,0,-1
EndSplineSet
EndChar

StartChar: Z
Encoding: 90 90 125
Width: 533
VWidth: 0
Flags: W
PickledData: "(dp1
S'com.typemytype.robofont.layerData'
p2
(dp3
S'mask'
p4
(dp5
S'name'
p6
S'Z'
sS'lib'
p7
(dp8
sS'unicodes'
p9
(tsS'width'
p10
I533
sS'contours'
p11
(tsS'components'
p12
(tsS'anchors'
p13
(tsss."
LayerCount: 2
Fore
SplineSet
499 0 m 1,0,-1
 34 0 l 1,1,-1
 34 82 l 1,2,-1
 395.293333333 635 l 1,3,-1
 49 635 l 1,4,-1
 49 717 l 1,5,-1
 498 717 l 1,6,-1
 498 635 l 1,7,-1
 136.706666667 82 l 1,8,-1
 499 82 l 1,9,-1
 499 0 l 1,0,-1
EndSplineSet
EndChar

StartChar: a
Encoding: 97 97 129
Width: 574
VWidth: 0
Flags: W
PickledData: "(dp1
S'com.typemytype.robofont.layerData'
p2
(dp3
S'mask'
p4
(dp5
S'name'
p6
S'a'
sS'lib'
p7
(dp8
sS'unicodes'
p9
(tsS'width'
p10
I574
sS'contours'
p11
(tsS'components'
p12
(tsS'anchors'
p13
(tsss."
LayerCount: 2
Fore
SplineSet
529 -9 m 1,0,-1
 539 74 l 1,1,2
 518 75 518 75 509 90.5 c 128,-1,3
 500 106 500 106 500 138 c 2,4,-1
 500 483 l 1,5,-1
 410 483 l 1,6,-1
 410 438.420467818 l 1,7,8
 353.465304457 493 353.465304457 493 271 493 c 0,9,10
 161 493 161 493 98 423 c 128,-1,11
 35 353 35 353 35 242 c 0,12,13
 35 133 35 133 99.5 61.5 c 128,-1,14
 164 -10 164 -10 271 -10 c 0,15,16
 294.483260176 -10 294.483260176 -10 316.270240825 -5.68558614203 c 128,-1,17
 338.057221474 -1.37117228406 338.057221474 -1.37117228406 357.088978674 6.85850264727 c 128,-1,18
 376.120735875 15.0881775786 376.120735875 15.0881775786 392.609716087 26.7899630862 c 128,-1,19
 409.098696299 38.4917485937 409.098696299 38.4917485937 422.829283744 53.5016668907 c 1,20,21
 449.137451118 -9 449.137451118 -9 523 -9 c 2,22,-1
 529 -9 l 1,0,-1
410 270 m 1,23,-1
 410 207 l 1,24,25
 408 150 408 150 368 111 c 128,-1,26
 328 72 328 72 271 72 c 0,27,28
 201 72 201 72 163 121.5 c 128,-1,29
 125 171 125 171 125 242 c 0,30,31
 125 314 125 314 162.5 362.5 c 128,-1,32
 200 411 200 411 271 411 c 0,33,34
 327 411 327 411 366.5 370 c 128,-1,35
 406 329 406 329 410 270 c 1,23,-1
EndSplineSet
EndChar

StartChar: aasigndeva
Encoding: 2366 2366 132
Width: 258
VWidth: 0
Flags: W
PickledData: "(dp1
S'com.typemytype.robofont.layerData'
p2
(dp3
S'mask'
p4
(dp5
S'name'
p6
S'aasigndeva'
p7
sS'lib'
p8
(dp9
sS'unicodes'
p10
(tsS'width'
p11
I258
sS'contours'
p12
((dp13
S'points'
p14
((dp15
S'segmentType'
p16
S'line'
p17
sS'x'
I-13
sS'smooth'
p18
I00
sS'y'
I606
s(dp19
g16
S'line'
p20
sS'x'
I-13
sg18
I00
sS'y'
I666
s(dp21
g16
S'line'
p22
sS'x'
I280
sg18
I00
sS'y'
I666
s(dp23
g16
S'line'
p24
sS'x'
I280
sg18
I00
sS'y'
I606
s(dp25
g16
S'line'
p26
sS'x'
I166
sg18
I00
sS'y'
I606
s(dp27
g16
S'line'
p28
sS'x'
I166
sg18
I00
sS'y'
I0
s(dp29
g16
S'line'
p30
sS'x'
I100
sg18
I00
sS'y'
I0
s(dp31
g16
S'line'
p32
sS'x'
I100
sg18
I00
sS'y'
I606
stp33
stp34
sS'components'
p35
(tsS'anchors'
p36
(tsssS'com.typemytype.robofont.mark'
p37
(F0.44109999999999999
F0.91300000000000003
F0.1201
F1
tp38
s."
AnchorPoint: "DVAnchor3" 132 684 basechar 0
LayerCount: 2
Fore
SplineSet
172 606 m 1,0,-1
 172 0 l 1,1,-1
 86 0 l 1,2,-1
 86 606 l 1,3,-1
 -10 606 l 1,4,-1
 -10 684 l 1,5,-1
 268 684 l 1,6,-1
 268 606 l 1,7,-1
 172 606 l 1,0,-1
EndSplineSet
EndChar

StartChar: abbreviationsigndeva
Encoding: 2416 2416 133
Width: 517
VWidth: 0
Flags: W
PickledData: "(dp1
S'com.typemytype.robofont.layerData'
p2
(dp3
S'mask'
p4
(dp5
S'name'
p6
S'abbreviationsigndeva'
p7
sS'lib'
p8
(dp9
sS'unicodes'
p10
(tsS'width'
p11
I517
sS'contours'
p12
((dp13
S'points'
p14
((dp15
S'segmentType'
p16
S'qcurve'
p17
sS'x'
I274
sS'smooth'
p18
I01
sS'y'
I381
s(dp19
S'y'
I381
sS'x'
I320
sg18
I00
s(dp20
S'y'
I448
sS'x'
I385
sg18
I00
s(dp21
g16
S'qcurve'
p22
sS'x'
F385
sg18
I01
sg6
S'inserted'
p23
sS'y'
F496
s(dp24
S'y'
I544
sS'x'
I385
sg18
I00
s(dp25
S'y'
I610
sS'x'
I320
sg18
I00
s(dp26
g16
S'qcurve'
p27
sS'x'
I274
sg18
I01
sS'y'
I610
s(dp28
S'y'
I610
sS'x'
I229
sg18
I00
s(dp29
S'y'
I544
sS'x'
I164
sg18
I00
s(dp30
g16
S'qcurve'
p31
sS'x'
F164
sg18
I01
sg6
S'inserted'
p32
sS'y'
F496
s(dp33
S'y'
I448
sS'x'
I164
sg18
I00
s(dp34
S'y'
I381
sS'x'
I229
sg18
I00
stp35
s(dp36
g14
((dp37
g16
S'qcurve'
p38
sS'x'
I446
sg18
I01
sS'y'
I496
s(dp39
S'y'
I425
sS'x'
I446
sg18
I00
s(dp40
S'y'
I325
sS'x'
I345
sg18
I00
s(dp41
g16
S'qcurve'
p42
sS'x'
F273
sg18
I01
sg6
S'inserted'
p43
sS'y'
F325
s(dp44
S'y'
I325
sS'x'
I201
sg18
I00
s(dp45
S'y'
I425
sS'x'
I100
sg18
I00
s(dp46
g16
S'qcurve'
p47
sS'x'
I100
sg18
I01
sS'y'
I496
s(dp48
S'y'
I566
sS'x'
I100
sg18
I00
s(dp49
S'y'
I666
sS'x'
I201
sg18
I00
s(dp50
g16
S'qcurve'
p51
sS'x'
F273
sg18
I01
sg6
S'inserted'
p52
sS'y'
F666
s(dp53
S'y'
I666
sS'x'
I345
sg18
I00
s(dp54
S'y'
I566
sS'x'
I446
sg18
I00
stp55
stp56
sS'components'
p57
(tsS'anchors'
p58
(tsssS'com.typemytype.robofont.mark'
p59
(F0.44109999999999999
F0.91300000000000003
F0.1201
F1
tp60
s."
LayerCount: 2
Fore
SplineSet
258 412 m 128,-1,1
 301 412 301 412 332 442.5 c 128,-1,2
 363 473 363 473 363 516 c 128,-1,3
 363 559 363 559 332 590 c 128,-1,4
 301 621 301 621 258 621 c 128,-1,5
 215 621 215 621 184.5 590 c 128,-1,6
 154 559 154 559 154 516 c 128,-1,7
 154 473 154 473 184.5 442.5 c 128,-1,0
 215 412 215 412 258 412 c 128,-1,1
432 518 m 128,-1,9
 432 447 432 447 381.5 397 c 128,-1,10
 331 347 331 347 259 347 c 128,-1,11
 187 347 187 347 136.5 397 c 128,-1,12
 86 447 86 447 86 518 c 128,-1,13
 86 589 86 589 136.5 638.5 c 128,-1,14
 187 688 187 688 259 688 c 128,-1,15
 331 688 331 688 381.5 638.5 c 128,-1,8
 432 589 432 589 432 518 c 128,-1,9
EndSplineSet
EndChar

StartChar: acombiningletterdeva
Encoding: 43242 43242 137
Width: 0
VWidth: 0
Flags: W
PickledData: "(dp1
S'com.typemytype.robofont.layerData'
p2
(dp3
S'mask'
p4
(dp5
S'name'
p6
S'acombiningletterdeva'
p7
sS'lib'
p8
(dp9
sS'unicodes'
p10
(tsS'width'
p11
I0
sS'contours'
p12
((dp13
S'points'
p14
((dp15
S'segmentType'
p16
S'line'
p17
sS'x'
I-361
sS'smooth'
p18
I00
sS'y'
I938
s(dp19
g16
S'line'
p20
sS'x'
I-329
sg18
I01
sS'y'
I938
s(dp21
S'y'
I938
sS'x'
I-311
sg18
I00
s(dp22
S'y'
I950
sS'x'
I-292
sg18
I00
s(dp23
g16
S'curve'
p24
sS'x'
I-292
sg18
I01
sS'y'
I967
s(dp25
S'y'
I987
sS'x'
I-292
sg18
I00
s(dp26
S'y'
I996
sS'x'
I-311
sg18
I00
s(dp27
g16
S'curve'
p28
sS'x'
I-330
sg18
I01
sS'y'
I996
s(dp29
S'y'
I996
sS'x'
I-350
sg18
I00
s(dp30
S'y'
I990
sS'x'
I-366
sg18
I00
s(dp31
g16
S'curve'
p32
sS'x'
I-388
sg18
I00
sS'y'
I979
s(dp33
g16
S'line'
p34
sS'x'
I-414
sg18
I00
sS'y'
I1033
s(dp35
S'y'
I1048
sS'x'
I-384
sg18
I00
s(dp36
S'y'
I1056
sS'x'
I-360
sg18
I00
s(dp37
g16
S'curve'
p38
sS'x'
I-330
sg18
I01
sS'y'
I1056
s(dp39
S'y'
I1056
sS'x'
I-273
sg18
I00
s(dp40
S'y'
I1019
sS'x'
I-228
sg18
I00
s(dp41
g16
S'curve'
p42
sS'x'
I-228
sg18
I01
sS'y'
I967
s(dp43
S'y'
I920
sS'x'
I-228
sg18
I00
s(dp44
S'y'
I878
sS'x'
I-273
sg18
I00
s(dp45
g16
S'curve'
p46
sS'x'
I-329
sg18
I01
sS'y'
I878
s(dp47
g16
S'line'
p48
sS'x'
I-361
sg18
I00
sS'y'
I878
stp49
s(dp50
g14
((dp51
g16
S'line'
p52
sS'x'
I-79
sg18
I00
sS'y'
I990
s(dp53
g16
S'line'
p54
sS'x'
I-217
sg18
I00
sS'y'
I990
s(dp55
g16
S'line'
p56
sS'x'
I-217
sg18
I00
sS'y'
I1050
s(dp57
g16
S'line'
p58
sS'x'
I-79
sg18
I00
sS'y'
I1050
stp59
s(dp60
g14
((dp61
g16
S'line'
p62
sS'x'
I-180
sg18
I00
sS'y'
I743
s(dp63
g16
S'line'
p64
sS'x'
I-180
sg18
I00
sS'y'
I1020
s(dp65
g16
S'line'
p66
sS'x'
I-116
sg18
I00
sS'y'
I1020
s(dp67
g16
S'line'
p68
sS'x'
I-116
sg18
I00
sS'y'
I743
stp69
s(dp70
g14
((dp71
g16
S'line'
p72
sS'x'
I-269
sg18
I00
sS'y'
I902
s(dp73
g16
S'line'
p74
sS'x'
I-152
sg18
I00
sS'y'
I902
s(dp75
g16
S'line'
p76
sS'x'
I-152
sg18
I00
sS'y'
I842
s(dp77
g16
S'line'
p78
sS'x'
I-269
sg18
I00
sS'y'
I842
stp79
s(dp80
g14
((dp81
g16
S'line'
p82
sS'x'
I-412
sg18
I00
sS'y'
I869
s(dp83
S'y'
I824
sS'x'
I-387
sg18
I00
s(dp84
S'y'
I810
sS'x'
I-356
sg18
I00
s(dp85
g16
S'curve'
p86
sS'x'
I-327
sg18
I01
sS'y'
I810
s(dp87
S'y'
I810
sS'x'
I-305
sg18
I00
s(dp88
S'y'
I822
sS'x'
I-283
sg18
I00
s(dp89
g16
S'curve'
p90
sS'x'
I-283
sg18
I01
sS'y'
I847
s(dp91
S'y'
I867
sS'x'
I-283
sg18
I00
s(dp92
S'y'
I878
sS'x'
I-305
sg18
I00
s(dp93
g16
S'curve'
p94
sS'x'
I-326
sg18
I00
sS'y'
I878
s(dp95
g16
S'line'
p96
sS'x'
I-326
sg18
I00
sS'y'
I938
s(dp97
S'y'
I938
sS'x'
I-263
sg18
I00
s(dp98
S'y'
I896
sS'x'
I-219
sg18
I00
s(dp99
g16
S'curve'
p100
sS'x'
I-219
sg18
I01
sS'y'
I847
s(dp101
S'y'
I786
sS'x'
I-219
sg18
I00
s(dp102
S'y'
I750
sS'x'
I-269
sg18
I00
s(dp103
g16
S'curve'
p104
sS'x'
I-327
sg18
I01
sS'y'
I750
s(dp105
S'y'
I750
sS'x'
I-372
sg18
I00
s(dp106
S'y'
I764
sS'x'
I-425
sg18
I00
s(dp107
g16
S'curve'
p108
sS'x'
I-466
sg18
I00
sS'y'
I839
stp109
stp110
sS'components'
p111
(tsS'anchors'
p112
(tsssS'com.typemytype.robofont.mark'
p113
(F0.44109999999999999
F0.91300000000000003
F0.1201
F1
tp114
s."
AnchorPoint: "DVAnchor3" -137 681 mark 0
LayerCount: 2
Fore
SplineSet
-422 864 m 1,0,1
 -387 800 -387 800 -327 800 c 0,2,3
 -298 800 -298 800 -285.5 811.5 c 128,-1,4
 -273 823 -273 823 -273 847 c 0,5,6
 -273 863 -273 863 -289 873 c 128,-1,7
 -305 883 -305 883 -326 883 c 0,8,9
 -327.494504887 883.000100502 -327.494504887 883.000100502 -329 883 c 2,10,-1
 -361 883 l 1,11,-1
 -361 933 l 1,12,-1
 -329 933 l 2,13,14
 -311 933 -311 933 -296.5 943 c 128,-1,15
 -282 953 -282 953 -282 967 c 0,16,17
 -282 986 -282 986 -296 996 c 128,-1,18
 -310 1006 -310 1006 -330 1006 c 0,19,20
 -358 1006 -358 1006 -392 989 c 1,21,-1
 -414 1033 l 1,22,23
 -368 1056 -368 1056 -330 1056 c 0,24,25
 -287 1056 -287 1056 -257.5 1031 c 128,-1,26
 -228 1006 -228 1006 -228 967 c 0,27,28
 -228 951.664233243 -228 951.664233243 -234.855061965 937.294705109 c 128,-1,29
 -241.710123931 922.925176976 -241.710123931 922.925176976 -254.078003668 911.404306304 c 1,30,31
 -248.07481897 907.059700434 -248.07481897 907.059700434 -242.960563006 902 c 1,32,-1
 -180 902 l 1,33,-1
 -180 990 l 1,34,-1
 -217 990 l 1,35,-1
 -217 1050 l 1,36,-1
 -79 1050 l 1,37,-1
 -79 990 l 1,38,-1
 -116 990 l 1,39,-1
 -116 743 l 1,40,-1
 -180 743 l 1,41,-1
 -180 842 l 1,42,-1
 -219.113681525 842 l 1,43,44
 -221.043486028 799.887110766 -221.043486028 799.887110766 -252.059143475 774.943555383 c 128,-1,45
 -283.074800922 750 -283.074800922 750 -327 750 c 0,46,47
 -417 750 -417 750 -466 839 c 1,48,-1
 -422 864 l 1,0,1
EndSplineSet
EndChar

StartChar: acute
Encoding: 180 180 138
Width: 342
VWidth: 0
Flags: W
PickledData: "(dp1
S'com.typemytype.robofont.layerData'
p2
(dp3
S'mask'
p4
(dp5
S'name'
p6
S'acute'
p7
sS'lib'
p8
(dp9
g2
(dp10
g4
(dp11
g6
S'H'
sg8
(dp12
sS'unicodes'
p13
(tsS'width'
p14
I687
sS'contours'
p15
((dp16
S'points'
p17
((dp18
S'segmentType'
p19
S'move'
p20
sS'x'
I256
sS'smooth'
p21
I00
sS'y'
I324
s(dp22
S'y'
I324
sS'x'
I256
sg21
I00
s(dp23
S'y'
I456
sS'x'
I294
sg21
I00
s(dp24
g19
S'curve'
p25
sS'x'
I422
sg21
I01
sS'y'
I456
s(dp26
S'y'
I456
sS'x'
I595
sg21
I00
s(dp27
S'y'
I329
sS'x'
I583
sg21
I00
s(dp28
g19
S'curve'
p29
sS'x'
I584
sg21
I01
sS'y'
I252
s(dp30
S'y'
I175
sS'x'
I585
sg21
I00
s(dp31
S'y'
I0
sS'x'
I584
sg21
I00
s(dp32
g19
S'curve'
p33
sS'x'
I584
sg21
I00
sS'y'
I0
stp34
s(dp35
g17
((dp36
g19
S'move'
p37
sS'x'
I56
sg21
I00
sS'y'
I0
s(dp38
g19
S'line'
p39
sS'x'
I56
sg21
I00
sS'y'
I735
stp40
s(dp41
g17
((dp42
g19
S'move'
p43
sS'x'
I254
sg21
I00
sS'y'
I800
s(dp44
g19
S'line'
p45
sS'x'
I254
sg21
I00
sS'y'
I0
stp46
s(dp47
g17
((dp48
g19
S'move'
p49
sS'x'
I-371
sg21
I00
sS'y'
I0
s(dp50
g19
S'line'
p51
sS'x'
I-371
sg21
I00
sS'y'
I735
stp52
s(dp53
g17
((dp54
g19
S'move'
p55
sS'x'
I79
sg21
I00
sS'y'
I374
s(dp56
g19
S'line'
p57
sS'x'
I-364
sg21
I00
sS'y'
I374
stp58
s(dp59
g17
((dp60
g19
S'move'
p61
sS'x'
I1110
sg21
I01
sS'y'
I-163
s(dp62
S'y'
I-163
sS'x'
I1202
sg21
I00
s(dp63
S'y'
I-43
sS'x'
I1280
sg21
I00
s(dp64
g19
S'curve'
p65
sS'x'
I1280
sg21
I01
sS'y'
I-11
s(dp66
S'y'
I21
sS'x'
I1280
sg21
I00
s(dp67
S'y'
I502
sS'x'
I1266
sg21
I00
s(dp68
g19
S'curve'
p69
sS'x'
I1266
sg21
I00
sS'y'
I502
stp70
s(dp71
g17
((dp72
g19
S'move'
p73
sS'x'
I751
sg21
I00
sS'y'
I500
s(dp74
g19
S'line'
p75
sS'x'
I751
sg21
I00
sS'y'
I-200
stp76
stp77
sS'components'
p78
(tsS'anchors'
p79
(tssssg13
(tsg14
I342
sg15
((dp80
g17
((dp81
g19
S'move'
p82
sS'x'
F131
sg21
I00
sS'y'
I772
s(dp83
g19
S'line'
p84
sS'x'
F221
sg21
I00
sS'y'
I862
stp85
s(dp86
g17
((dp87
g19
S'move'
p88
sS'x'
F129
sg21
I00
sS'y'
I734
s(dp89
g19
S'line'
p90
sS'x'
F129
sg21
I00
sS'y'
I0
stp91
s(dp92
g17
((dp93
g19
S'move'
p94
sS'x'
F559
sg21
I00
sS'y'
I734
s(dp95
g19
S'line'
p96
sS'x'
F559
sg21
I00
sS'y'
I0
stp97
s(dp98
g17
((dp99
g19
S'move'
p100
sS'x'
F131
sg21
I00
sS'y'
I368
s(dp101
g19
S'line'
p102
sS'x'
F555
sg21
I00
sS'y'
I368
stp103
stp104
sg78
(tsg79
(tsssS'com.typemytype.robofont.mark'
p105
(F0
F1
F0
F1
tp106
s."
LayerCount: 2
Fore
SplineSet
97 880 m 1,0,-1
 208 999 l 1,1,-1
 270 941 l 1,2,-1
 159 822 l 1,3,-1
 97 880 l 1,0,-1
EndSplineSet
EndChar

StartChar: adeva
Encoding: 2309 2309 140
Width: 817
VWidth: 0
Flags: W
PickledData: "(dp1
S'com.typemytype.robofont.layerData'
p2
(dp3
S'mask'
p4
(dp5
S'name'
p6
S'adeva'
p7
sS'lib'
p8
(dp9
sS'unicodes'
p10
(tsS'width'
p11
I817
sS'contours'
p12
((dp13
S'points'
p14
((dp15
S'segmentType'
p16
S'move'
p17
sS'x'
I102
sS'smooth'
p18
I00
sS'y'
I256
s(dp19
S'y'
I117
sS'x'
I169
sg18
I00
s(dp20
S'y'
I86
sS'x'
I257
sg18
I00
s(dp21
g16
S'curve'
p22
sS'x'
I332
sg18
I01
sS'y'
I86
s(dp23
S'y'
I86
sS'x'
I413
sg18
I00
s(dp24
S'y'
I154
sS'x'
I481
sg18
I00
s(dp25
g16
S'curve'
p26
sS'x'
I481
sg18
I01
sS'y'
I236
s(dp27
S'y'
I319
sS'x'
I481
sg18
I00
s(dp28
S'y'
I387
sS'x'
I414
sg18
I00
s(dp29
g16
S'curve'
p30
sS'x'
I331
sg18
I01
sS'y'
I387
s(dp31
S'y'
I387
sS'x'
I222
sg18
I00
stp32
s(dp33
g14
((dp34
g16
S'move'
p35
sS'x'
I445
sg18
I00
sS'y'
I301
s(dp36
g16
S'line'
p37
sS'x'
I681
sg18
I00
sS'y'
I301
stp38
s(dp39
g14
((dp40
g16
S'move'
p41
sS'x'
I259
sg18
I00
sS'y'
I387
s(dp42
g16
S'line'
p43
sS'x'
I329
sg18
I01
sS'y'
I387
s(dp44
S'y'
I387
sS'x'
I403
sg18
I00
s(dp45
S'y'
I448
sS'x'
I464
sg18
I00
s(dp46
g16
S'curve'
p47
sS'x'
I464
sg18
I01
sS'y'
I523
s(dp48
S'y'
I598
sS'x'
I464
sg18
I00
s(dp49
S'y'
I659
sS'x'
I403
sg18
I00
s(dp50
g16
S'curve'
p51
sS'x'
I328
sg18
I01
sS'y'
I659
s(dp52
S'y'
I659
sS'x'
I296
sg18
I00
s(dp53
S'y'
I649
sS'x'
I232
sg18
I00
s(dp54
g16
S'curve'
p55
sS'x'
I180
sg18
I01
sS'y'
I614
stp56
s(dp57
g14
((dp58
g16
S'move'
p59
sS'x'
I681
sg18
I00
sS'y'
I301
stp60
s(dp61
g14
((dp62
g16
S'move'
p63
sS'x'
I1249
sg18
I00
sS'y'
I265
s(dp64
g16
S'line'
p65
sS'x'
I1485
sg18
I00
sS'y'
I265
stp66
s(dp67
g14
((dp68
g16
S'move'
p69
sS'x'
I1063
sg18
I00
sS'y'
I351
s(dp70
g16
S'line'
p71
sS'x'
I1116
sg18
I01
sS'y'
I351
s(dp72
S'y'
I351
sS'x'
I1202
sg18
I00
s(dp73
S'y'
I418
sS'x'
I1268
sg18
I00
s(dp74
g16
S'curve'
p75
sS'x'
I1268
sg18
I01
sS'y'
I490
s(dp76
S'y'
I561
sS'x'
I1268
sg18
I00
s(dp77
S'y'
I623
sS'x'
I1202
sg18
I00
s(dp78
g16
S'curve'
p79
sS'x'
I1117
sg18
I01
sS'y'
I623
s(dp80
S'y'
I623
sS'x'
I1085
sg18
I00
s(dp81
S'y'
I613
sS'x'
I1038
sg18
I00
s(dp82
g16
S'curve'
p83
sS'x'
I984
sg18
I01
sS'y'
I578
stp84
s(dp85
g14
((dp86
g16
S'move'
p87
sS'x'
I906
sg18
I00
sS'y'
I220
s(dp88
S'y'
I81
sS'x'
I973
sg18
I00
s(dp89
S'y'
I50
sS'x'
I1063
sg18
I00
s(dp90
g16
S'curve'
p91
sS'x'
I1133
sg18
I00
sS'y'
I50
s(dp92
S'y'
I50
sS'x'
I1225
sg18
I00
s(dp93
S'y'
I106
sS'x'
I1285
sg18
I00
s(dp94
g16
S'curve'
p95
sS'x'
I1285
sg18
I01
sS'y'
I199
s(dp96
S'y'
I278
sS'x'
I1285
sg18
I00
s(dp97
S'y'
I330
sS'x'
I1240
sg18
I00
s(dp98
g16
S'curve'
p99
sS'x'
I1116
sg18
I01
sS'y'
I351
s(dp100
S'y'
I369
sS'x'
I1008
sg18
I00
stp101
s(dp102
g14
((dp103
g16
S'curve'
p104
sS'x'
I-256
sg18
I01
sS'y'
I86
s(dp105
S'y'
I86
sS'x'
I-174
sg18
I00
s(dp106
S'y'
I154
sS'x'
I-106
sg18
I00
s(dp107
g16
S'curve'
p108
sS'x'
I-106
sg18
I01
sS'y'
I237
s(dp109
S'y'
I319
sS'x'
I-106
sg18
I00
s(dp110
S'y'
I387
sS'x'
I-174
sg18
I00
s(dp111
g16
S'curve'
p112
sS'x'
I-256
sg18
I01
sS'y'
I387
s(dp113
S'y'
I387
sS'x'
I-339
sg18
I00
s(dp114
S'y'
I319
sS'x'
I-407
sg18
I00
s(dp115
g16
S'curve'
p116
sS'x'
I-407
sg18
I01
sS'y'
I237
s(dp117
S'y'
I154
sS'x'
I-407
sg18
I00
s(dp118
S'y'
I86
sS'x'
I-339
sg18
I00
stp119
s(dp120
g14
((dp121
g16
S'curve'
p122
sS'x'
I-259
sg18
I01
sS'y'
I387
s(dp123
S'y'
I387
sS'x'
I-184
sg18
I00
s(dp124
S'y'
I448
sS'x'
I-123
sg18
I00
s(dp125
g16
S'curve'
p126
sS'x'
I-123
sg18
I01
sS'y'
I523
s(dp127
S'y'
I598
sS'x'
I-123
sg18
I00
s(dp128
S'y'
I659
sS'x'
I-184
sg18
I00
s(dp129
g16
S'curve'
p130
sS'x'
I-259
sg18
I01
sS'y'
I659
s(dp131
S'y'
I659
sS'x'
I-334
sg18
I00
s(dp132
S'y'
I598
sS'x'
I-395
sg18
I00
s(dp133
g16
S'curve'
p134
sS'x'
I-395
sg18
I01
sS'y'
I523
s(dp135
S'y'
I448
sS'x'
I-395
sg18
I00
s(dp136
S'y'
I387
sS'x'
I-334
sg18
I00
stp137
stp138
sS'components'
p139
(tsS'anchors'
p140
(tsssS'com.typemytype.robofont.mark'
p141
(F0.51200000000000001
F1
F0.0241
F1
tp142
s."
HStem: 0 21G<645 731> 47 78<245.153 394.242> 262 78<522.618 645> 348 78<259 384.261> 606 78<549 645 731 827> 620 78<233.559 385.546>
VStem: 421 86<462.74 584.489> 438 86<168.732 261.135> 645 86<0 262 340 606>
AnchorPoint: "DVAnchor3" 696 664 basechar 0
LayerCount: 2
Fore
SplineSet
139 274 m 1,0,1
 210 125 210 125 328 125 c 0,2,3
 374 125 374 125 406 156.5 c 128,-1,4
 438 188 438 188 438 239 c 0,5,6
 438 284 438 284 407 316 c 128,-1,7
 376 348 376 348 331 348 c 0,8,9
 328.006080174 348.000272142 328.006080174 348.000272142 325 348 c 2,10,-1
 259 348 l 1,11,-1
 259 426 l 1,12,-1
 325 426 l 2,13,14
 364 426 364 426 392.5 455.5 c 128,-1,15
 421 485 421 485 421 524 c 0,16,17
 421 566 421 566 392.5 593 c 128,-1,18
 364 620 364 620 323 620 c 0,19,20
 268 620 268 620 200 580 c 1,21,-1
 160 648 l 1,22,23
 245 698 245 698 323 698 c 0,24,25
 399 698 399 698 453 650 c 128,-1,26
 507 602 507 602 507 524 c 0,27,28
 507 445.166107781 507 445.166107781 443.192356086 391.751853009 c 1,29,30
 474.018874677 370.686166088 474.018874677 370.686166088 494.153107764 340 c 1,31,-1
 645 340 l 1,32,-1
 645 606 l 1,33,-1
 549 606 l 1,34,-1
 549 684 l 1,35,-1
 827 684 l 1,36,-1
 827 606 l 1,37,-1
 731 606 l 1,38,-1
 731 0 l 1,39,-1
 645 0 l 1,40,-1
 645 262 l 1,41,-1
 522.618425562 262 l 1,42,43
 523.305575884 256.341373391 523.305575884 256.341373391 523.652787942 250.588627605 c 128,-1,44
 524 244.835881819 524 244.835881819 524 239 c 0,45,46
 524 149 524 149 466.5 98 c 128,-1,47
 409 47 409 47 328 47 c 0,48,49
 292 47 292 47 261 54.5 c 128,-1,50
 230 62 230 62 194.5 81.5 c 128,-1,51
 159 101 159 101 126 140.5 c 128,-1,52
 93 180 93 180 65 238 c 1,53,-1
 139 274 l 1,0,1
EndSplineSet
EndChar

StartChar: ae
Encoding: 230 230 142
Width: 920
VWidth: 0
Flags: W
PickledData: "(dp1
S'com.typemytype.robofont.layerData'
p2
(dp3
S'mask'
p4
(dp5
S'name'
p6
S'ae'
p7
sS'lib'
p8
(dp9
sS'unicodes'
p10
(tsS'width'
p11
I920
sS'contours'
p12
(tsS'components'
p13
(tsS'anchors'
p14
(tsssS'com.typemytype.robofont.mark'
p15
(F0.44109999999999999
F0.91300000000000003
F0.1201
F1
tp16
s."
LayerCount: 2
Fore
SplineSet
856 54 m 1,0,1
 809 8 809 8 767 -9.5 c 128,-1,2
 725 -27 725 -27 663 -27 c 0,3,4
 599.092152691 -27 599.092152691 -27 546.975772059 -0.574418471282 c 128,-1,5
 494.859391426 25.8511630574 494.859391426 25.8511630574 460.721440599 73.2378645893 c 1,6,7
 422.392162938 30.831811653 422.392162938 30.831811653 366.584746504 3.91590582649 c 128,-1,8
 310.77733007 -23 310.77733007 -23 246 -23 c 0,9,10
 164 -23 164 -23 106.5 18.5 c 128,-1,11
 49 60 49 60 49 146 c 0,12,13
 49 213 49 213 93.5 252.5 c 128,-1,14
 138 292 138 292 200 303 c 0,15,16
 212.179860786 305.485685875 212.179860786 305.485685875 227.509899836 306.938857563 c 128,-1,17
 242.839938887 308.392029252 242.839938887 308.392029252 266.470194168 308.856593456 c 128,-1,18
 290.100449449 309.321157659 290.100449449 309.321157659 305.990512228 309.381586156 c 128,-1,19
 321.880575007 309.442014653 321.880575007 309.442014653 357.463904427 309.177866316 c 128,-1,20
 393.047233848 308.91371798 393.047233848 308.91371798 410 308.873812416 c 1,21,-1
 410 311 l 2,22,23
 410 367 410 367 372 394.5 c 128,-1,24
 334 422 334 422 273 422 c 0,25,26
 184 422 184 422 123 371 c 1,27,-1
 69 435 l 1,28,29
 153 506 153 506 273 506 c 0,30,31
 412.843282025 506 412.843282025 506 470.432115876 422.600194174 c 1,32,33
 538.235528928 502 538.235528928 502 649 502 c 0,34,35
 752 502 752 502 817 438.5 c 128,-1,36
 882 375 882 375 890 270 c 1,37,-1
 844 225 l 1,38,-1
 501.709096802 225 l 1,39,40
 507.12341862 153.021989443 507.12341862 153.021989443 549.745197423 105.010994722 c 128,-1,41
 592.366976226 57 592.366976226 57 663 57 c 0,42,43
 705 57 705 57 734 69.5 c 128,-1,44
 763 82 763 82 796 114 c 1,45,-1
 856 54 l 1,0,1
790.132130312 309 m 1,46,47
 775.759851449 358.519409783 775.759851449 358.519409783 739.497934008 388.259704891 c 128,-1,48
 703.236016567 418 703.236016567 418 649 418 c 0,49,50
 596.899626058 418 596.899626058 418 561.258285006 387.861043314 c 128,-1,51
 525.616943955 357.722086627 525.616943955 357.722086627 510.566228387 309 c 1,52,-1
 790.132130312 309 l 1,46,47
417.890834674 167.752739148 m 1,53,54
 411.176889695 195.370123088 411.176889695 195.370123088 409.529289017 224.890777194 c 1,55,56
 391.25388197 224.957449192 391.25388197 224.957449192 360.823468094 225.261431992 c 128,-1,57
 330.393054218 225.565414793 330.393054218 225.565414793 313.952423475 225.615406818 c 128,-1,58
 297.511792732 225.665398844 297.511792732 225.665398844 276.71719379 225.399530543 c 128,-1,59
 255.922594849 225.133662242 255.922594849 225.133662242 241.466039756 224.04545198 c 128,-1,60
 227.009484662 222.957241718 227.009484662 222.957241718 216 221 c 0,61,62
 141 206 141 206 141 146 c 0,63,64
 141 101 141 101 172 81 c 128,-1,65
 203 61 203 61 246 61 c 0,66,67
 305.472865741 61 305.472865741 61 352.721015424 93.5871138296 c 128,-1,68
 399.969165107 126.174227659 399.969165107 126.174227659 417.890834674 167.752739148 c 1,53,54
EndSplineSet
EndChar

StartChar: aisign_ra_virama.alt1
Encoding: 65544 -1 145
Width: 0
VWidth: 0
Flags: W
PickledData: "(dp1
S'com.typemytype.robofont.layerData'
p2
(dp3
S'mask'
p4
(dp5
S'name'
p6
S'aisign_ra_virama.alt1'
p7
sS'lib'
p8
(dp9
sS'unicodes'
p10
(tsS'width'
p11
I0
sS'contours'
p12
(tsS'components'
p13
(tsS'anchors'
p14
(tsssS'com.typemytype.robofont.mark'
p15
(F0.44109999999999999
F0.91300000000000003
F0.1201
F1
tp16
s."
HStem: 768 58<-383 -248.217> 865 68<-107.293 -3> 902 58<-385 -282.964>
AnchorPoint: "DVAnchor3" -157 676 mark 0
LayerCount: 2
Fore
SplineSet
-385 960 m 1,0,-1
 -348 960 l 2,1,2
 -243 960 -243 960 -190 865 c 2,3,-1
 -179.1817189 845.71523804 l 1,4,5
 -167.92271962 884.338853909 -167.92271962 884.338853909 -130.85380336 908.669426954 c 128,-1,6
 -93.7848871009 933 -93.7848871009 933 -44 933 c 2,7,-1
 -3 933 l 1,8,-1
 -3 865 l 1,9,-1
 -44 865 l 2,10,11
 -81.0630793993 865 -81.0630793993 865 -105.140109438 845.562631975 c 128,-1,12
 -129.217139477 826.12526395 -129.217139477 826.12526395 -132.055722556 799.443421162 c 128,-1,13
 -134.894305635 772.761578374 -134.894305635 772.761578374 -122.644616377 744.931707455 c 1,14,-1
 -121 742 l 1,15,-1
 -166 708 l 1,16,-1
 -168 707 l 1,17,18
 -253 768 -253 768 -346 768 c 2,19,-1
 -383 768 l 1,20,-1
 -383 826 l 1,21,-1
 -346 826 l 2,22,23
 -325.416149466 826 -325.416149466 826 -308.281393231 823.396509083 c 128,-1,24
 -291.146636995 820.793018166 -291.146636995 820.793018166 -273.322797346 813.938045444 c 128,-1,25
 -255.498957698 807.083072722 -255.498957698 807.083072722 -245.418527607 802.260324797 c 128,-1,26
 -235.338097517 797.437576872 -235.338097517 797.437576872 -213.716918463 786.136453983 c 1,27,-1
 -246 839 l 2,28,29
 -285 902 -285 902 -348 902 c 2,30,-1
 -385 902 l 1,31,-1
 -385 960 l 1,0,-1
EndSplineSet
Ligature2: "AboveBaseSubstitutionslookup subtable" aisigndeva radeva_viramadeva
EndChar

StartChar: aisign_ra_virama_anusvara
Encoding: 65545 -1 146
Width: 0
VWidth: 0
Flags: W
PickledData: "(dp1
S'com.typemytype.robofont.guides'
p2
((dp3
S'angle'
p4
I0
sS'name'
p5
NsS'magnetic'
p6
I5
sS'isGlobal'
p7
I00
sS'y'
I708
sS'x'
I-110
stp8
sS'com.typemytype.robofont.layerData'
p9
(dp10
S'mask'
p11
(dp12
g5
S'aisign_ra_virama_anusvara'
p13
sS'lib'
p14
(dp15
sS'unicodes'
p16
(tsS'width'
p17
I0
sS'contours'
p18
((dp19
S'points'
p20
((dp21
S'y'
I745
sS'x'
I0
sS'smooth'
p22
I00
s(dp23
S'y'
I730
sS'x'
I-22
sg22
I00
s(dp24
S'segmentType'
p25
S'curve'
p26
sS'x'
I-48
sg22
I01
sS'y'
I730
s(dp27
S'y'
I730
sS'x'
I-74
sg22
I00
s(dp28
S'y'
I745
sS'x'
I-96
sg22
I00
s(dp29
g25
S'curve'
p30
sS'x'
I-96
sg22
I01
sS'y'
I774
s(dp31
S'y'
I803
sS'x'
I-96
sg22
I00
s(dp32
S'y'
I818
sS'x'
I-74
sg22
I00
s(dp33
g25
S'curve'
p34
sS'x'
I-48
sg22
I01
sS'y'
I818
s(dp35
S'y'
I818
sS'x'
I-22
sg22
I00
s(dp36
S'y'
I803
sS'x'
I0
sg22
I00
s(dp37
g25
S'curve'
p38
sS'x'
I0
sg22
I00
sS'y'
I774
stp39
s(dp40
g20
((dp41
g25
S'line'
p42
sS'x'
I-209
sg22
I00
sS'y'
I714
s(dp43
S'y'
I729
sS'x'
I-209
sg22
I00
s(dp44
S'y'
I734
sS'x'
I-209
sg22
I00
s(dp45
g25
S'curve'
p46
sS'x'
I-209
sg22
I01
sS'y'
I748
s(dp47
S'y'
I858
sS'x'
I-209
sg22
I00
s(dp48
S'y'
I942
sS'x'
I-157
sg22
I00
s(dp49
g25
S'curve'
p50
sS'x'
I-44
sg22
I01
sS'y'
I942
s(dp51
g25
S'line'
p52
sS'x'
I-3
sg22
I00
sS'y'
I942
s(dp53
g25
S'line'
p54
sS'x'
I-3
sg22
I00
sS'y'
I874
s(dp55
g25
S'line'
p56
sS'x'
I-44
sg22
I01
sS'y'
I874
s(dp57
S'y'
I874
sS'x'
I-126
sg22
I00
s(dp58
S'y'
I795
sS'x'
I-164
sg22
I00
s(dp59
g25
S'curve'
p60
sS'x'
I-133
sg22
I01
sS'y'
I743
s(dp61
S'y'
I730
sS'x'
I-125
sg22
I00
s(dp62
S'y'
I708
sS'x'
I-114
sg22
I00
s(dp63
g25
S'curve'
p64
sS'x'
I-108
sg22
I00
sS'y'
I698
stp65
s(dp66
g20
((dp67
g25
S'line'
p68
sS'x'
I387
sg22
I00
sS'y'
I666
s(dp69
g25
S'line'
p70
sS'x'
I101
sg22
I00
sS'y'
I806
s(dp71
g25
S'line'
p72
sS'x'
I128
sg22
I00
sS'y'
I866
s(dp73
g25
S'line'
p74
sS'x'
I434
sg22
I00
sS'y'
I672
s(dp75
g25
S'line'
p76
sS'x'
I267
sg22
I00
sS'y'
I959
s(dp77
g25
S'line'
p78
sS'x'
I334
sg22
I00
sS'y'
I999
s(dp79
g25
S'line'
p80
sS'x'
I394
sg22
I00
sS'y'
I859
s(dp81
S'y'
F912.60000000000002
sS'x'
F420.80000000000001
sg22
I00
s(dp82
S'y'
F945
sS'x'
F475.68000000000001
sg22
I00
s(dp83
g25
S'curve'
p84
sS'x'
I540
sg22
I01
sS'y'
I945
s(dp85
S'y'
F945
sS'x'
F565.46000000000004
sg22
I00
s(dp86
S'y'
F941.38
sS'x'
F588.53999999999996
sg22
I00
s(dp87
g25
S'curve'
p88
sS'x'
I614
sg22
I00
sS'y'
I932
s(dp89
g25
S'line'
p90
sS'x'
I614
sg22
I00
sS'y'
I872
s(dp91
S'y'
F886.74000000000001
sS'x'
F576.48000000000002
sg22
I00
s(dp92
S'y'
F892
sS'x'
F553.39999999999998
sg22
I00
s(dp93
g25
S'curve'
p94
sS'x'
I540
sg22
I01
sS'y'
I892
s(dp95
S'y'
F892
sS'x'
F478.36000000000001
sg22
I00
s(dp96
S'y'
F848.27999999999997
sS'x'
F427
sg22
I00
s(dp97
g25
S'curve'
p98
sS'x'
I427
sg22
I01
sS'y'
I792
s(dp99
S'y'
F781.27999999999997
sS'x'
F427
sg22
I00
s(dp100
S'y'
F762.82000000000005
sS'x'
F432.25999999999999
sg22
I00
s(dp101
g25
S'curve'
p102
sS'x'
I447
sg22
I00
sS'y'
I732
s(dp103
g25
S'line'
p104
sS'x'
I474
sg22
I00
sS'y'
I666
stp105
s(dp106
g20
((dp107
g25
S'line'
p108
sS'x'
I507
sg22
I00
sS'y'
I739
s(dp109
g25
S'line'
p110
sS'x'
I507
sg22
I00
sS'y'
I812
s(dp111
g25
S'line'
p112
sS'x'
I580
sg22
I00
sS'y'
I812
s(dp113
g25
S'line'
p114
sS'x'
I580
sg22
I00
sS'y'
I739
stp115
stp116
sS'components'
p117
((dp118
S'transformation'
p119
(I1
I0
I0
I1
I-1
I9
tp120
sS'baseGlyph'
p121
S'aisigndeva'
p122
stp123
sS'anchors'
p124
(tsssS'com.typemytype.robofont.mark'
p125
(F0.44109999999999999
F0.91300000000000003
F0.1201
F1
tp126
s."
HStem: 731 88<-70.6541 14.6541> 768 58<-383 -248.217> 865 68<-107.293 -3> 902 58<-385 -282.964>
VStem: -76 96<736.765 813.235>
AnchorPoint: "DVAnchor3" -113 666 mark 0
LayerCount: 2
Fore
SplineSet
-385 960 m 1,0,-1
 -348 960 l 2,1,2
 -243 960 -243 960 -190 865 c 2,3,-1
 -179.1817189 845.71523804 l 1,4,5
 -167.92271962 884.338853909 -167.92271962 884.338853909 -130.85380336 908.669426954 c 128,-1,6
 -93.7848871009 933 -93.7848871009 933 -44 933 c 2,7,-1
 -3 933 l 1,8,-1
 -3 865 l 1,9,-1
 -44 865 l 2,10,11
 -81.0630793993 865 -81.0630793993 865 -105.140109438 845.562631975 c 128,-1,12
 -129.217139477 826.12526395 -129.217139477 826.12526395 -132.055722556 799.443421162 c 128,-1,13
 -134.894305635 772.761578374 -134.894305635 772.761578374 -122.644616377 744.931707455 c 1,14,-1
 -121 742 l 1,15,-1
 -166 708 l 1,16,-1
 -168 707 l 1,17,18
 -253 768 -253 768 -346 768 c 2,19,-1
 -383 768 l 1,20,-1
 -383 826 l 1,21,-1
 -346 826 l 2,22,23
 -325.416149466 826 -325.416149466 826 -308.281393231 823.396509083 c 128,-1,24
 -291.146636995 820.793018166 -291.146636995 820.793018166 -273.322797346 813.938045444 c 128,-1,25
 -255.498957698 807.083072722 -255.498957698 807.083072722 -245.418527607 802.260324797 c 128,-1,26
 -235.338097517 797.437576872 -235.338097517 797.437576872 -213.716918463 786.136453983 c 1,27,-1
 -246 839 l 2,28,29
 -285 902 -285 902 -348 902 c 2,30,-1
 -385 902 l 1,31,-1
 -385 960 l 1,0,-1
-28 731 m 128,-1,33
 -49 731 -49 731 -62.5 742.5 c 128,-1,34
 -76 754 -76 754 -76 775 c 128,-1,35
 -76 796 -76 796 -62.5 807.5 c 128,-1,36
 -49 819 -49 819 -28 819 c 128,-1,37
 -7 819 -7 819 6.5 807.5 c 128,-1,38
 20 796 20 796 20 775 c 128,-1,39
 20 754 20 754 6.5 742.5 c 128,-1,32
 -7 731 -7 731 -28 731 c 128,-1,33
EndSplineSet
Ligature2: "AboveBaseSubstitutionslookup subtable" aisigndeva radeva_viramadeva anusvaradeva
EndChar

StartChar: aisigndeva
Encoding: 2376 2376 147
Width: 0
VWidth: 0
Flags: W
PickledData: "(dp1
S'com.typemytype.robofont.guides'
p2
((dp3
S'angle'
p4
I0
sS'name'
p5
NsS'magnetic'
p6
I5
sS'isGlobal'
p7
I00
sS'y'
I706
sS'x'
I-218
stp8
sS'com.typemytype.robofont.layerData'
p9
(dp10
S'mask'
p11
(dp12
g5
S'aisigndeva'
p13
sS'lib'
p14
(dp15
sS'unicodes'
p16
(tsS'width'
p17
I0
sS'contours'
p18
((dp19
S'points'
p20
((dp21
S'segmentType'
p22
S'line'
p23
sS'x'
I-382
sS'smooth'
p24
I00
sS'y'
I826
s(dp25
g22
S'line'
p26
sS'x'
I-345
sg24
I01
sS'y'
I826
s(dp27
S'y'
I826
sS'x'
I-281
sg24
I00
s(dp28
S'y'
I809
sS'x'
I-246
sg24
I00
s(dp29
g22
S'curve'
p30
sS'x'
I-197
sg24
I01
sS'y'
I778
s(dp31
g22
S'line'
p32
sS'x'
I-130
sg24
I01
sS'y'
I736
s(dp33
g22
S'line'
p34
sS'x'
I-162
sg24
I00
sS'y'
I684
s(dp35
S'y'
I719
sS'x'
I-210
sg24
I00
s(dp36
S'y'
I768
sS'x'
I-269
sg24
I00
s(dp37
g22
S'curve'
p38
sS'x'
I-345
sg24
I01
sS'y'
I768
s(dp39
g22
S'line'
p40
sS'x'
I-382
sg24
I00
sS'y'
I768
stp41
s(dp42
g20
((dp43
g22
S'line'
p44
sS'x'
I-384
sg24
I00
sS'y'
I960
s(dp45
g22
S'line'
p46
sS'x'
I-347
sg24
I01
sS'y'
I960
s(dp47
S'y'
I960
sS'x'
I-281
sg24
I00
s(dp48
S'y'
I929
sS'x'
I-224
sg24
I00
s(dp49
g22
S'curve'
p50
sS'x'
I-195
sg24
I01
sS'y'
I877
s(dp51
g22
S'line'
p52
sS'x'
I-106
sg24
I00
sS'y'
I716
s(dp53
g22
S'line'
p54
sS'x'
I-162
sg24
I00
sS'y'
I684
s(dp55
g22
S'line'
p56
sS'x'
I-247
sg24
I01
sS'y'
I837
s(dp57
S'y'
I875
sS'x'
I-268
sg24
I00
s(dp58
S'y'
I902
sS'x'
I-303
sg24
I00
s(dp59
g22
S'curve'
p60
sS'x'
I-347
sg24
I01
sS'y'
I902
s(dp61
g22
S'line'
p62
sS'x'
I-384
sg24
I00
sS'y'
I902
stp63
stp64
sS'components'
p65
(tsS'anchors'
p66
(tsssS'com.typemytype.robofont.mark'
p67
(F0.44109999999999999
F0.91300000000000003
F0.1201
F1
tp68
s."
AnchorPoint: "DVAnchor3" -135 664 mark 0
LayerCount: 2
Fore
SplineSet
-384 960 m 1,0,-1
 -347 960 l 2,1,2
 -242 960 -242 960 -189 865 c 2,3,-1
 -120 742 l 1,4,-1
 -165 708 l 1,5,-1
 -167 707 l 1,6,7
 -252 768 -252 768 -345 768 c 2,8,-1
 -382 768 l 1,9,-1
 -382 826 l 1,10,-1
 -345 826 l 2,11,12
 -328.365535458 826 -328.365535458 826 -312.816989862 823.684398856 c 128,-1,13
 -297.268444265 821.368797711 -297.268444265 821.368797711 -286.569048924 818.698469076 c 128,-1,14
 -275.869653582 816.028140442 -275.869653582 816.028140442 -260.676561803 809.489194124 c 128,-1,15
 -245.483470023 802.950247805 -245.483470023 802.950247805 -237.919056777 799.152861272 c 128,-1,16
 -230.35464353 795.355474739 -230.35464353 795.355474739 -212.716918463 786.136453983 c 1,17,-1
 -245 839 l 2,18,19
 -284 902 -284 902 -347 902 c 2,20,-1
 -384 902 l 1,21,-1
 -384 960 l 1,0,-1
EndSplineSet
EndChar

StartChar: ampersand
Encoding: 38 38 150
Width: 634
VWidth: 0
Flags: W
PickledData: "(dp1
S'com.typemytype.robofont.layerData'
p2
(dp3
S'mask'
p4
(dp5
S'name'
p6
S'ampersand'
p7
sS'lib'
p8
(dp9
g2
(dp10
g4
(dp11
g6
S'eight'
p12
sg8
(dp13
sS'unicodes'
p14
(tsS'width'
p15
I587
sS'contours'
p16
((dp17
S'points'
p18
((dp19
S'segmentType'
p20
S'curve'
p21
sS'x'
I106
sS'smooth'
p22
I01
sS'y'
I524
s(dp23
S'y'
I614
sS'x'
I106
sg22
I00
s(dp24
S'y'
I689
sS'x'
I190
sg22
I00
s(dp25
g20
S'curve'
p26
sS'x'
I292
sg22
I01
sS'y'
I689
s(dp27
S'y'
I689
sS'x'
I394
sg22
I00
s(dp28
S'y'
I615
sS'x'
I476
sg22
I00
s(dp29
g20
S'curve'
p30
sS'x'
I476
sg22
I01
sS'y'
I527
s(dp31
S'y'
I440
sS'x'
I476
sg22
I00
s(dp32
S'y'
I359
sS'x'
I394
sg22
I00
s(dp33
g20
S'curve'
p34
sS'x'
I292
sg22
I01
sS'y'
I359
s(dp35
S'y'
I359
sS'x'
I190
sg22
I00
s(dp36
S'y'
I442
sS'x'
I106
sg22
I00
stp37
s(dp38
g18
((dp39
g20
S'curve'
p40
sS'x'
I94
sg22
I01
sS'y'
I186
s(dp41
S'y'
I282
sS'x'
I94
sg22
I00
s(dp42
S'y'
I360
sS'x'
I182
sg22
I00
s(dp43
g20
S'curve'
p44
sS'x'
I292
sg22
I01
sS'y'
I360
s(dp45
S'y'
I360
sS'x'
I401
sg22
I00
s(dp46
S'y'
I282
sS'x'
I488
sg22
I00
s(dp47
g20
S'curve'
p48
sS'x'
I488
sg22
I01
sS'y'
I189
s(dp49
S'y'
I95
sS'x'
I488
sg22
I00
s(dp50
S'y'
I11
sS'x'
I403
sg22
I00
s(dp51
g20
S'curve'
p52
sS'x'
I292
sg22
I01
sS'y'
I11
s(dp53
S'y'
I11
sS'x'
I180
sg22
I00
s(dp54
S'y'
I97
sS'x'
I94
sg22
I00
stp55
stp56
sS'components'
p57
(tsS'anchors'
p58
(tssssg14
(tsg15
I634
sg16
((dp59
g18
((dp60
g20
S'move'
p61
sS'x'
I375
sg22
I00
sS'y'
I364
s(dp62
S'y'
I393
sS'x'
I458
sg22
I00
s(dp63
S'y'
I465
sS'x'
I497
sg22
I00
s(dp64
g20
S'curve'
p65
sS'x'
I497
sg22
I01
sS'y'
I536
s(dp66
S'y'
I631
sS'x'
I497
sg22
I00
s(dp67
S'y'
I704
sS'x'
I441
sg22
I00
s(dp68
g20
S'curve'
p69
sS'x'
I306
sg22
I01
sS'y'
I704
s(dp70
S'y'
I704
sS'x'
I175
sg22
I00
s(dp71
S'y'
I628
sS'x'
I113
sg22
I00
s(dp72
g20
S'curve'
p73
sS'x'
I113
sg22
I01
sS'y'
I532
s(dp74
S'y'
I437
sS'x'
I113
sg22
I00
s(dp75
S'y'
I374
sS'x'
I175
sg22
I00
s(dp76
g20
S'curve'
p77
sS'x'
I286
sg22
I01
sS'y'
I367
s(dp78
S'y'
I365
sS'x'
I317
sg22
I00
s(dp79
S'y'
I365
sS'x'
I328
sg22
I00
s(dp80
g20
S'curve'
p81
sS'x'
I358
sg22
I01
sS'y'
I363
s(dp82
S'y'
I355
sS'x'
I446
sg22
I00
s(dp83
S'y'
I285
sS'x'
I497
sg22
I00
s(dp84
g20
S'curve'
p85
sS'x'
I497
sg22
I01
sS'y'
I198
s(dp86
S'y'
I104
sS'x'
I497
sg22
I00
s(dp87
S'y'
I31
sS'x'
I441
sg22
I00
s(dp88
g20
S'curve'
p89
sS'x'
I306
sg22
I01
sS'y'
I31
s(dp90
S'y'
I31
sS'x'
I175
sg22
I00
s(dp91
S'y'
I107
sS'x'
I113
sg22
I00
s(dp92
g20
S'curve'
p93
sS'x'
I113
sg22
I01
sS'y'
I203
s(dp94
S'y'
I293
sS'x'
I113
sg22
I00
s(dp95
S'y'
I342
sS'x'
I167
sg22
I00
s(dp96
g20
S'curve'
p97
sS'x'
I243
sg22
I00
sS'y'
I369
stp98
s(dp99
g18
((dp100
g20
S'move'
p101
sS'x'
F642.70100000000002
sg22
I00
sS'y'
F-31.134799999999998
s(dp102
g20
S'line'
p103
sS'x'
I218
sg22
I01
sS'y'
I454
s(dp104
S'y'
F511.68599999999998
sS'x'
F167.5
sg22
I00
s(dp105
S'y'
F560.79700000000003
sS'x'
I150
sg22
I00
s(dp106
g20
S'curve'
p107
sS'x'
I150
sg22
I01
sS'y'
I604
s(dp108
S'y'
F694.52999999999997
sS'x'
I150
sg22
I00
s(dp109
S'y'
I761
sS'x'
F221.37
sg22
I00
s(dp110
g20
S'curve'
p111
sS'x'
I311
sg22
I01
sS'y'
I761
s(dp112
S'y'
I761
sS'x'
F400.62900000000002
sg22
I00
s(dp113
S'y'
I684
sS'x'
I462
sg22
I00
s(dp114
g20
S'curve'
p115
sS'x'
I462
sg22
I01
sS'y'
I624
s(dp116
S'y'
I543
sS'x'
I462
sg22
I00
s(dp117
S'y'
I465
sS'x'
I418
sg22
I00
s(dp118
g20
S'curve'
p119
sS'x'
I304
sg22
I01
sS'y'
I424
s(dp120
S'y'
F376.15899999999999
sS'x'
F170.97800000000001
sg22
I00
s(dp121
S'y'
F305.96100000000001
sS'x'
F88.223600000000005
sg22
I00
s(dp122
g20
S'curve'
p123
sS'x'
F88.223600000000005
sg22
I01
sS'y'
F198.785
s(dp124
S'y'
F96.997100000000003
sS'x'
F88.223600000000005
sg22
I00
s(dp125
S'y'
F2.39453
sS'x'
F172.33099999999999
sg22
I00
s(dp126
g20
S'curve'
p127
sS'x'
F281.72399999999999
sg22
I01
sS'y'
F2.39453
s(dp128
S'y'
F2.39453
sS'x'
F332.72000000000003
sg22
I00
s(dp129
S'y'
F11.582000000000001
sS'x'
F397.745
sg22
I00
s(dp130
g20
S'curve'
p131
sS'x'
I468
sg22
I01
sS'y'
I127
s(dp132
S'y'
I196
sS'x'
I510
sg22
I00
s(dp133
S'y'
I296
sS'x'
I529
sg22
I00
s(dp134
g20
S'curve'
p135
sS'x'
I546
sg22
I01
sS'y'
I377
stp136
s(dp137
g18
((dp138
g20
S'move'
p139
sS'x'
I572
sg22
I00
sS'y'
I0
stp140
stp141
sg57
(tsg58
(tsssS'com.fontlab.hintData'
p142
(dp143
S'vhints'
p144
((dp145
S'position'
p146
I101
sg15
I40
s(dp147
g146
I486
sg15
I41
stp148
sS'hhints'
p149
((dp150
g146
I-11
sg15
I21
s(dp151
g146
I748
sg15
I20
stp152
ssS'com.typemytype.robofont.mark'
p153
(F0
F1
F0
F1
tp154
s."
HStem: -11 21<217.5 327.5> 748 20
VStem: 101 40 486 41
LayerCount: 2
Fore
SplineSet
661 -12 m 1,0,1
 575.898653612 -14.1635935522 575.898653612 -14.1635935522 476.734357596 58.5024141323 c 1,2,3
 432.194446012 15.49598825 432.194446012 15.49598825 388.777392487 2.24799412501 c 128,-1,4
 345.360338961 -11 345.360338961 -11 292 -11 c 0,5,6
 187 -11 187 -11 126 51 c 128,-1,7
 65 113 65 113 65 191 c 0,8,9
 65 235.744558299 65 235.744558299 78.9449382459 271.971321029 c 128,-1,10
 92.8898764918 308.198083759 92.8898764918 308.198083759 119.579790403 336.173799724 c 128,-1,11
 146.269704315 364.149515688 146.269704315 364.149515688 187.246361582 387.344850244 c 1,12,13
 127 484.568745362 127 484.568745362 127 559 c 0,14,15
 127 639 127 639 184 693 c 128,-1,16
 241 747 241 747 331 747 c 0,17,18
 425 747 425 747 477.5 694 c 128,-1,19
 530 641 530 641 530 571 c 0,20,21
 530 509 530 509 482.5 449 c 128,-1,22
 435 389 435 389 336 359 c 0,23,24
 326.313493669 355.86085443 326.313493669 355.86085443 317.565760573 352.842488292 c 1,25,26
 324.964014604 343.351355086 324.964014604 343.351355086 338.273232063 326.636890348 c 128,-1,27
 351.582449522 309.92242561 351.582449522 309.92242561 357 303 c 0,28,29
 375.486598459 279.337153972 375.486598459 279.337153972 392.221741762 259.029363114 c 128,-1,30
 408.956885064 238.721572255 408.956885064 238.721572255 427.292645005 218.117695065 c 128,-1,31
 445.628404946 197.513817874 445.628404946 197.513817874 462.72719952 180.249797081 c 1,32,33
 470.555231961 193.579268153 470.555231961 193.579268153 477.874923277 210.753944127 c 128,-1,34
 485.194614592 227.9286201 485.194614592 227.9286201 489.754383608 240.083725469 c 128,-1,35
 494.314152624 252.238830838 494.314152624 252.238830838 500.758458234 275.930995173 c 128,-1,36
 507.202763844 299.623159508 507.202763844 299.623159508 509.2037162 307.498061496 c 128,-1,37
 511.204668556 315.372963484 511.204668556 315.372963484 517.754789136 343.70941489 c 128,-1,38
 524.304909717 372.045866296 524.304909717 372.045866296 525 375 c 1,39,-1
 613 355 l 1,40,41
 575.665411759 193.216784289 575.665411759 193.216784289 529.346060899 121.57363245 c 1,42,43
 598.90103129 70.1970309387 598.90103129 70.1970309387 659 72 c 1,44,-1
 661 -12 l 1,0,1
266.969217965 423.613086832 m 1,45,46
 288.016115962 431.449517988 288.016115962 431.449517988 312 439 c 0,47,48
 374 459 374 459 406 496 c 128,-1,49
 438 533 438 533 438 571 c 0,50,51
 438 608 438 608 409 635.5 c 128,-1,52
 380 663 380 663 331 663 c 128,-1,53
 282 663 282 663 250.5 633 c 128,-1,54
 219 603 219 603 219 559 c 0,55,56
 219 499.90153368 219 499.90153368 266.969217965 423.613086832 c 1,45,46
235.671482255 317.213965785 m 1,57,58
 157 271.545284041 157 271.545284041 157 191 c 0,59,60
 157 145 157 145 194 109 c 128,-1,61
 231 73 231 73 292 73 c 0,62,63
 361.247680072 73 361.247680072 73 409.134174176 115.312427013 c 1,64,65
 350.419068151 170.740219614 350.419068151 170.740219614 289 249 c 0,66,67
 250.902870711 296.910026227 250.902870711 296.910026227 235.671482255 317.213965785 c 1,57,58
EndSplineSet
EndChar

StartChar: anudattadeva
Encoding: 2386 2386 151
Width: 0
VWidth: 0
Flags: W
PickledData: "(dp1
S'com.typemytype.robofont.layerData'
p2
(dp3
S'mask'
p4
(dp5
S'name'
p6
S'anudattadeva'
p7
sS'lib'
p8
(dp9
sS'unicodes'
p10
(tsS'width'
p11
I0
sS'contours'
p12
((dp13
S'points'
p14
((dp15
S'segmentType'
p16
S'line'
p17
sS'x'
I-594
sS'smooth'
p18
I00
sS'y'
I-159
s(dp19
g16
S'line'
p20
sS'x'
I-637
sg18
I00
sS'y'
I-120
s(dp21
g16
S'line'
p22
sS'x'
I-111
sg18
I00
sS'y'
I-120
s(dp23
g16
S'line'
p24
sS'x'
I-154
sg18
I00
sS'y'
I-159
s(dp25
g16
S'line'
p26
sS'x'
I-154
sg18
I00
sS'y'
I-99
s(dp27
g16
S'line'
p28
sS'x'
I-111
sg18
I00
sS'y'
I-138
s(dp29
g16
S'line'
p30
sS'x'
I-637
sg18
I00
sS'y'
I-138
s(dp31
g16
S'line'
p32
sS'x'
I-594
sg18
I00
sS'y'
I-99
stp33
s(dp34
g14
((dp35
g16
S'line'
p36
sS'x'
I-680
sg18
I00
sS'y'
I-159
s(dp37
g16
S'line'
p38
sS'x'
I-680
sg18
I00
sS'y'
I-99
s(dp39
g16
S'line'
p40
sS'x'
I-637
sg18
I00
sS'y'
I-60
s(dp41
g16
S'line'
p42
sS'x'
I-111
sg18
I00
sS'y'
I-60
s(dp43
g16
S'line'
p44
sS'x'
I-68
sg18
I00
sS'y'
I-99
s(dp45
g16
S'line'
p46
sS'x'
I-68
sg18
I00
sS'y'
I-159
s(dp47
g16
S'line'
p48
sS'x'
I-111
sg18
I00
sS'y'
I-198
s(dp49
g16
S'line'
p50
sS'x'
I-637
sg18
I00
sS'y'
I-198
stp51
stp52
sS'components'
p53
(tsS'anchors'
p54
(tsssS'com.typemytype.robofont.mark'
p55
(F0.44109999999999999
F0.91300000000000003
F0.1201
F1
tp56
s."
LayerCount: 2
Fore
SplineSet
-637 -177 m 1,0,-1
 -637 -99 l 1,1,-1
 -111 -99 l 1,2,-1
 -111 -177 l 1,3,-1
 -637 -177 l 1,0,-1
EndSplineSet
EndChar

StartChar: anusvaradeva
Encoding: 2306 2306 152
Width: 0
VWidth: 0
Flags: W
PickledData: "(dp1
S'com.typemytype.robofont.layerData'
p2
(dp3
S'mask'
p4
(dp5
S'name'
p6
S'anusvaradeva'
p7
sS'lib'
p8
(dp9
sS'unicodes'
p10
(tsS'width'
p11
I0
sS'contours'
p12
((dp13
S'points'
p14
((dp15
S'segmentType'
p16
S'line'
p17
sS'x'
I-177
sS'smooth'
p18
I00
sS'y'
I832
s(dp19
g16
S'line'
p20
sS'x'
I-177
sg18
I00
sS'y'
I925
s(dp21
g16
S'line'
p22
sS'x'
I-77
sg18
I00
sS'y'
I925
s(dp23
g16
S'line'
p24
sS'x'
I-77
sg18
I00
sS'y'
I832
stp25
s(dp26
g14
((dp27
g16
S'curve'
p28
sS'x'
I-67
sg18
I00
sS'y'
I946
s(dp29
S'y'
I917
sS'x'
I-67
sg18
I00
s(dp30
S'y'
I902
sS'x'
I-89
sg18
I00
s(dp31
g16
S'curve'
p32
sS'x'
I-115
sg18
I01
sS'y'
I902
s(dp33
S'y'
I902
sS'x'
I-141
sg18
I00
s(dp34
S'y'
I917
sS'x'
I-163
sg18
I00
s(dp35
g16
S'curve'
p36
sS'x'
I-163
sg18
I01
sS'y'
I946
s(dp37
S'y'
I975
sS'x'
I-163
sg18
I00
s(dp38
S'y'
I990
sS'x'
I-141
sg18
I00
s(dp39
g16
S'curve'
p40
sS'x'
I-115
sg18
I01
sS'y'
I990
s(dp41
S'y'
I990
sS'x'
I-89
sg18
I00
s(dp42
S'y'
I975
sS'x'
I-67
sg18
I00
stp43
stp44
sS'components'
p45
((dp46
S'transformation'
p47
(I1
I0
I0
I1
I-31
I904
tp48
sS'baseGlyph'
p49
S'nuktadeva'
p50
stp51
sS'anchors'
p52
(tsssS'com.typemytype.robofont.mark'
p53
(F0.44109999999999999
F0.91300000000000003
F0.1201
F1
tp54
s."
AnchorPoint: "DVAnchor3" -123 730 mark 0
LayerCount: 2
Fore
SplineSet
-115 858 m 128,-1,1
 -136 858 -136 858 -149.5 869.5 c 128,-1,2
 -163 881 -163 881 -163 902 c 128,-1,3
 -163 923 -163 923 -149.5 934.5 c 128,-1,4
 -136 946 -136 946 -115 946 c 128,-1,5
 -94 946 -94 946 -80.5 934.5 c 128,-1,6
 -67 923 -67 923 -67 902 c 128,-1,7
 -67 881 -67 881 -80.5 869.5 c 128,-1,0
 -94 858 -94 858 -115 858 c 128,-1,1
EndSplineSet
EndChar

StartChar: apostrophe
Encoding: 700 700 154
Width: 247
VWidth: 0
Flags: W
PickledData: "(dp1
S'com.typemytype.robofont.layerData'
p2
(dp3
S'mask'
p4
(dp5
S'name'
p6
S'apostrophe'
p7
sS'lib'
p8
(dp9
sS'unicodes'
p10
(tsS'width'
p11
I247
sS'contours'
p12
((dp13
S'points'
p14
((dp15
S'segmentType'
p16
S'line'
p17
sS'x'
F163
sS'smooth'
p18
I01
sS'y'
I771
s(dp19
S'y'
I739
sS'x'
F163
sg18
I00
s(dp20
S'y'
I687
sS'x'
F157
sg18
I00
s(dp21
g16
S'qcurve'
p22
sS'x'
F151
sg18
I01
sg6
S'inserted'
p23
sS'y'
F664.5
s(dp24
S'y'
I642
sS'x'
F145
sg18
I00
s(dp25
S'y'
I603
sS'x'
F128
sg18
I00
s(dp26
g16
S'qcurve'
p27
sS'x'
F116
sg18
I00
sS'y'
I583
s(dp28
g16
S'line'
p29
sS'x'
F42
sg18
I00
sS'y'
I583
s(dp30
S'y'
I622
sS'x'
F69
sg18
I00
s(dp31
S'y'
I702
sS'x'
F99
sg18
I00
s(dp32
g16
S'qcurve'
p33
sS'x'
F99
sg18
I00
sS'y'
I739
s(dp34
g16
S'line'
p35
sS'x'
F46
sg18
I00
sS'y'
I739
s(dp36
g16
S'line'
p37
sS'x'
F46
sg18
I00
sS'y'
I858
s(dp38
g16
S'line'
p39
sS'x'
F163
sg18
I00
sS'y'
I858
stp40
stp41
sS'components'
p42
(tsS'anchors'
p43
(tsssS'com.typemytype.robofont.mark'
p44
(F0.44109999999999999
F0.91300000000000003
F0.1201
F1
tp45
s."
LayerCount: 2
Fore
SplineSet
77 684 m 1,0,-1
 113 857 l 1,1,-1
 195 857 l 1,2,-1
 147 684 l 1,3,-1
 77 684 l 1,0,-1
EndSplineSet
EndChar

StartChar: asciitilde
Encoding: 126 126 158
Width: 516
VWidth: 0
Flags: W
PickledData: "(dp1
S'com.typemytype.robofont.layerData'
p2
(dp3
S'mask'
p4
(dp5
S'name'
p6
S'asciitilde'
p7
sS'lib'
p8
(dp9
sS'unicodes'
p10
(tsS'width'
p11
I516
sS'contours'
p12
((dp13
S'points'
p14
((dp15
S'segmentType'
p16
S'curve'
p17
sS'x'
I388
sS'smooth'
p18
I01
sS'y'
I376
s(dp19
S'y'
I376
sS'x'
I412
sg18
I00
s(dp20
S'y'
I395
sS'x'
I431
sg18
I00
s(dp21
g16
S'curve'
p22
sS'x'
I431
sg18
I01
sS'y'
I419
s(dp23
S'y'
I443
sS'x'
I431
sg18
I00
s(dp24
S'y'
I462
sS'x'
I412
sg18
I00
s(dp25
g16
S'curve'
p26
sS'x'
I388
sg18
I01
sS'y'
I462
s(dp27
S'y'
I462
sS'x'
I364
sg18
I00
s(dp28
S'y'
I443
sS'x'
I345
sg18
I00
s(dp29
g16
S'curve'
p30
sS'x'
I345
sg18
I01
sS'y'
I419
s(dp31
S'y'
I395
sS'x'
I345
sg18
I00
s(dp32
S'y'
I376
sS'x'
I364
sg18
I00
stp33
s(dp34
g14
((dp35
S'y'
I298
sS'x'
I458
sg18
I00
s(dp36
S'y'
I356
sS'x'
I516
sg18
I00
s(dp37
g16
S'curve'
p38
sS'x'
I516
sg18
I01
sS'y'
I427
s(dp39
S'y'
I498
sS'x'
I516
sg18
I00
s(dp40
S'y'
I556
sS'x'
I458
sg18
I00
s(dp41
g16
S'curve'
p42
sS'x'
I387
sg18
I01
sS'y'
I556
s(dp43
S'y'
I556
sS'x'
I316
sg18
I00
s(dp44
S'y'
I498
sS'x'
I258
sg18
I00
s(dp45
g16
S'curve'
p46
sS'x'
I258
sg18
I01
sS'y'
I427
s(dp47
S'y'
I356
sS'x'
I258
sg18
I00
s(dp48
S'y'
I298
sS'x'
I316
sg18
I00
s(dp49
g16
S'curve'
p50
sS'x'
I387
sg18
I01
sS'y'
I298
stp51
s(dp52
g14
((dp53
g16
S'curve'
p54
sS'x'
I129
sg18
I01
sS'y'
I223
s(dp55
S'y'
I223
sS'x'
I200
sg18
I00
s(dp56
S'y'
I281
sS'x'
I258
sg18
I00
s(dp57
g16
S'curve'
p58
sS'x'
I258
sg18
I01
sS'y'
I352
s(dp59
S'y'
I423
sS'x'
I258
sg18
I00
s(dp60
S'y'
I481
sS'x'
I200
sg18
I00
s(dp61
g16
S'curve'
p62
sS'x'
I129
sg18
I01
sS'y'
I481
s(dp63
S'y'
I481
sS'x'
I58
sg18
I00
s(dp64
S'y'
I423
sS'x'
I0
sg18
I00
s(dp65
g16
S'curve'
p66
sS'x'
I0
sg18
I01
sS'y'
I352
s(dp67
S'y'
I281
sS'x'
I0
sg18
I00
s(dp68
S'y'
I223
sS'x'
I58
sg18
I00
stp69
s(dp70
g14
((dp71
g16
S'curve'
p72
sS'x'
I129
sg18
I01
sS'y'
I317
s(dp73
S'y'
I317
sS'x'
I153
sg18
I00
s(dp74
S'y'
I336
sS'x'
I172
sg18
I00
s(dp75
g16
S'curve'
p76
sS'x'
I172
sg18
I01
sS'y'
I360
s(dp77
S'y'
I384
sS'x'
I172
sg18
I00
s(dp78
S'y'
I403
sS'x'
I153
sg18
I00
s(dp79
g16
S'curve'
p80
sS'x'
I129
sg18
I01
sS'y'
I403
s(dp81
S'y'
I403
sS'x'
I105
sg18
I00
s(dp82
S'y'
I384
sS'x'
I86
sg18
I00
s(dp83
g16
S'curve'
p84
sS'x'
I86
sg18
I01
sS'y'
I360
s(dp85
S'y'
I336
sS'x'
I86
sg18
I00
s(dp86
S'y'
I317
sS'x'
I105
sg18
I00
stp87
stp88
sS'components'
p89
(tsS'anchors'
p90
(tsssS'com.typemytype.robofont.mark'
p91
(F0.44109999999999999
F0.91300000000000003
F0.1201
F1
tp92
s."
LayerCount: 2
Fore
SplineSet
515 427 m 1,0,1
 516 374 516 374 478 336 c 128,-1,2
 440 298 440 298 386 298 c 0,3,4
 342 298 342 298 246.5 350.5 c 128,-1,5
 151 403 151 403 130 403 c 0,6,7
 107 403 107 403 91.5 388.5 c 128,-1,8
 76 374 76 374 76 353 c 1,9,-1
 0 353 l 1,10,11
 0 406 0 406 38 443.5 c 128,-1,12
 76 481 76 481 130 481 c 0,13,14
 174 481 174 481 269 428.5 c 128,-1,15
 364 376 364 376 388 376 c 0,16,17
 409 376 409 376 425.5 391 c 128,-1,18
 442 406 442 406 441 426 c 1,19,-1
 515 427 l 1,0,1
EndSplineSet
EndChar

StartChar: ashortdeva
Encoding: 2308 2308 159
Width: 817
VWidth: 0
Flags: W
PickledData: "(dp1
S'com.typemytype.robofont.layerData'
p2
(dp3
S'mask'
p4
(dp5
S'name'
p6
S'ashortdeva'
p7
sS'lib'
p8
(dp9
sS'unicodes'
p10
(tsS'width'
p11
I817
sS'contours'
p12
((dp13
S'points'
p14
((dp15
S'segmentType'
p16
S'qcurve'
p17
sS'x'
I306
sS'smooth'
p18
I01
sS'y'
I47
s(dp19
S'y'
I47
sS'x'
I226
sg18
I00
s(dp20
S'y'
I180
sS'x'
I76
sg18
I00
s(dp21
g16
S'qcurve'
p22
sS'x'
I20
sg18
I00
sS'y'
I300
s(dp23
g16
S'line'
p24
sS'x'
I69
sg18
I00
sS'y'
I328
s(dp25
S'y'
I226
sS'x'
I117
sg18
I00
s(dp26
S'y'
I113
sS'x'
I241
sg18
I00
s(dp27
g16
S'qcurve'
p28
sS'x'
I306
sg18
I01
sS'y'
I113
s(dp29
S'y'
I113
sS'x'
I347
sg18
I00
s(dp30
S'y'
I174
sS'x'
I406
sg18
I00
s(dp31
g16
S'qcurve'
p32
sS'x'
I406
sg18
I01
sS'y'
I218
s(dp33
S'y'
I272
sS'x'
I406
sg18
I00
s(dp34
S'y'
I346
sS'x'
I339
sg18
I00
s(dp35
g16
S'qcurve'
p36
sS'x'
I293
sg18
I01
sS'y'
I346
s(dp37
S'y'
I346
sS'x'
I278
sg18
I00
s(dp38
S'y'
I340
sS'x'
I245
sg18
I00
s(dp39
g16
S'qcurve'
p40
sS'x'
I226
sg18
I00
sS'y'
I333
s(dp41
g16
S'line'
p42
sS'x'
I199
sg18
I00
sS'y'
I393
s(dp43
S'y'
I398
sS'x'
I259
sg18
I00
s(dp44
S'y'
I471
sS'x'
I351
sg18
I00
s(dp45
g16
S'qcurve'
p46
sS'x'
I351
sg18
I01
sS'y'
I513
s(dp47
S'y'
I551
sS'x'
I351
sg18
I00
s(dp48
S'y'
I606
sS'x'
I305
sg18
I00
s(dp49
g16
S'qcurve'
p50
sS'x'
I273
sg18
I01
sS'y'
I606
s(dp51
S'y'
I606
sS'x'
I234
sg18
I00
s(dp52
S'y'
I557
sS'x'
I150
sg18
I00
s(dp53
g16
S'qcurve'
p54
sS'x'
I113
sg18
I00
sS'y'
I513
s(dp55
g16
S'line'
p56
sS'x'
I66
sg18
I00
sS'y'
I559
s(dp57
S'y'
I610
sS'x'
I101
sg18
I00
s(dp58
S'y'
I666
sS'x'
I210
sg18
I00
s(dp59
g16
S'qcurve'
p60
sS'x'
I273
sg18
I01
sS'y'
I666
s(dp61
S'y'
I666
sS'x'
I334
sg18
I00
s(dp62
S'y'
I577
sS'x'
I419
sg18
I00
s(dp63
g16
S'qcurve'
p64
sS'x'
I419
sg18
I01
sS'y'
I513
s(dp65
S'y'
I479
sS'x'
I419
sg18
I00
s(dp66
S'y'
I417
sS'x'
I387
sg18
I00
s(dp67
g16
S'qcurve'
p68
sS'x'
I359
sg18
I00
sS'y'
I393
s(dp69
S'y'
I364
sS'x'
I410
sg18
I00
s(dp70
S'y'
I333
sS'x'
I488
sg18
I00
s(dp71
g16
S'qcurve'
p72
sS'x'
I512
sg18
I01
sS'y'
I333
s(dp73
S'y'
I333
sS'x'
I527
sg18
I00
s(dp74
S'y'
I350
sS'x'
I571
sg18
I00
s(dp75
g16
S'qcurve'
p76
sS'x'
I599
sg18
I00
sS'y'
I366
s(dp77
g16
S'line'
p78
sS'x'
I599
sg18
I00
sS'y'
I606
s(dp79
g16
S'line'
p80
sS'x'
I479
sg18
I00
sS'y'
I606
s(dp81
g16
S'line'
p82
sS'x'
I479
sg18
I00
sS'y'
I666
s(dp83
g16
S'line'
p84
sS'x'
I603
sg18
I00
sS'y'
I666
s(dp85
S'y'
I723
sS'x'
I603
sg18
I00
s(dp86
S'y'
I806
sS'x'
I525
sg18
I00
s(dp87
g16
S'qcurve'
p88
sS'x'
I470
sg18
I01
sS'y'
I806
s(dp89
S'y'
I806
sS'x'
I397
sg18
I00
s(dp90
S'y'
I907
sS'x'
I284
sg18
I00
s(dp91
g16
S'qcurve'
p92
sS'x'
I270
sg18
I00
sS'y'
I986
s(dp93
g16
S'line'
p94
sS'x'
I337
sg18
I00
sS'y'
I986
s(dp95
S'y'
I931
sS'x'
I346
sg18
I00
s(dp96
S'y'
I859
sS'x'
I422
sg18
I00
s(dp97
g16
S'qcurve'
p98
sS'x'
I470
sg18
I01
sS'y'
I859
s(dp99
S'y'
I859
sS'x'
I553
sg18
I00
s(dp100
S'y'
I746
sS'x'
I670
sg18
I00
s(dp101
g16
S'qcurve'
p102
sS'x'
I670
sg18
I00
sS'y'
I666
s(dp103
g16
S'line'
p104
sS'x'
I779
sg18
I00
sS'y'
I666
s(dp105
g16
S'line'
p106
sS'x'
I779
sg18
I00
sS'y'
I606
s(dp107
g16
S'line'
p108
sS'x'
I665
sg18
I00
sS'y'
I606
s(dp109
g16
S'line'
p110
sS'x'
I665
sg18
I00
sS'y'
I0
s(dp111
g16
S'line'
p112
sS'x'
I599
sg18
I00
sS'y'
I0
s(dp113
g16
S'line'
p114
sS'x'
I599
sg18
I00
sS'y'
I300
s(dp115
S'y'
I286
sS'x'
I583
sg18
I00
s(dp116
S'y'
I273
sS'x'
I550
sg18
I00
s(dp117
g16
S'qcurve'
p118
sS'x'
I532
sg18
I01
sS'y'
I273
s(dp119
S'y'
I273
sS'x'
I504
sg18
I00
s(dp120
S'y'
I284
sS'x'
I459
sg18
I00
s(dp121
g16
S'qcurve'
p122
sS'x'
I446
sg18
I00
sS'y'
I293
s(dp123
S'y'
I282
sS'x'
I459
sg18
I00
s(dp124
S'y'
I244
sS'x'
I472
sg18
I00
s(dp125
g16
S'qcurve'
p126
sS'x'
I472
sg18
I01
sS'y'
I220
s(dp127
S'y'
I148
sS'x'
I472
sg18
I00
s(dp128
S'y'
I47
sS'x'
I375
sg18
I00
stp129
stp130
sS'components'
p131
(tsS'anchors'
p132
(tsssS'com.typemytype.robofont.mark'
p133
(F0.51200000000000001
F1
F0.0241
F1
tp134
s."
LayerCount: 2
Fore
SplineSet
139 274 m 1,0,1
 210 125 210 125 329 125 c 0,2,3
 380 125 380 125 409 154.5 c 128,-1,4
 438 184 438 184 438 235 c 0,5,6
 438 280.888313506 438 280.888313506 407.444895798 308.309853518 c 128,-1,7
 376.889791597 335.731393529 376.889791597 335.731393529 310.602740828 348 c 1,8,-1
 259 348 l 1,9,-1
 259 426 l 1,10,-1
 312 426 l 2,11,12
 358 426 358 426 389.5 456 c 128,-1,13
 421 486 421 486 421 526 c 0,14,15
 421 564 421 564 389.5 592 c 128,-1,16
 358 620 358 620 313 620 c 0,17,18
 263 620 263 620 201 581 c 1,19,-1
 159 647 l 1,20,21
 236 698 236 698 313 698 c 0,22,23
 394 698 394 698 450.5 646.5 c 128,-1,24
 507 595 507 595 507 526 c 0,25,26
 507 486.910827799 507 486.910827799 487.714089597 450.723890371 c 128,-1,27
 468.428179193 414.536952944 468.428179193 414.536952944 434.789181337 388.983285634 c 1,28,29
 472.151616616 369.021141773 472.151616616 369.021141773 493.542751786 340 c 1,30,-1
 645 340 l 1,31,-1
 645 606 l 1,32,-1
 549 606 l 1,33,-1
 549 684 l 1,34,-1
 654.599818285 684 l 1,35,36
 653.716660096 699.111377168 653.716660096 699.111377168 650.431471213 711.960330127 c 128,-1,37
 647.146282329 724.809283086 647.146282329 724.809283086 640 737 c 0,38,39
 616 775 616 775 577.5 789 c 128,-1,40
 539 803 539 803 450 811 c 0,41,42
 375 818 375 818 339.5 851 c 128,-1,43
 304 884 304 884 304 946 c 1,44,-1
 377 946 l 1,45,46
 377 915 377 915 397.5 900 c 128,-1,47
 418 885 418 885 460 879 c 0,48,49
 514 871 514 871 532 868 c 128,-1,50
 550 865 550 865 584.5 857 c 128,-1,51
 619 849 619 849 633.5 840.5 c 128,-1,52
 648 832 648 832 666 816.5 c 128,-1,53
 684 801 684 801 698 779 c 0,54,55
 724.139903668 737.369783048 724.139903668 737.369783048 727.890635461 684 c 1,56,-1
 827 684 l 1,57,-1
 827 606 l 1,58,-1
 731 606 l 1,59,-1
 731 0 l 1,60,-1
 645 0 l 1,61,-1
 645 262 l 1,62,-1
 522.553422079 262 l 1,63,64
 524 249.123822263 524 249.123822263 524 235 c 0,65,66
 524 147 524 147 470.5 97 c 128,-1,67
 417 47 417 47 329 47 c 0,68,69
 158 47 158 47 65 238 c 1,70,-1
 139 274 l 1,0,1
EndSplineSet
EndChar

StartChar: asterisk
Encoding: 42 42 160
Width: 559
VWidth: 0
Flags: W
PickledData: "(dp1
S'com.typemytype.robofont.layerData'
p2
(dp3
S'mask'
p4
(dp5
S'name'
p6
S'asterisk'
p7
sS'lib'
p8
(dp9
sS'unicodes'
p10
(tsS'width'
p11
I559
sS'contours'
p12
((dp13
S'points'
p14
((dp15
S'segmentType'
p16
S'line'
p17
sS'x'
I210
sS'smooth'
p18
I00
sS'y'
I400
s(dp19
g16
S'line'
p20
sS'x'
I150
sg18
I00
sS'y'
I439
s(dp21
g16
S'line'
p22
sS'x'
I250
sg18
I00
sS'y'
I559
s(dp23
g16
S'line'
p24
sS'x'
I97
sg18
I00
sS'y'
I533
s(dp25
g16
S'line'
p26
sS'x'
I90
sg18
I00
sS'y'
I613
s(dp27
g16
S'line'
p28
sS'x'
I243
sg18
I00
sS'y'
I599
s(dp29
g16
S'line'
p30
sS'x'
I157
sg18
I00
sS'y'
I706
s(dp31
g16
S'line'
p32
sS'x'
I230
sg18
I00
sS'y'
I739
s(dp33
g16
S'line'
p34
sS'x'
I276
sg18
I00
sS'y'
I626
s(dp35
g16
S'line'
p36
sS'x'
I330
sg18
I00
sS'y'
I739
s(dp37
g16
S'line'
p38
sS'x'
I396
sg18
I00
sS'y'
I706
s(dp39
g16
S'line'
p40
sS'x'
I316
sg18
I00
sS'y'
I599
s(dp41
g16
S'line'
p42
sS'x'
I470
sg18
I00
sS'y'
I619
s(dp43
g16
S'line'
p44
sS'x'
I470
sg18
I00
sS'y'
I546
s(dp45
g16
S'line'
p46
sS'x'
I316
sg18
I00
sS'y'
I559
s(dp47
g16
S'line'
p48
sS'x'
I430
sg18
I00
sS'y'
I439
s(dp49
g16
S'line'
p50
sS'x'
I356
sg18
I00
sS'y'
I400
s(dp51
g16
S'line'
p52
sS'x'
I290
sg18
I00
sS'y'
I546
stp53
stp54
sS'components'
p55
(tsS'anchors'
p56
(tsssS'com.typemytype.robofont.mark'
p57
(F0.44109999999999999
F0.91300000000000003
F0.1201
F1
tp58
s."
LayerCount: 2
Fore
SplineSet
455 637 m 1,0,-1
 475 576 l 1,1,-1
 325.767004904 527.009370297 l 1,2,-1
 418 400 l 1,3,-1
 365 361 l 1,4,-1
 271.118367347 489.228571429 l 1,5,-1
 178 361 l 1,6,-1
 124 400 l 1,7,-1
 216.833563586 526.797062459 l 1,8,-1
 70 575 l 1,9,-1
 90 635 l 1,10,-1
 237 587.484848485 l 1,11,-1
 237 745 l 1,12,-1
 307 745 l 1,13,-1
 307 589.161616162 l 1,14,-1
 455 637 l 1,0,-1
EndSplineSet
EndChar

StartChar: at
Encoding: 64 64 161
Width: 1043
VWidth: 0
Flags: W
PickledData: "(dp1
S'com.typemytype.robofont.layerData'
p2
(dp3
S'mask'
p4
(dp5
S'name'
p6
S'at'
p7
sS'lib'
p8
(dp9
sS'unicodes'
p10
(tsS'width'
p11
I1043
sS'contours'
p12
((dp13
S'points'
p14
((dp15
S'segmentType'
p16
S'qcurve'
p17
sS'x'
I382
sS'smooth'
p18
I01
sS'y'
I320
s(dp19
S'y'
I265
sS'x'
I382
sg18
I00
s(dp20
S'y'
I185
sS'x'
I451
sg18
I00
s(dp21
g16
S'qcurve'
p22
sS'x'
F502
sg18
I01
sg6
S'inserted'
p23
sS'y'
F185
s(dp24
S'y'
I185
sS'x'
I553
sg18
I00
s(dp25
S'y'
I265
sS'x'
I622
sg18
I00
s(dp26
g16
S'qcurve'
p27
sS'x'
I622
sg18
I01
sS'y'
I320
s(dp28
S'y'
I374
sS'x'
I622
sg18
I00
s(dp29
S'y'
I453
sS'x'
I553
sg18
I00
s(dp30
g16
S'qcurve'
p31
sS'x'
F502
sg18
I01
sg6
S'inserted'
p32
sS'y'
F453
s(dp33
S'y'
I453
sS'x'
I451
sg18
I00
s(dp34
S'y'
I374
sS'x'
I382
sg18
I00
stp35
s(dp36
g14
((dp37
g16
S'qcurve'
p38
sS'x'
I317
sg18
I01
sS'y'
I320
s(dp39
S'y'
I398
sS'x'
I317
sg18
I00
s(dp40
S'y'
I511
sS'x'
I425
sg18
I00
s(dp41
g16
S'qcurve'
p42
sS'x'
I502
sg18
I01
sS'y'
I511
s(dp43
S'y'
I511
sS'x'
I537
sg18
I00
s(dp44
S'y'
I483
sS'x'
I599
sg18
I00
s(dp45
g16
S'qcurve'
p46
sS'x'
I622
sg18
I00
sS'y'
I457
s(dp47
g16
S'line'
p48
sS'x'
I622
sg18
I00
sS'y'
I505
s(dp49
g16
S'line'
p50
sS'x'
I688
sg18
I00
sS'y'
I505
s(dp51
g16
S'line'
p52
sS'x'
I688
sg18
I01
sS'y'
I208
s(dp53
S'y'
I188
sS'x'
I688
sg18
I00
s(dp54
S'y'
I158
sS'x'
I723
sg18
I00
s(dp55
g16
S'qcurve'
p56
sS'x'
I748
sg18
I01
sS'y'
I158
s(dp57
S'y'
I158
sS'x'
I803
sg18
I00
s(dp58
S'y'
I266
sS'x'
I880
sg18
I00
s(dp59
g16
S'qcurve'
p60
sS'x'
I880
sg18
I01
sS'y'
I344
s(dp61
S'y'
I475
sS'x'
I880
sg18
I00
s(dp62
S'y'
I662
sS'x'
I678
sg18
I00
s(dp63
g16
S'qcurve'
p64
sS'x'
I535
sg18
I01
sS'y'
I662
s(dp65
S'y'
I662
sS'x'
I381
sg18
I00
s(dp66
S'y'
I458
sS'x'
I162
sg18
I00
s(dp67
g16
S'qcurve'
p68
sS'x'
I162
sg18
I01
sS'y'
I314
s(dp69
S'y'
I184
sS'x'
I162
sg18
I00
s(dp70
S'y'
I0
sS'x'
I381
sg18
I00
s(dp71
g16
S'qcurve'
p72
sS'x'
I535
sg18
I01
sS'y'
I0
s(dp73
S'y'
I0
sS'x'
I595
sg18
I00
s(dp74
S'y'
I32
sS'x'
I700
sg18
I00
s(dp75
g16
S'qcurve'
p76
sS'x'
I740
sg18
I00
sS'y'
I63
s(dp77
g16
S'line'
p78
sS'x'
I772
sg18
I00
sS'y'
I8
s(dp79
S'y'
I-27
sS'x'
I722
sg18
I00
s(dp80
S'y'
I-64
sS'x'
I601
sg18
I00
s(dp81
g16
S'qcurve'
p82
sS'x'
I535
sg18
I01
sS'y'
I-64
s(dp83
S'y'
I-64
sS'x'
I356
sg18
I00
s(dp84
S'y'
I157
sS'x'
I100
sg18
I00
s(dp85
g16
S'qcurve'
p86
sS'x'
I100
sg18
I01
sS'y'
I314
s(dp87
S'y'
I483
sS'x'
I100
sg18
I00
s(dp88
S'y'
I723
sS'x'
I356
sg18
I00
s(dp89
g16
S'qcurve'
p90
sS'x'
I535
sg18
I01
sS'y'
I723
s(dp91
S'y'
I723
sS'x'
I704
sg18
I00
s(dp92
S'y'
I501
sS'x'
I944
sg18
I00
s(dp93
g16
S'qcurve'
p94
sS'x'
I944
sg18
I01
sS'y'
I344
s(dp95
S'y'
I241
sS'x'
I944
sg18
I00
s(dp96
S'y'
I95
sS'x'
I830
sg18
I00
s(dp97
g16
S'qcurve'
p98
sS'x'
I748
sg18
I01
sS'y'
I95
s(dp99
S'y'
I95
sS'x'
I702
sg18
I00
s(dp100
S'y'
I144
sS'x'
I631
sg18
I00
s(dp101
g16
S'qcurve'
p102
sS'x'
I625
sg18
I00
sS'y'
I182
s(dp103
S'y'
I152
sS'x'
I607
sg18
I00
s(dp104
S'y'
I119
sS'x'
I541
sg18
I00
s(dp105
g16
S'qcurve'
p106
sS'x'
I502
sg18
I01
sS'y'
I119
s(dp107
S'y'
I119
sS'x'
I423
sg18
I00
s(dp108
S'y'
I237
sS'x'
I317
sg18
I00
stp109
stp110
sS'components'
p111
(tsS'anchors'
p112
(tsssS'com.fontlab.hintData'
p113
(dp114
S'vhints'
p115
((dp116
S'position'
p117
I40
sg11
I130
s(dp118
g117
I528
sg11
I111
s(dp119
g117
I528
sg11
I128
s(dp120
g117
I729
sg11
I126
stp121
sS'hhints'
p122
((dp123
g117
I-136
sg11
I129
s(dp124
g117
I81
sg11
I112
s(dp125
g117
I464
sg11
I90
s(dp126
g117
I464
sg11
I107
s(dp127
g117
I668
sg11
I129
stp128
ssS'com.typemytype.robofont.mark'
p129
(F0.44109999999999999
F0.91300000000000003
F0.1201
F1
tp130
s."
HStem: -136 129 81 112 464 90 464 107 668 129
VStem: 40 130 528 111 528 128 729 126
LayerCount: 2
Fore
SplineSet
548 273.444214345 m 1,0,-1
 548 371.60903207 l 1,1,2
 539.667144269 395.844244243 539.667144269 395.844244243 524.832618082 414.992104549 c 128,-1,3
 509.998091895 434.139964855 509.998091895 434.139964855 488.061689595 446.069982428 c 128,-1,4
 466.125287295 458 466.125287295 458 441 458 c 0,5,6
 395 458 395 458 366.5 418.5 c 128,-1,7
 338 379 338 379 338 327 c 0,8,9
 338 274 338 274 366 235 c 128,-1,10
 394 196 394 196 441 196 c 0,11,12
 478.111607173 196 478.111607173 196 505.771398359 217.380418849 c 128,-1,13
 533.431189544 238.760837698 533.431189544 238.760837698 548 273.444214345 c 1,0,-1
640 380 m 1,14,-1
 640 181.928252153 l 1,15,16
 650.32254929 181 650.32254929 181 666 181 c 0,17,18
 716 181 716 181 739.5 236 c 128,-1,19
 763 291 763 291 763 361 c 0,20,21
 763 494 763 494 680 586.5 c 128,-1,22
 597 679 597 679 450 679 c 0,23,24
 311 679 311 679 221 579 c 128,-1,25
 131 479 131 479 131 336 c 0,26,27
 131 191 131 191 221.5 91.5 c 128,-1,28
 312 -8 312 -8 460 -8 c 0,29,30
 550 -8 550 -8 611 13 c 1,31,-1
 639 -65 l 1,32,33
 568 -92 568 -92 460 -92 c 0,34,35
 273 -92 273 -92 156 30.5 c 128,-1,36
 39 153 39 153 39 336 c 0,37,38
 39 517 39 517 156.5 640 c 128,-1,39
 274 763 274 763 450 763 c 0,40,41
 637 763 637 763 746 647.5 c 128,-1,42
 855 532 855 532 855 361 c 0,43,44
 855 249 855 249 801 173 c 128,-1,45
 747 97 747 97 666 97 c 0,46,47
 594.247763252 97 594.247763252 97 550.542173676 125 c 1,48,-1
 548 125 l 1,49,-1
 548 141.49420306 l 1,50,51
 499.509514292 112 499.509514292 112 441 112 c 0,52,53
 359 112 359 112 302.5 172.5 c 128,-1,54
 246 233 246 233 246 327 c 0,55,56
 246 419 246 419 303.5 480.5 c 128,-1,57
 361 542 361 542 441 542 c 0,58,59
 452.564776941 542 452.564776941 542 464.00972818 540.649952392 c 128,-1,60
 475.454679419 539.299904784 475.454679419 539.299904784 486.393055234 536.693015696 c 128,-1,61
 497.33143105 534.086126609 497.33143105 534.086126609 507.936214984 530.253537399 c 128,-1,62
 518.540998918 526.420948189 518.540998918 526.420948189 528.543118632 521.471859854 c 128,-1,63
 538.545238346 516.522771519 538.545238346 516.522771519 548 510.472330548 c 1,64,-1
 548 537 l 1,65,-1
 640 537 l 1,66,-1
 640 380 l 1,14,-1
EndSplineSet
EndChar

StartChar: ausign_ra_virama.alt1
Encoding: 65547 -1 164
Width: 258
VWidth: 0
Flags: W
PickledData: "(dp1
S'com.typemytype.robofont.guides'
p2
((dp3
S'angle'
p4
I0
sS'name'
p5
NsS'magnetic'
p6
I5
sS'isGlobal'
p7
I00
sS'y'
I942
sS'x'
I4
stp8
sS'com.typemytype.robofont.layerData'
p9
(dp10
S'mask'
p11
(dp12
g5
S'ausign_ra_virama.alt1'
p13
sS'lib'
p14
(dp15
sS'unicodes'
p16
(tsS'width'
p17
I258
sS'contours'
p18
(tsS'components'
p19
(tsS'anchors'
p20
(tsssS'com.typemytype.robofont.mark'
p21
(F0.44109999999999999
F0.91300000000000003
F0.1201
F1
tp22
s."
LayerCount: 2
Fore
SplineSet
-173 811 m 1,0,-1
 -140 811 l 2,1,2
 -80.8329797792 811 -80.8329797792 811 -31.8604595247 795.046573417 c 128,-1,3
 17.1120607298 779.093146834 17.1120607298 779.093146834 56.220645379 752.520622914 c 1,4,5
 45.361464546 763.465174868 45.361464546 763.465174868 36 773 c 0,6,7
 3 806 3 806 -12 820 c 128,-1,8
 -27 834 -27 834 -60 854 c 128,-1,9
 -93 874 -93 874 -120 874 c 2,10,-1
 -152 874 l 1,11,-1
 -152 942 l 1,12,-1
 -115 942 l 2,13,14
 -67 942 -67 942 -33.5 920 c 128,-1,15
 0 898 0 898 33 853 c 2,16,-1
 124.707752153 729.830464262 l 1,17,18
 126.450328537 765.906727407 126.450328537 765.906727407 133.203581145 793.776058164 c 128,-1,19
 139.956833754 821.645388921 139.956833754 821.645388921 155.018256107 847.679870117 c 128,-1,20
 170.079678459 873.714351312 170.079678459 873.714351312 198.935582852 887.857175656 c 128,-1,21
 227.791487245 902 227.791487245 902 269 902 c 2,22,-1
 310 902 l 1,23,-1
 310 834 l 1,24,-1
 269 834 l 2,25,26
 221 834 221 834 193.5 800 c 128,-1,27
 166 766 166 766 166 710 c 2,28,-1
 166 684 l 1,29,-1
 268 684 l 1,30,-1
 268 606 l 1,31,-1
 178 606 l 1,32,-1
 172 606 l 1,33,-1
 172 0 l 1,34,-1
 86 0 l 1,35,-1
 86 606 l 1,36,-1
 -10 606 l 1,37,-1
 -10 684 l 1,38,-1
 72.2666666667 684 l 1,39,-1
 56 696 l 1,40,41
 -13 743 -13 743 -126 743 c 2,42,-1
 -173 743 l 1,43,-1
 -173 811 l 1,0,-1
EndSplineSet
Ligature2: "AboveBaseSubstitutionslookup subtable" ausigndeva radeva_viramadeva
EndChar

StartChar: ausigndeva
Encoding: 2380 2380 166
Width: 258
VWidth: 0
Flags: W
PickledData: "(dp1
S'com.typemytype.robofont.guides'
p2
((dp3
S'angle'
p4
F90
sS'name'
p5
NsS'magnetic'
p6
I5
sS'isGlobal'
p7
I00
sS'y'
I332
sS'x'
I86
stp8
sS'com.typemytype.robofont.layerData'
p9
(dp10
S'mask'
p11
(dp12
g5
S'ausigndeva'
p13
sS'lib'
p14
(dp15
sS'unicodes'
p16
(tsS'width'
p17
I258
sS'contours'
p18
((dp19
S'points'
p20
((dp21
S'segmentType'
p22
S'line'
p23
sS'x'
I268
sS'smooth'
p24
I00
sS'y'
I606
s(dp25
g22
S'line'
p26
sS'x'
I-10
sg24
I00
sS'y'
I606
s(dp27
g22
S'line'
p28
sS'x'
I-10
sg24
I00
sS'y'
I684
s(dp29
g22
S'line'
p30
sS'x'
I268
sg24
I00
sS'y'
I684
stp31
s(dp32
g20
((dp33
g22
S'line'
p34
sS'x'
I-173
sg24
I00
sS'y'
I811
s(dp35
g22
S'line'
p36
sS'x'
I-126
sg24
I01
sS'y'
I811
s(dp37
S'y'
I811
sS'x'
I-62
sg24
I00
s(dp38
S'y'
I797
sS'x'
I20
sg24
I00
s(dp39
g22
S'curve'
p40
sS'x'
I63
sg24
I01
sS'y'
I763
s(dp41
g22
S'line'
p42
sS'x'
I184
sg24
I00
sS'y'
I658
s(dp43
g22
S'line'
p44
sS'x'
I169
sg24
I00
sS'y'
I625
s(dp45
S'y'
I701
sS'x'
I99
sg24
I00
s(dp46
S'y'
I745
sS'x'
I54
sg24
I00
s(dp47
g22
S'curve'
p48
sS'x'
I-9
sg24
I01
sS'y'
I804
s(dp49
S'y'
I833
sS'x'
I-39
sg24
I00
s(dp50
S'y'
I874
sS'x'
I-70
sg24
I00
s(dp51
g22
S'curve'
p52
sS'x'
I-120
sg24
I01
sS'y'
I874
s(dp53
g22
S'line'
p54
sS'x'
I-152
sg24
I00
sS'y'
I874
s(dp55
g22
S'line'
p56
sS'x'
I-152
sg24
I00
sS'y'
I942
s(dp57
g22
S'line'
p58
sS'x'
I-115
sg24
I01
sS'y'
I942
s(dp59
S'y'
I942
sS'x'
I-47
sg24
I00
s(dp60
S'y'
I908
sS'x'
I-7
sg24
I00
s(dp61
g22
S'curve'
p62
sS'x'
I33
sg24
I01
sS'y'
I853
s(dp63
g22
S'line'
p64
sS'x'
I170
sg24
I00
sS'y'
I669
s(dp65
g22
S'line'
p66
sS'x'
I173
sg24
I00
sS'y'
I612
s(dp67
g22
S'line'
p68
sS'x'
I37
sg24
I01
sS'y'
I707
s(dp69
S'y'
I728
sS'x'
I4
sg24
I00
s(dp70
S'y'
I743
sS'x'
I-47
sg24
I00
s(dp71
g22
S'curve'
p72
sS'x'
I-126
sg24
I01
sS'y'
I743
s(dp73
g22
S'line'
p74
sS'x'
I-173
sg24
I00
sS'y'
I743
stp75
s(dp76
g20
((dp77
g22
S'line'
p78
sS'x'
I86
sg24
I00
sS'y'
I0
s(dp79
g22
S'line'
p80
sS'x'
I86
sg24
I00
sS'y'
I645
s(dp81
g22
S'line'
p82
sS'x'
I172
sg24
I00
sS'y'
I645
s(dp83
g22
S'line'
p84
sS'x'
I172
sg24
I00
sS'y'
I0
stp85
s(dp86
g20
((dp87
g22
S'line'
p88
sS'x'
I820
sg24
I00
sS'y'
I0
s(dp89
g22
S'line'
p90
sS'x'
I820
sg24
I00
sS'y'
I645
s(dp91
g22
S'line'
p92
sS'x'
I906
sg24
I00
sS'y'
I645
s(dp93
g22
S'line'
p94
sS'x'
I906
sg24
I00
sS'y'
I0
stp95
s(dp96
g20
((dp97
g22
S'line'
p98
sS'x'
I1002
sg24
I00
sS'y'
I606
s(dp99
g22
S'line'
p100
sS'x'
I724
sg24
I00
sS'y'
I606
s(dp101
g22
S'line'
p102
sS'x'
I724
sg24
I00
sS'y'
I684
s(dp103
g22
S'line'
p104
sS'x'
I1002
sg24
I00
sS'y'
I684
stp105
s(dp106
g20
((dp107
g22
S'line'
p108
sS'x'
I580
sg24
I00
sS'y'
I811
s(dp109
g22
S'line'
p110
sS'x'
I617
sg24
I01
sS'y'
I811
s(dp111
S'y'
I811
sS'x'
I681
sg24
I00
s(dp112
S'y'
I792
sS'x'
I718
sg24
I00
s(dp113
g22
S'curve'
p114
sS'x'
I765
sg24
I01
sS'y'
I763
s(dp115
g22
S'line'
p116
sS'x'
I901
sg24
I00
sS'y'
I678
s(dp117
g22
S'line'
p118
sS'x'
I848
sg24
I00
sS'y'
I621
s(dp119
g22
S'line'
p120
sS'x'
I711
sg24
I01
sS'y'
I805
s(dp121
S'y'
I838
sS'x'
I687
sg24
I00
s(dp122
S'y'
I864
sS'x'
I659
sg24
I00
s(dp123
g22
S'curve'
p124
sS'x'
I617
sg24
I01
sS'y'
I864
s(dp125
g22
S'line'
p126
sS'x'
I580
sg24
I00
sS'y'
I864
s(dp127
g22
S'line'
p128
sS'x'
I580
sg24
I00
sS'y'
I942
s(dp129
g22
S'line'
p130
sS'x'
I617
sg24
I01
sS'y'
I942
s(dp131
S'y'
I942
sS'x'
I685
sg24
I00
s(dp132
S'y'
I908
sS'x'
I735
sg24
I00
s(dp133
g22
S'curve'
p134
sS'x'
I775
sg24
I01
sS'y'
I853
s(dp135
g22
S'line'
p136
sS'x'
I912
sg24
I00
sS'y'
I669
s(dp137
g22
S'line'
p138
sS'x'
I859
sg24
I00
sS'y'
I612
s(dp139
g22
S'line'
p140
sS'x'
I723
sg24
I01
sS'y'
I697
s(dp141
S'y'
I718
sS'x'
I690
sg24
I00
s(dp142
S'y'
I733
sS'x'
I663
sg24
I00
s(dp143
g22
S'curve'
p144
sS'x'
I617
sg24
I01
sS'y'
I733
s(dp145
g22
S'line'
p146
sS'x'
I580
sg24
I00
sS'y'
I733
stp147
s(dp148
g20
((dp149
g22
S'line'
p150
sS'x'
I882
sg24
I00
sS'y'
I606
s(dp151
g22
S'line'
p152
sS'x'
I882
sg24
I00
sS'y'
I666
s(dp153
g22
S'line'
p154
sS'x'
I971
sg24
I00
sS'y'
I666
s(dp155
g22
S'line'
p156
sS'x'
I695
sg24
I00
sS'y'
I846
s(dp157
g22
S'line'
p158
sS'x'
I735
sg24
I00
sS'y'
I905
s(dp159
g22
S'line'
p160
sS'x'
I1028
sg24
I00
sS'y'
I666
s(dp161
g22
S'line'
p162
sS'x'
I888
sg24
I00
sS'y'
I959
s(dp163
g22
S'line'
p164
sS'x'
I955
sg24
I00
sS'y'
I999
s(dp165
g22
S'line'
p166
sS'x'
I1065
sg24
I00
sS'y'
I666
s(dp167
g22
S'line'
p168
sS'x'
I1175
sg24
I00
sS'y'
I666
s(dp169
g22
S'line'
p170
sS'x'
I1175
sg24
I00
sS'y'
I606
s(dp171
g22
S'line'
p172
sS'x'
I1061
sg24
I00
sS'y'
I606
s(dp173
g22
S'line'
p174
sS'x'
I1061
sg24
I00
sS'y'
I0
s(dp175
g22
S'line'
p176
sS'x'
I995
sg24
I00
sS'y'
I0
s(dp177
g22
S'line'
p178
sS'x'
I995
sg24
I00
sS'y'
I606
stp179
stp180
sS'components'
p181
((dp182
S'transformation'
p183
(I1
I0
I0
I1
I-300
I0
tp184
sS'baseGlyph'
p185
S'aisigndeva'
p186
s(dp187
g183
(I1
I0
I0
I1
I734
I0
tp188
sg185
S'aasigndeva'
p189
stp190
sS'anchors'
p191
(tsssS'com.typemytype.robofont.mark'
p192
(F0.44109999999999999
F0.91300000000000003
F0.1201
F1
tp193
s."
LayerCount: 2
Fore
SplineSet
-173 811 m 1,0,-1
 -140 811 l 2,1,2
 -80.8329856861 811 -80.8329856861 811 -31.8604692244 795.046576408 c 128,-1,3
 17.1120472373 779.093152816 17.1120472373 779.093152816 56.2206299694 752.520633133 c 1,4,5
 45.3614718199 763.465167885 45.3614718199 763.465167885 36 773 c 0,6,7
 3 806 3 806 -12 820 c 128,-1,8
 -27 834 -27 834 -60 854 c 128,-1,9
 -93 874 -93 874 -120 874 c 2,10,-1
 -152 874 l 1,11,-1
 -152 942 l 1,12,-1
 -115 942 l 2,13,14
 -67 942 -67 942 -33.5 920 c 128,-1,15
 0 898 0 898 33 853 c 2,16,-1
 158.831521739 684 l 1,17,-1
 268 684 l 1,18,-1
 268 606 l 1,19,-1
 178 606 l 1,20,-1
 172 606 l 1,21,-1
 172 0 l 1,22,-1
 86 0 l 1,23,-1
 86 606 l 1,24,-1
 -10 606 l 1,25,-1
 -10 684 l 1,26,-1
 72.2666666667 684 l 1,27,-1
 56 696 l 1,28,29
 -13 743 -13 743 -126 743 c 2,30,-1
 -173 743 l 1,31,-1
 -173 811 l 1,0,-1
EndSplineSet
EndChar

StartChar: avagrahacombiningsigndeva
Encoding: 43249 43249 168
Width: 0
VWidth: 0
Flags: W
PickledData: "(dp1
S'com.typemytype.robofont.layerData'
p2
(dp3
S'mask'
p4
(dp5
S'name'
p6
S'avagrahacombiningsigndeva'
p7
sS'lib'
p8
(dp9
sS'unicodes'
p10
(tsS'width'
p11
I0
sS'contours'
p12
((dp13
S'points'
p14
((dp15
S'segmentType'
p16
S'qcurve'
p17
sS'x'
I-125
sS'smooth'
p18
I01
sS'y'
I736
s(dp19
S'y'
I736
sS'x'
I-165
sg18
I00
s(dp20
S'y'
I789
sS'x'
I-235
sg18
I00
s(dp21
g16
S'qcurve'
p22
sS'x'
I-251
sg18
I00
sS'y'
I832
s(dp23
g16
S'line'
p24
sS'x'
I-252
sg18
I00
sS'y'
I835
s(dp25
g16
S'line'
p26
sS'x'
I-212
sg18
I00
sS'y'
I852
s(dp27
g16
S'line'
p28
sS'x'
I-211
sg18
I00
sS'y'
I849
s(dp29
S'y'
F832.5
sS'x'
F-204.5
sg18
I00
sg6
S'inserted'
p30
s(dp31
S'y'
F806
sS'x'
F-186
sg18
I00
s(dp32
g16
S'qcurve'
p33
sS'x'
I-174
sg18
I01
sS'y'
I796
s(dp34
S'y'
F786
sS'x'
F-162.5
sg18
I00
sg6
S'inserted'
p35
s(dp36
S'y'
F776
sS'x'
F-138
sg18
I00
s(dp37
g16
S'qcurve'
p38
sS'x'
I-125
sg18
I01
sS'y'
I776
s(dp39
S'y'
I776
sS'x'
I-107
sg18
I00
s(dp40
S'y'
I803
sS'x'
I-81
sg18
I00
s(dp41
g16
S'qcurve'
p42
sS'x'
I-81
sg18
I01
sS'y'
I823
s(dp43
S'y'
F832
sS'x'
F-81
sg18
I00
sg6
S'inserted'
p44
s(dp45
S'y'
F851.5
sS'x'
F-90.5
sg18
I00
s(dp46
g16
S'qcurve'
p47
sS'x'
I-100
sg18
I00
sS'y'
I862
s(dp48
S'y'
F872.5
sS'x'
F-110.5
sg18
I00
sg6
S'inserted'
p49
s(dp50
S'y'
F892.5
sS'x'
F-138.5
sg18
I00
s(dp51
g16
S'qcurve'
p52
sS'x'
I-156
sg18
I00
sS'y'
I902
s(dp53
S'y'
F908
sS'x'
F-169
sg18
I00
sg6
S'inserted'
p54
s(dp55
S'y'
F924
sS'x'
F-189
sg18
I00
s(dp56
g16
S'qcurve'
p57
sS'x'
I-196
sg18
I01
sS'y'
I934
s(dp58
S'y'
F943.5
sS'x'
F-203
sg18
I00
sg6
S'inserted'
p59
s(dp60
S'y'
F964
sS'x'
F-210
sg18
I00
s(dp61
g16
S'qcurve'
p62
sS'x'
I-210
sg18
I01
sS'y'
I975
s(dp63
S'y'
F987
sS'x'
F-210
sg18
I00
sg6
S'inserted'
p64
s(dp65
S'y'
F1007.5
sS'x'
F-198
sg18
I00
s(dp66
g16
S'qcurve'
p67
sS'x'
I-186
sg18
I01
sS'y'
I1016
s(dp68
S'y'
F1024
sS'x'
F-174
sg18
I00
sg6
S'inserted'
p69
s(dp70
S'y'
F1032
sS'x'
F-145.5
sg18
I00
s(dp71
g16
S'qcurve'
p72
sS'x'
I-129
sg18
I01
sS'y'
I1032
s(dp73
g16
S'line'
p74
sS'x'
I-36
sg18
I00
sS'y'
I1032
s(dp75
g16
S'line'
p76
sS'x'
I-36
sg18
I00
sS'y'
I995
s(dp77
g16
S'line'
p78
sS'x'
I-129
sg18
I01
sS'y'
I995
s(dp79
S'y'
F995
sS'x'
F-137
sg18
I00
sg6
S'inserted'
p80
s(dp81
S'y'
F991.5
sS'x'
F-150.5
sg18
I00
s(dp82
g16
S'qcurve'
p83
sS'x'
I-156
sg18
I01
sS'y'
I988
s(dp84
S'y'
F985
sS'x'
F-161
sg18
I00
sg6
S'inserted'
p85
s(dp86
S'y'
F978
sS'x'
F-166
sg18
I00
s(dp87
g16
S'qcurve'
p88
sS'x'
I-166
sg18
I01
sS'y'
I974
s(dp89
S'y'
F967.5
sS'x'
F-166
sg18
I00
sg6
S'inserted'
p90
s(dp91
S'y'
F952.5
sS'x'
F-157
sg18
I00
s(dp92
g16
S'qcurve'
p93
sS'x'
I-148
sg18
I01
sS'y'
I944
s(dp94
S'y'
F935
sS'x'
F-139
sg18
I00
sg6
S'inserted'
p95
s(dp96
S'y'
F917.5
sS'x'
F-113.5
sg18
I00
s(dp97
g16
S'qcurve'
p98
sS'x'
I-97
sg18
I01
sS'y'
I909
s(dp99
S'y'
F901.5
sS'x'
F-83
sg18
I00
sg6
S'inserted'
p100
s(dp101
S'y'
F883
sS'x'
F-61
sg18
I00
s(dp102
g16
S'qcurve'
p103
sS'x'
I-53
sg18
I01
sS'y'
I872
s(dp104
S'y'
F860.5
sS'x'
F-44.5
sg18
I00
sg6
S'inserted'
p105
s(dp106
S'y'
F836
sS'x'
F-36
sg18
I00
s(dp107
g16
S'qcurve'
p108
sS'x'
I-36
sg18
I01
sS'y'
I823
s(dp109
S'y'
I787
sS'x'
I-36
sg18
I00
s(dp110
S'y'
I736
sS'x'
I-88
sg18
I00
stp111
stp112
sS'components'
p113
(tsS'anchors'
p114
(tsssS'com.typemytype.robofont.mark'
p115
(F0.44109999999999999
F0.91300000000000003
F0.1201
F1
tp116
s."
AnchorPoint: "DVAnchor3" -137 681 mark 0
LayerCount: 2
Fore
SplineSet
-57 1035 m 1,0,-1
 -142 1035 l 2,1,2
 -228 1035 -228 1035 -228 993 c 0,3,4
 -228 971 -228 971 -208 959.5 c 128,-1,5
 -188 948 -188 948 -156 948 c 2,6,-1
 -136 948 l 2,7,8
 -94 948 -94 948 -65.5 937 c 128,-1,9
 -37 926 -37 926 -24 908 c 128,-1,10
 -11 890 -11 890 -6 874 c 128,-1,11
 -1 858 -1 858 -1 841 c 0,12,13
 -1 785 -1 785 -41.5 755 c 128,-1,14
 -82 725 -82 725 -135 725 c 0,15,16
 -192 725 -192 725 -240.5 751 c 128,-1,17
 -289 777 -289 777 -320 823 c 1,18,-1
 -270 859 l 1,19,20
 -218 785 -218 785 -135 785 c 0,21,22
 -108 785 -108 785 -86.5 798.5 c 128,-1,23
 -65 812 -65 812 -65 841 c 0,24,25
 -65 859 -65 859 -82.5 873.5 c 128,-1,26
 -100 888 -100 888 -136 888 c 2,27,-1
 -156 888 l 2,28,29
 -223 888 -223 888 -257.5 917 c 128,-1,30
 -292 946 -292 946 -292 993 c 0,31,32
 -292 1095 -292 1095 -142 1095 c 2,33,-1
 -57 1095 l 1,34,-1
 -57 1035 l 1,0,-1
EndSplineSet
EndChar

StartChar: avagrahadeva
Encoding: 2365 2365 169
Width: 559
VWidth: 0
Flags: W
PickledData: "(dp1
S'com.typemytype.robofont.layerData'
p2
(dp3
S'mask'
p4
(dp5
S'name'
p6
S'avagrahadeva'
p7
sS'lib'
p8
(dp9
sS'unicodes'
p10
(tsS'width'
p11
I559
sS'contours'
p12
((dp13
S'points'
p14
((dp15
S'segmentType'
p16
S'move'
p17
sS'x'
I70
sS'smooth'
p18
I00
sS'y'
I133
s(dp19
S'y'
I83
sS'x'
I118
sg18
I00
s(dp20
S'y'
I43
sS'x'
I203
sg18
I00
s(dp21
g16
S'curve'
p22
sS'x'
I291
sg18
I01
sS'y'
I43
s(dp23
S'y'
I43
sS'x'
I412
sg18
I00
s(dp24
S'y'
I113
sS'x'
I487
sg18
I00
s(dp25
g16
S'curve'
p26
sS'x'
I487
sg18
I01
sS'y'
I193
s(dp27
S'y'
I254
sS'x'
I487
sg18
I00
s(dp28
S'y'
I312
sS'x'
I451
sg18
I00
s(dp29
g16
S'curve'
p30
sS'x'
I353
sg18
I01
sS'y'
I347
s(dp31
g16
S'line'
p32
sS'x'
I262
sg18
I01
sS'y'
I380
s(dp33
S'y'
I412
sS'x'
I173
sg18
I00
s(dp34
S'y'
I451
sS'x'
I127
sg18
I00
s(dp35
g16
S'curve'
p36
sS'x'
I127
sg18
I01
sS'y'
I515
s(dp37
S'y'
I596
sS'x'
I127
sg18
I00
s(dp38
S'y'
I645
sS'x'
I192
sg18
I00
s(dp39
g16
S'curve'
p40
sS'x'
I294
sg18
I01
sS'y'
I645
s(dp41
S'y'
I645
sS'x'
I370
sg18
I00
s(dp42
S'y'
I645
sS'x'
I426
sg18
I00
s(dp43
g16
S'curve'
p44
sS'x'
I488
sg18
I00
sS'y'
I645
stp45
s(dp46
g14
((dp47
g16
S'move'
p48
sS'x'
I-558
sg18
I00
sS'y'
I108
s(dp49
S'y'
I48
sS'x'
I-506
sg18
I00
s(dp50
S'y'
I0
sS'x'
I-415
sg18
I00
s(dp51
g16
S'curve'
p52
sS'x'
I-320
sg18
I01
sS'y'
I0
s(dp53
S'y'
I0
sS'x'
I-189
sg18
I00
s(dp54
S'y'
I84
sS'x'
I-108
sg18
I00
s(dp55
g16
S'curve'
p56
sS'x'
I-108
sg18
I01
sS'y'
I182
s(dp57
S'y'
I255
sS'x'
I-108
sg18
I00
s(dp58
S'y'
I325
sS'x'
I-147
sg18
I00
s(dp59
g16
S'curve'
p60
sS'x'
I-253
sg18
I01
sS'y'
I368
s(dp61
g16
S'line'
p62
sS'x'
I-351
sg18
I01
sS'y'
I407
s(dp63
S'y'
I445
sS'x'
I-447
sg18
I00
s(dp64
S'y'
I492
sS'x'
I-496
sg18
I00
s(dp65
g16
S'curve'
p66
sS'x'
I-496
sg18
I01
sS'y'
I570
s(dp67
S'y'
I668
sS'x'
I-496
sg18
I00
s(dp68
S'y'
I727
sS'x'
I-426
sg18
I00
s(dp69
g16
S'curve'
p70
sS'x'
I-317
sg18
I01
sS'y'
I727
s(dp71
S'y'
I727
sS'x'
I-234
sg18
I00
s(dp72
S'y'
I706
sS'x'
I-171
sg18
I00
s(dp73
g16
S'curve'
p74
sS'x'
I-134
sg18
I00
sS'y'
I655
stp75
s(dp76
g14
((dp77
g16
S'curve'
p78
sS'x'
I-383
sg18
I01
sS'y'
I5
s(dp79
S'y'
I5
sS'x'
I-475
sg18
I00
s(dp80
S'y'
I89
sS'x'
I-565
sg18
I00
s(dp81
g16
S'curve'
p82
sS'x'
I-603
sg18
I00
sS'y'
I214
s(dp83
g16
S'line'
p84
sS'x'
I-543
sg18
I00
sS'y'
I246
s(dp85
S'y'
I144
sS'x'
I-512
sg18
I00
s(dp86
S'y'
I77
sS'x'
I-447
sg18
I00
s(dp87
g16
S'curve'
p88
sS'x'
I-383
sg18
I01
sS'y'
I77
s(dp89
S'y'
I77
sS'x'
I-335
sg18
I00
s(dp90
S'y'
I128
sS'x'
I-296
sg18
I00
s(dp91
g16
S'curve'
p92
sS'x'
I-296
sg18
I01
sS'y'
I192
s(dp93
S'y'
I251
sS'x'
I-296
sg18
I00
s(dp94
S'y'
I318
sS'x'
I-349
sg18
I00
s(dp95
g16
S'curve'
p96
sS'x'
I-436
sg18
I00
sS'y'
I376
s(dp97
S'y'
I412
sS'x'
I-495
sg18
I00
s(dp98
S'y'
I471
sS'x'
I-529
sg18
I00
s(dp99
g16
S'curve'
p100
sS'x'
I-529
sg18
I01
sS'y'
I533
s(dp101
S'y'
I599
sS'x'
I-529
sg18
I00
s(dp102
S'y'
I652
sS'x'
I-466
sg18
I00
s(dp103
g16
S'curve'
p104
sS'x'
I-390
sg18
I01
sS'y'
I652
s(dp105
g16
S'line'
p106
sS'x'
I-230
sg18
I00
sS'y'
I652
s(dp107
g16
S'line'
p108
sS'x'
I-230
sg18
I00
sS'y'
I585
s(dp109
g16
S'line'
p110
sS'x'
I-390
sg18
I01
sS'y'
I585
s(dp111
S'y'
I585
sS'x'
I-430
sg18
I00
s(dp112
S'y'
I561
sS'x'
I-463
sg18
I00
s(dp113
g16
S'curve'
p114
sS'x'
I-463
sg18
I01
sS'y'
I530
s(dp115
S'y'
I487
sS'x'
I-463
sg18
I00
s(dp116
S'y'
I430
sS'x'
I-415
sg18
I00
s(dp117
g16
S'curve'
p118
sS'x'
I-336
sg18
I01
sS'y'
I378
s(dp119
S'y'
I356
sS'x'
I-303
sg6
S'inserted'
p120
s(dp121
S'y'
I329
sS'x'
I-277
s(dp122
g16
S'curve'
p123
sS'x'
I-258
sg18
I00
sS'y'
I296
s(dp124
S'y'
I263
sS'x'
I-239
sg6
S'inserted'
p125
s(dp126
S'y'
I228
sS'x'
I-230
s(dp127
g16
S'curve'
p128
sS'x'
I-230
sg18
I01
sS'y'
I192
s(dp129
S'y'
I89
sS'x'
I-230
sg18
I00
s(dp130
S'y'
I5
sS'x'
I-297
sg18
I00
stp131
stp132
sS'components'
p133
(tsS'anchors'
p134
(tsssS'com.typemytype.robofont.mark'
p135
(F0.44109999999999999
F0.91300000000000003
F0.1201
F1
tp136
s."
LayerCount: 2
Fore
SplineSet
99 160 m 1,0,1
 131 126 131 126 183 104 c 128,-1,2
 235 82 235 82 291 82 c 0,3,4
 359 82 359 82 401.5 110.5 c 128,-1,5
 444 139 444 139 444 188 c 0,6,7
 444 226 444 226 418.5 258.5 c 128,-1,8
 393 291 393 291 340 310 c 2,9,-1
 249 343 l 2,10,11
 164 374 164 374 124 415 c 128,-1,12
 84 456 84 456 84 515 c 0,13,14
 84 592 84 592 139.5 638 c 128,-1,15
 195 684 195 684 294 684 c 2,16,-1
 488 684 l 1,17,-1
 488 606 l 1,18,-1
 294 606 l 2,19,20
 239 606 239 606 204.5 582.5 c 128,-1,21
 170 559 170 559 170 515 c 0,22,23
 170 480 170 480 196 458 c 128,-1,24
 222 436 222 436 275 417 c 2,25,-1
 366 384 l 2,26,27
 451 354 451 354 490.5 302 c 128,-1,28
 530 250 530 250 530 188 c 0,29,30
 530 107 530 107 466.5 55.5 c 128,-1,31
 403 4 403 4 291 4 c 0,32,33
 219 4 219 4 151.5 32.5 c 128,-1,34
 84 61 84 61 41 106 c 1,35,-1
 99 160 l 1,0,1
EndSplineSet
EndChar

StartChar: awsigndeva
Encoding: 2383 2383 171
Width: 258
VWidth: 0
Flags: W
PickledData: "(dp1
S'com.typemytype.robofont.layerData'
p2
(dp3
S'mask'
p4
(dp5
S'name'
p6
S'awsigndeva'
p7
sS'lib'
p8
(dp9
sS'unicodes'
p10
(tsS'width'
p11
I258
sS'contours'
p12
((dp13
S'points'
p14
((dp15
S'segmentType'
p16
S'qcurve'
p17
sS'x'
I167
sS'smooth'
p18
I00
sS'y'
I666
s(dp19
g16
S'line'
p20
sS'x'
I280
sg18
I00
sS'y'
I666
s(dp21
g16
S'line'
p22
sS'x'
I280
sg18
I00
sS'y'
I606
s(dp23
g16
S'line'
p24
sS'x'
I166
sg18
I00
sS'y'
I606
s(dp25
g16
S'line'
p26
sS'x'
I166
sg18
I00
sS'y'
I0
s(dp27
g16
S'line'
p28
sS'x'
I100
sg18
I00
sS'y'
I0
s(dp29
g16
S'line'
p30
sS'x'
I100
sg18
I00
sS'y'
I606
s(dp31
g16
S'line'
p32
sS'x'
I-13
sg18
I00
sS'y'
I606
s(dp33
g16
S'line'
p34
sS'x'
I-13
sg18
I00
sS'y'
I666
s(dp35
g16
S'line'
p36
sS'x'
I62
sg18
I00
sS'y'
I666
s(dp37
S'y'
F678
sS'x'
F55.5
sg6
S'inserted'
p38
s(dp39
S'y'
F699
sS'x'
F37.5
s(dp40
g16
S'qcurve'
p41
sS'x'
I26
sg18
I01
sS'y'
I708
s(dp42
S'y'
F719.5
sS'x'
F11
sg6
S'inserted'
p43
s(dp44
S'y'
F734
sS'x'
F-29
s(dp45
g16
S'qcurve'
p46
sS'x'
I-54
sg18
I01
sS'y'
I737
s(dp47
S'y'
F737.5
sS'x'
F-58.5
sg6
S'inserted'
p48
s(dp49
S'y'
F737
sS'x'
F-68
s(dp50
g16
S'qcurve'
p51
sS'x'
I-73
sg18
I01
sS'y'
I736
s(dp52
S'y'
F734.5
sS'x'
F-80.5
sg6
S'inserted'
p53
s(dp54
S'y'
F733
sS'x'
F-99.5
s(dp55
g16
S'qcurve'
p56
sS'x'
I-111
sg18
I01
sS'y'
I733
s(dp57
S'y'
F733
sS'x'
F-136.5
sg6
S'inserted'
p58
s(dp59
S'y'
F744.5
sS'x'
F-183
s(dp60
g16
S'qcurve'
p61
sS'x'
I-204
sg18
I01
sS'y'
I756
s(dp62
S'y'
F771.5
sS'x'
F-233.5
sg6
S'inserted'
p63
s(dp64
S'y'
F825
sS'x'
F-275.5
s(dp65
g16
S'qcurve'
p66
sS'x'
I-288
sg18
I00
sS'y'
I863
s(dp67
g16
S'line'
p68
sS'x'
I-222
sg18
I00
sS'y'
I872
s(dp69
S'y'
F845.5
sS'x'
F-213.5
sg6
S'inserted'
p70
s(dp71
S'y'
F809.5
sS'x'
F-186
s(dp72
g16
S'qcurve'
p73
sS'x'
I-167
sg18
I01
sS'y'
I800
s(dp74
S'y'
F793
sS'x'
F-153
sg6
S'inserted'
p75
s(dp76
S'y'
F786
sS'x'
F-122.5
s(dp77
g16
S'qcurve'
p78
sS'x'
I-106
sg18
I01
sS'y'
I786
s(dp79
S'y'
I786
sS'x'
I-96
sg18
I00
s(dp80
S'y'
I790
sS'x'
I-66
sg18
I00
s(dp81
g16
S'qcurve'
p82
sS'x'
I-51
sg18
I01
sS'y'
I790
s(dp83
S'y'
F790.04549999999995
sS'x'
F-49.63635
sg6
S'inserted'
p84
s(dp85
S'y'
F790.09100000000001
sS'x'
F-46.929749999999999
s(dp86
g16
S'qcurve'
p87
sS'x'
F-45.586799999999997
sg18
I01
sS'y'
F790.09100000000001
s(dp88
S'y'
F790.09100000000001
sS'x'
F-17.3843
sg6
S'inserted'
p89
s(dp90
S'y'
F770.04549999999995
sS'x'
F29.909100000000002
s(dp91
g16
S'qcurve'
p92
sS'x'
I49
sg18
I01
sS'y'
I750
s(dp93
S'y'
F733
sS'x'
F65.5
sg6
S'inserted'
p94
s(dp95
S'y'
F691
sS'x'
F90
s(dp96
g16
S'qcurve'
p97
sS'x'
I98
sg18
I00
sS'y'
I666
s(dp98
g16
S'line'
p99
sS'x'
I134
sg18
I00
sS'y'
I666
s(dp100
S'y'
F683.5
sS'x'
F134
sg6
S'inserted'
p101
s(dp102
S'y'
F717.5
sS'x'
F125
s(dp103
g16
S'qcurve'
p104
sS'x'
I116
sg18
I01
sS'y'
I734
s(dp105
S'y'
F759
sS'x'
F102.5
sg6
S'inserted'
p106
s(dp107
S'y'
F790.5
sS'x'
F62
s(dp108
g16
S'qcurve'
p109
sS'x'
I35
sg18
I00
sS'y'
I797
s(dp110
S'y'
F806.5
sS'x'
F-1
sg6
S'inserted'
p111
s(dp112
S'y'
F841.5
sS'x'
F-57.5
s(dp113
g16
S'qcurve'
p114
sS'x'
I-78
sg18
I01
sS'y'
I867
s(dp115
S'y'
F889
sS'x'
F-96
sg6
S'inserted'
p116
s(dp117
S'y'
F943.5
sS'x'
F-114
s(dp118
g16
S'qcurve'
p119
sS'x'
I-114
sg18
I01
sS'y'
I976
s(dp120
S'y'
F981.5
sS'x'
F-114
sg6
S'inserted'
p121
s(dp122
S'y'
F992.5
sS'x'
F-113.5
s(dp123
g16
S'qcurve'
p124
sS'x'
I-113
sg18
I00
sS'y'
I998
s(dp125
g16
S'line'
p126
sS'x'
I-49
sg18
I00
sS'y'
I981
s(dp127
S'y'
F977
sS'x'
F-49.5
sg6
S'inserted'
p128
s(dp129
S'y'
F969
sS'x'
F-50
s(dp130
g16
S'qcurve'
p131
sS'x'
I-50
sg18
I01
sS'y'
I965
s(dp132
S'y'
F942
sS'x'
F-49
sg6
S'inserted'
p133
s(dp134
S'y'
F906
sS'x'
F-37
s(dp135
g16
S'qcurve'
p136
sS'x'
I-26
sg18
I01
sS'y'
I893
s(dp137
S'y'
F877.5
sS'x'
F-13
sg6
S'inserted'
p138
s(dp139
S'y'
F855.5
sS'x'
F24.5
s(dp140
g16
S'qcurve'
p141
sS'x'
I49
sg18
I01
sS'y'
I849
s(dp142
S'y'
F838.5
sS'x'
F89
sg6
S'inserted'
p143
s(dp144
S'y'
F795.5
sS'x'
F141.5
s(dp145
g16
S'qcurve'
p146
sS'x'
I154
sg18
I01
sS'y'
I763
s(dp147
S'y'
F746
sS'x'
F160.5
sg6
S'inserted'
p148
s(dp149
S'y'
F707.5
sS'x'
F167.5
s(dp150
g16
S'qcurve'
p151
sS'x'
I168
sg18
I01
sS'y'
I686
s(dp152
S'y'
F680.5
sS'x'
F168
sg6
S'inserted'
p153
s(dp154
S'y'
F670.5
sS'x'
F167.5
stp155
s(dp156
g14
((dp157
g16
S'line'
p158
sS'x'
I-227
sg18
I00
sS'y'
I862
s(dp159
S'y'
I819
sS'x'
I-227
sg18
I00
s(dp160
S'y'
I801
sS'x'
I-197
sg18
I00
s(dp161
g16
S'curve'
p162
sS'x'
I-144
sg18
I01
sS'y'
I795
s(dp163
S'y'
I777
sS'x'
I-3
sg18
I00
s(dp164
S'y'
I769
sS'x'
I48
sg18
I00
s(dp165
g16
S'curve'
p166
sS'x'
I94
sg18
I01
sS'y'
I695
s(dp167
S'y'
I672
sS'x'
I108
sg18
I00
s(dp168
S'y'
I671
sS'x'
I106
sg18
I00
s(dp169
g16
S'curve'
p170
sS'x'
I110
sg18
I00
sS'y'
I663
s(dp171
g16
S'line'
p172
sS'x'
I44
sg18
I00
sS'y'
I631
s(dp173
S'y'
I637
sS'x'
I42
sg18
I00
s(dp174
S'y'
I638
sS'x'
I44
sg18
I00
s(dp175
g16
S'curve'
p176
sS'x'
I36
sg18
I01
sS'y'
I653
s(dp177
S'y'
F707.86834573283363
sS'x'
F1.4532637978455085
sg18
I00
s(dp178
S'y'
F704.34237219725492
sS'x'
F-47.464965993562203
sg18
I00
s(dp179
g16
S'curve'
p180
sS'x'
I-154
sg18
I01
sS'y'
I717
s(dp181
S'y'
F730.13324744686258
sS'x'
F-260.00406867824762
sg18
I00
s(dp182
S'y'
F779
sS'x'
F-303
sg18
I00
s(dp183
g16
S'curve'
p184
sS'x'
I-303
sg18
I00
sS'y'
I862
stp185
stp186
sS'components'
p187
(tsS'anchors'
p188
(tsssS'com.typemytype.robofont.mark'
p189
(F0.44109999999999999
F0.91300000000000003
F0.1201
F1
tp190
s."
LayerCount: 2
Fore
SplineSet
-132 946 m 1,0,1
 -132 915 -132 915 -111.5 900 c 128,-1,2
 -91 885 -91 885 -49 879 c 0,3,4
 42 865 42 865 82 847.5 c 128,-1,5
 122 830 122 830 148 779 c 0,6,7
 157.518426125 759.96314775 157.518426125 759.96314775 161.133089596 736.283771459 c 128,-1,8
 164.747753067 712.604395167 164.747753067 712.604395167 165.102953462 684 c 1,9,-1
 268 684 l 1,10,-1
 268 606 l 1,11,-1
 172 606 l 1,12,-1
 172 0 l 1,13,-1
 86 0 l 1,14,-1
 86 606 l 1,15,-1
 -10 606 l 1,16,-1
 -10 684 l 1,17,-1
 68.7993339656 684 l 1,18,19
 57.3655260112 693.270738365 57.3655260112 693.270738365 44.6293508543 699.391241189 c 128,-1,20
 31.8931756973 705.511744012 31.8931756973 705.511744012 10.8858416016 709.710095159 c 128,-1,21
 -10.121492494 713.908446307 -10.121492494 713.908446307 -23.3335170367 715.792859947 c 128,-1,22
 -36.5455415794 717.677273588 -36.5455415794 717.677273588 -71.3280231558 721.277395549 c 128,-1,23
 -106.110504732 724.877517511 -106.110504732 724.877517511 -124 727 c 0,24,25
 -207 737 -207 737 -245 770 c 128,-1,26
 -283 803 -283 803 -283 862 c 1,27,-1
 -227 862 l 1,28,29
 -227 827 -227 827 -199 809 c 128,-1,30
 -171 791 -171 791 -114 785 c 1,31,32
 -68 779 -68 779 -52 777 c 128,-1,33
 -36 775 -36 775 -5.5 769.5 c 128,-1,34
 25 764 25 764 36 759 c 128,-1,35
 47 754 47 754 65 745 c 128,-1,36
 83 736 83 736 93 724 c 128,-1,37
 103 712 103 712 114 695 c 0,38,39
 115.643182306 692.300486211 115.643182306 692.300486211 117.032772149 689.940691701 c 128,-1,40
 118.422361991 687.580897192 118.422361991 687.580897192 119.586693612 685.521296198 c 1,41,42
 119.482153302 701.399883164 119.482153302 701.399883164 117.43475419 714.690221202 c 128,-1,43
 115.387355078 727.980559239 115.387355078 727.980559239 110 741 c 0,44,45
 92 784 92 784 57 798.5 c 128,-1,46
 22 813 22 813 -59 821 c 0,47,48
 -129 827 -129 827 -162 857.5 c 128,-1,49
 -195 888 -195 888 -195 946 c 1,50,-1
 -132 946 l 1,0,1
EndSplineSet
EndChar

StartChar: b
Encoding: 98 98 172
Width: 565
VWidth: 0
Flags: W
PickledData: "(dp1
S'com.typemytype.robofont.layerData'
p2
(dp3
S'mask'
p4
(dp5
S'name'
p6
S'b'
sS'lib'
p7
(dp8
sS'unicodes'
p9
(tsS'width'
p10
I565
sS'contours'
p11
(tsS'components'
p12
(tsS'anchors'
p13
(tsss."
LayerCount: 2
Fore
SplineSet
66 0 m 1,0,-1
 66 781 l 1,1,-1
 155 781 l 1,2,-1
 155 424.352534692 l 1,3,4
 215.993451532 493 215.993451532 493 304 493 c 0,5,6
 410 493 410 493 470 423 c 128,-1,7
 530 353 530 353 530 242 c 0,8,9
 530 132 530 132 469.5 61 c 128,-1,10
 409 -10 409 -10 304 -10 c 0,11,12
 216.052109416 -10 216.052109416 -10 155 55.5613246818 c 1,13,-1
 155 0 l 1,14,-1
 66 0 l 1,0,-1
155 208 m 1,15,16
 157 151 157 151 199.5 111.5 c 128,-1,17
 242 72 242 72 304 72 c 0,18,19
 370 72 370 72 405.5 121.5 c 128,-1,20
 441 171 441 171 441 242 c 0,21,22
 441 315 441 315 406 363 c 128,-1,23
 371 411 371 411 304 411 c 0,24,25
 244 411 244 411 201.5 370 c 128,-1,26
 159 329 159 329 155 270 c 1,27,-1
 155 208 l 1,15,16
EndSplineSet
EndChar

StartChar: ba_virama_ra_viramadeva
Encoding: 65550 -1 173
Width: 516
VWidth: 0
Flags: W
PickledData: "(dp1
S'com.typemytype.robofont.layerData'
p2
(dp3
S'mask'
p4
(dp5
S'name'
p6
S'ba_virama_ra_viramadeva'
p7
sS'lib'
p8
(dp9
sS'unicodes'
p10
(tsS'width'
p11
I516
sS'contours'
p12
((dp13
S'points'
p14
((dp15
S'segmentType'
p16
S'line'
p17
sS'x'
I593
sS'smooth'
p18
I00
sS'y'
I481
s(dp19
g16
S'line'
p20
sS'x'
I593
sg18
I00
sS'y'
I541
s(dp21
g16
S'line'
p22
sS'x'
I986
sg18
I00
sS'y'
I541
s(dp23
g16
S'line'
p24
sS'x'
I986
sg18
I00
sS'y'
I481
stp25
s(dp26
g14
((dp27
g16
S'curve'
p28
sS'x'
I696
sg18
I01
sS'y'
I173
s(dp29
S'y'
I173
sS'x'
I728
sg18
I00
s(dp30
S'y'
I181
sS'x'
I755
sg18
I00
s(dp31
g16
S'curve'
p32
sS'x'
I776
sg18
I00
sS'y'
I200
s(dp33
g16
S'line'
p34
sS'x'
I596
sg18
I00
sS'y'
I346
s(dp35
S'y'
I330
sS'x'
I584
sg18
I00
s(dp36
S'y'
I308
sS'x'
I576
sg18
I00
s(dp37
g16
S'curve'
p38
sS'x'
I576
sg18
I01
sS'y'
I280
s(dp39
S'y'
I221
sS'x'
I576
sg18
I00
s(dp40
S'y'
I173
sS'x'
I630
sg18
I00
stp41
s(dp42
g14
((dp43
g16
S'line'
p44
sS'x'
I843
sg18
I00
sS'y'
I160
s(dp45
g16
S'line'
p46
sS'x'
I543
sg18
I00
sS'y'
I-40
s(dp47
g16
S'line'
p48
sS'x'
I510
sg18
I00
sS'y'
I13
s(dp49
g16
S'line'
p50
sS'x'
I665
sg18
I00
sS'y'
I114
s(dp51
S'y'
I134
sS'x'
I574
sg18
I00
s(dp52
S'y'
I202
sS'x'
I510
sg18
I00
s(dp53
g16
S'curve'
p54
sS'x'
I510
sg18
I01
sS'y'
I280
s(dp55
S'y'
I386
sS'x'
I510
sg18
I00
s(dp56
S'y'
I473
sS'x'
I599
sg18
I00
s(dp57
g16
S'curve'
p58
sS'x'
I709
sg18
I01
sS'y'
I473
s(dp59
S'y'
I473
sS'x'
I744
sg18
I00
s(dp60
S'y'
I465
sS'x'
I773
sg18
I00
s(dp61
g16
S'curve'
p62
sS'x'
I796
sg18
I00
sS'y'
I453
s(dp63
g16
S'line'
p64
sS'x'
I776
sg18
I00
sS'y'
I399
s(dp65
S'y'
I408
sS'x'
I756
sg18
I00
s(dp66
S'y'
I413
sS'x'
I734
sg18
I00
s(dp67
g16
S'curve'
p68
sS'x'
I709
sg18
I01
sS'y'
I413
s(dp69
S'y'
I413
sS'x'
I670
sg18
I00
s(dp70
S'y'
I402
sS'x'
I642
sg18
I00
s(dp71
g16
S'curve'
p72
sS'x'
I629
sg18
I00
sS'y'
I386
s(dp73
g16
S'line'
p74
sS'x'
I823
sg18
I00
sS'y'
I240
s(dp75
g16
S'line'
p76
sS'x'
I843
sg18
I00
sS'y'
I266
stp77
stp78
sS'components'
p79
(tsS'anchors'
p80
(tsssS'com.typemytype.robofont.mark'
p81
(F0.44109999999999999
F0.91300000000000003
F0.1201
F1
tp82
s."
LayerCount: 2
Fore
SplineSet
526 606 m 1,0,-1
 -10 606 l 1,1,-1
 -10 684 l 1,2,-1
 526 684 l 1,3,-1
 526 606 l 1,0,-1
398.45215311 265.447368421 m 1,4,-1
 399 266 l 1,5,-1
 455 210 l 1,6,-1
 226 -21 l 1,7,-1
 170 35 l 1,8,-1
 242.198245693 107.828798057 l 1,9,10
 153.67249282 114.657959076 153.67249282 114.657959076 100.33624641 171.187555368 c 128,-1,11
 47 227.717151661 47 227.717151661 47 308 c 0,12,13
 47 396 47 396 106.5 454 c 128,-1,14
 166 512 166 512 263 512 c 0,15,16
 330 512 330 512 384 477 c 128,-1,17
 438 442 438 442 465 384 c 1,18,-1
 391 350 l 1,19,20
 373 387 373 387 339 410.5 c 128,-1,21
 305 434 305 434 263 434 c 0,22,23
 249.117176021 434 249.117176021 434 236.168033723 431.775748924 c 1,24,-1
 356.480944292 223.764873423 l 1,25,26
 358.286409898 225.369278758 358.286409898 225.369278758 360.112291508 227.048131519 c 128,-1,27
 361.938173117 228.726984279 361.938173117 228.726984279 363.791771102 230.484275653 c 2,28,-1
 383.259949463 250.122481773 l 2,29,30
 389.222989593 256.425079556 389.222989593 256.425079556 398 266 c 1,31,-1
 398.45215311 265.447368421 l 1,4,-1
171.196181822 400.371661548 m 1,32,33
 133 364.554541744 133 364.554541744 133 308 c 0,34,35
 133 256 133 256 169 220.5 c 128,-1,36
 205 185 205 185 264 185 c 0,37,38
 266.288695396 185 266.288695396 185 268.538010792 185.071071107 c 128,-1,39
 270.787326188 185.142142214 270.787326188 185.142142214 272.976088259 185.282304057 c 128,-1,40
 275.16485033 185.422465901 275.16485033 185.422465901 277.318947766 185.632435625 c 128,-1,41
 279.473045202 185.842405349 279.473045202 185.842405349 281.569898048 186.118436382 c 128,-1,42
 283.666750895 186.394467415 283.666750895 186.394467415 285.733748246 186.73916085 c 128,-1,43
 287.800745598 187.083854285 287.800745598 187.083854285 289.813807096 187.491579599 c 128,-1,44
 291.826868594 187.899304914 291.826868594 187.899304914 293.814789961 188.374429405 c 1,45,-1
 171.196181822 400.371661548 l 1,32,33
EndSplineSet
Ligature2: "VattuVariantslookup30 subtable" badeva viramadeva_radeva viramadeva
Ligature2: "VattuVariantslookup30 subtable" badeva_viramadeva viramadeva_radeva
Ligature2: "HalfFormslookup10 subtable" badeva_viramadeva_radeva viramadeva
EndChar

StartChar: badeva
Encoding: 2348 2348 175
Width: 559
VWidth: 0
Flags: W
PickledData: "(dp1
S'com.typemytype.robofont.layerData'
p2
(dp3
S'mask'
p4
(dp5
S'name'
p6
S'badeva'
p7
sS'lib'
p8
(dp9
sS'unicodes'
p10
(tsS'width'
p11
I559
sS'contours'
p12
((dp13
S'points'
p14
((dp15
S'segmentType'
p16
S'line'
p17
sS'x'
I1252
sS'smooth'
p18
I00
sS'y'
I606
s(dp19
g16
S'line'
p20
sS'x'
I1252
sg18
I00
sS'y'
I666
s(dp21
g16
S'line'
p22
sS'x'
I1936
sg18
I00
sS'y'
I666
s(dp23
g16
S'line'
p24
sS'x'
I1936
sg18
I00
sS'y'
I606
stp25
s(dp26
g14
((dp27
g16
S'curve'
p28
sS'x'
I1663
sg18
I00
sS'y'
I280
s(dp29
S'y'
I197
sS'x'
I1678
sg18
I00
s(dp30
S'y'
I140
sS'x'
I1728
sg18
I00
s(dp31
g16
S'curve'
p32
sS'x'
I1783
sg18
I01
sg6
S'inserted'
p33
sS'y'
I140
s(dp34
S'y'
I140
sS'x'
I1838
sg18
I00
s(dp35
S'y'
I204
sS'x'
I1883
sg18
I00
s(dp36
g16
S'curve'
p37
sS'x'
I1883
sg18
I01
sS'y'
I286
s(dp38
S'y'
I360
sS'x'
I1883
sg18
I00
s(dp39
S'y'
I419
sS'x'
I1838
sg18
I00
s(dp40
g16
S'curve'
p41
sS'x'
I1783
sg18
I01
sg6
S'inserted'
p42
sS'y'
I419
s(dp43
S'y'
I419
sS'x'
I1728
sg18
I00
s(dp44
S'y'
I362
sS'x'
I1678
sg18
I00
stp45
s(dp46
g14
((dp47
g16
S'curve'
p48
sS'x'
I1483
sg18
I01
sS'y'
I140
s(dp49
S'y'
I140
sS'x'
I1523
sg18
I00
s(dp50
S'y'
I198
sS'x'
I1571
sg18
I00
s(dp51
g16
S'curve'
p52
sS'x'
I1603
sg18
I00
sS'y'
I286
s(dp53
S'y'
I366
sS'x'
I1575
sg18
I00
s(dp54
S'y'
I419
sS'x'
I1526
sg18
I00
s(dp55
g16
S'curve'
p56
sS'x'
I1483
sg18
I01
sS'y'
I419
s(dp57
S'y'
I419
sS'x'
I1424
sg18
I00
s(dp58
S'y'
I356
sS'x'
I1377
sg18
I00
s(dp59
g16
S'curve'
p60
sS'x'
I1377
sg18
I01
sS'y'
I280
s(dp61
S'y'
I202
sS'x'
I1377
sg18
I00
s(dp62
S'y'
I140
sS'x'
I1424
sg18
I00
stp63
s(dp64
g14
((dp65
g16
S'curve'
p66
sS'x'
I1483
sg18
I01
sS'y'
I73
s(dp67
S'y'
I73
sS'x'
I1387
sg18
I00
s(dp68
S'y'
I165
sS'x'
I1310
sg18
I00
s(dp69
g16
S'curve'
p70
sS'x'
I1310
sg18
I01
sS'y'
I280
s(dp71
S'y'
I394
sS'x'
I1310
sg18
I00
s(dp72
S'y'
I486
sS'x'
I1387
sg18
I00
s(dp73
g16
S'curve'
p74
sS'x'
I1483
sg18
I01
sS'y'
I486
s(dp75
S'y'
I486
sS'x'
I1547
sg18
I00
s(dp76
S'y'
I436
sS'x'
I1608
sg18
I00
s(dp77
g16
S'curve'
p78
sS'x'
I1637
sg18
I00
sS'y'
I360
s(dp79
S'y'
I436
sS'x'
I1665
sg18
I00
s(dp80
S'y'
I486
sS'x'
I1723
sg18
I00
s(dp81
g16
S'curve'
p82
sS'x'
I1783
sg18
I01
sS'y'
I486
s(dp83
S'y'
I486
sS'x'
I1875
sg18
I00
s(dp84
S'y'
I397
sS'x'
I1949
sg18
I00
s(dp85
g16
S'curve'
p86
sS'x'
I1949
sg18
I01
sS'y'
I286
s(dp87
S'y'
I168
sS'x'
I1949
sg18
I00
s(dp88
S'y'
I73
sS'x'
I1875
sg18
I00
s(dp89
g16
S'curve'
p90
sS'x'
I1783
sg18
I01
sS'y'
I73
s(dp91
S'y'
I73
sS'x'
I1720
sg18
I00
s(dp92
S'y'
I126
sS'x'
I1658
sg18
I00
s(dp93
g16
S'curve'
p94
sS'x'
I1630
sg18
I00
sS'y'
I206
s(dp95
S'y'
I126
sS'x'
I1602
sg18
I00
s(dp96
S'y'
I73
sS'x'
I1542
sg18
I00
stp97
s(dp98
g14
((dp99
g16
S'curve'
p100
sS'x'
I-501
sg18
I01
sS'y'
I213
s(dp101
S'y'
I213
sS'x'
I-469
sg18
I00
s(dp102
S'y'
I221
sS'x'
I-442
sg18
I00
s(dp103
g16
S'curve'
p104
sS'x'
I-421
sg18
I00
sS'y'
I240
s(dp105
g16
S'line'
p106
sS'x'
I-601
sg18
I00
sS'y'
I386
s(dp107
S'y'
I370
sS'x'
I-613
sg18
I00
s(dp108
S'y'
I348
sS'x'
I-621
sg18
I00
s(dp109
g16
S'curve'
p110
sS'x'
I-621
sg18
I01
sS'y'
I320
s(dp111
S'y'
I261
sS'x'
I-621
sg18
I00
s(dp112
S'y'
I213
sS'x'
I-567
sg18
I00
stp113
s(dp114
g14
((dp115
g16
S'curve'
p116
sS'x'
I-687
sg18
I01
sS'y'
I320
s(dp117
S'y'
I426
sS'x'
I-687
sg18
I00
s(dp118
S'y'
I513
sS'x'
I-598
sg18
I00
s(dp119
g16
S'curve'
p120
sS'x'
I-488
sg18
I01
sS'y'
I513
s(dp121
S'y'
I513
sS'x'
I-453
sg18
I00
s(dp122
S'y'
I505
sS'x'
I-424
sg18
I00
s(dp123
g16
S'curve'
p124
sS'x'
I-401
sg18
I00
sS'y'
I493
s(dp125
g16
S'line'
p126
sS'x'
I-421
sg18
I00
sS'y'
I439
s(dp127
S'y'
I448
sS'x'
I-441
sg18
I00
s(dp128
S'y'
I453
sS'x'
I-463
sg18
I00
s(dp129
g16
S'curve'
p130
sS'x'
I-488
sg18
I01
sS'y'
I453
s(dp131
S'y'
I453
sS'x'
I-527
sg18
I00
s(dp132
S'y'
I442
sS'x'
I-555
sg18
I00
s(dp133
g16
S'curve'
p134
sS'x'
I-568
sg18
I00
sS'y'
I426
s(dp135
g16
S'line'
p136
sS'x'
I-374
sg18
I00
sS'y'
I280
s(dp137
g16
S'line'
p138
sS'x'
I-354
sg18
I00
sS'y'
I306
s(dp139
g16
S'line'
p140
sS'x'
I-354
sg18
I00
sS'y'
I606
s(dp141
g16
S'line'
p142
sS'x'
I-739
sg18
I00
sS'y'
I606
s(dp143
g16
S'line'
p144
sS'x'
I-739
sg18
I00
sS'y'
I666
s(dp145
g16
S'line'
p146
sS'x'
I-175
sg18
I00
sS'y'
I666
s(dp147
g16
S'line'
p148
sS'x'
I-175
sg18
I00
sS'y'
I606
s(dp149
g16
S'line'
p150
sS'x'
I-288
sg18
I00
sS'y'
I606
s(dp151
g16
S'line'
p152
sS'x'
I-288
sg18
I00
sS'y'
I0
s(dp153
g16
S'line'
p154
sS'x'
I-354
sg18
I00
sS'y'
I0
s(dp155
g16
S'line'
p156
sS'x'
I-354
sg18
I00
sS'y'
I213
s(dp157
S'y'
I170
sS'x'
I-397
sg18
I00
s(dp158
S'y'
I146
sS'x'
I-449
sg18
I00
s(dp159
g16
S'curve'
p160
sS'x'
I-501
sg18
I01
sS'y'
I146
s(dp161
S'y'
I146
sS'x'
I-604
sg18
I00
s(dp162
S'y'
I224
sS'x'
I-687
sg18
I00
stp163
s(dp164
g14
((dp165
g16
S'line'
p166
sS'x'
I526
sg18
I00
sS'y'
I606
s(dp167
g16
S'line'
p168
sS'x'
I-10
sg18
I00
sS'y'
I606
s(dp169
g16
S'line'
p170
sS'x'
I-10
sg18
I00
sS'y'
I684
s(dp171
g16
S'line'
p172
sS'x'
I526
sg18
I00
sS'y'
I684
stp173
s(dp174
g14
((dp175
g16
S'line'
p176
sS'x'
I466
sg18
I00
sS'y'
I253
s(dp177
S'y'
I177
sS'x'
I430
sg18
I00
s(dp178
S'y'
I107
sS'x'
I358
sg18
I00
s(dp179
g16
S'curve'
p180
sS'x'
I264
sg18
I01
sS'y'
I107
s(dp181
S'y'
I107
sS'x'
I131
sg18
I00
s(dp182
S'y'
I197
sS'x'
I47
sg18
I00
s(dp183
g16
S'curve'
p184
sS'x'
I47
sg18
I01
sS'y'
I308
s(dp185
S'y'
I423
sS'x'
I47
sg18
I00
s(dp186
S'y'
I512
sS'x'
I135
sg18
I00
s(dp187
g16
S'curve'
p188
sS'x'
I250
sg18
I01
sS'y'
I512
s(dp189
S'y'
I512
sS'x'
I362
sg18
I00
s(dp190
S'y'
I437
sS'x'
I429
sg18
I00
s(dp191
g16
S'curve'
p192
sS'x'
I465
sg18
I00
sS'y'
I364
s(dp193
g16
S'line'
p194
sS'x'
I391
sg18
I00
sS'y'
I350
s(dp195
S'y'
I398
sS'x'
I368
sg18
I00
s(dp196
S'y'
I434
sS'x'
I321
sg18
I00
s(dp197
g16
S'curve'
p198
sS'x'
I263
sg18
I01
sS'y'
I434
s(dp199
S'y'
I434
sS'x'
I182
sg18
I00
s(dp200
S'y'
I377
sS'x'
I133
sg18
I00
s(dp201
g16
S'curve'
p202
sS'x'
I133
sg18
I01
sS'y'
I308
s(dp203
S'y'
I241
sS'x'
I133
sg18
I00
s(dp204
S'y'
I185
sS'x'
I183
sg18
I00
s(dp205
g16
S'curve'
p206
sS'x'
I264
sg18
I01
sS'y'
I185
s(dp207
S'y'
I185
sS'x'
I321
sg18
I00
s(dp208
S'y'
I221
sS'x'
I368
sg18
I00
s(dp209
g16
S'curve'
p210
sS'x'
I390
sg18
I00
sS'y'
I269
stp211
s(dp212
g14
((dp213
g16
S'line'
p214
sS'x'
I387
sg18
I00
sS'y'
I0
s(dp215
g16
S'line'
p216
sS'x'
I387
sg18
I00
sS'y'
I645
s(dp217
g16
S'line'
p218
sS'x'
I473
sg18
I00
sS'y'
I645
s(dp219
g16
S'line'
p220
sS'x'
I473
sg18
I00
sS'y'
I0
stp221
s(dp222
g14
((dp223
g16
S'line'
p224
sS'x'
I569
sg18
I00
sS'y'
I606
s(dp225
g16
S'line'
p226
sS'x'
I291
sg18
I00
sS'y'
I606
s(dp227
g16
S'line'
p228
sS'x'
I291
sg18
I00
sS'y'
I684
s(dp229
g16
S'line'
p230
sS'x'
I569
sg18
I00
sS'y'
I684
stp231
stp232
sS'components'
p233
(tsS'anchors'
p234
(tsssS'com.typemytype.robofont.mark'
p235
(F0.51200000000000001
F1
F0.0241
F1
tp236
s."
HStem: 0 21G<387 473> 107 78<188.133 284.024> 434 78<239.3 336.485> 606 78<-10 387 473 569>
VStem: 47 86<238.048 380.374> 387 86<0 151.697 230.631 388.281 464.58 606>
AnchorPoint: "DVAnchor3" 437 666 basechar 0
LayerCount: 2
Fore
SplineSet
387 464.579743158 m 1,0,-1
 387 606 l 1,1,-1
 291 606 l 1,2,-1
 -10 606 l 1,3,-1
 -10 684 l 1,4,-1
 291 684 l 1,5,-1
 526 684 l 1,6,-1
 569 684 l 1,7,-1
 569 606 l 1,8,-1
 526 606 l 1,9,-1
 473 606 l 1,10,-1
 473 0 l 1,11,-1
 387 0 l 1,12,-1
 387 151.697350696 l 1,13,14
 330.455798591 107 330.455798591 107 264 107 c 0,15,16
 167 107 167 107 107 165 c 128,-1,17
 47 223 47 223 47 308 c 0,18,19
 47 394 47 394 105.5 453 c 128,-1,20
 164 512 164 512 250 512 c 0,21,22
 277.458725013 512 277.458725013 512 302.750364509 505.909474724 c 128,-1,23
 328.042004006 499.818949448 328.042004006 499.818949448 348.33523399 489.545637666 c 128,-1,24
 368.628463974 479.272325884 368.628463974 479.272325884 387 464.579743158 c 1,0,-1
284.822606933 186.631998857 m 1,25,-1
 164.891560523 393.982663434 l 1,26,27
 149.41005945 377.026887797 149.41005945 377.026887797 141.205029725 354.911168163 c 128,-1,28
 133 332.795448529 133 332.795448529 133 308 c 0,29,30
 133 256 133 256 169 220.5 c 128,-1,31
 205 185 205 185 264 185 c 0,32,33
 274.52681235 185 274.52681235 185 284.822606933 186.631998857 c 1,25,-1
387 262.828800299 m 1,34,-1
 387 357.787738337 l 1,35,36
 368.156924193 392.103930032 368.156924193 392.103930032 335.490793205 413.051965016 c 128,-1,37
 302.824662216 434 302.824662216 434 263 434 c 0,38,39
 249.117176017 434 249.117176017 434 236.168033723 431.775748924 c 1,40,-1
 357.048953732 222.782833006 l 1,41,42
 375.322061899 240.132189139 375.322061899 240.132189139 387 262.828800299 c 1,34,-1
EndSplineSet
EndChar

StartChar: badeva_viramadeva
Encoding: 65551 -1 176
Width: 516
VWidth: 0
Flags: W
PickledData: "(dp1
S'com.typemytype.robofont.layerData'
p2
(dp3
S'mask'
p4
(dp5
S'name'
p6
S'badeva_viramadeva'
p7
sS'lib'
p8
(dp9
sS'unicodes'
p10
(tsS'width'
p11
I516
sS'contours'
p12
((dp13
S'points'
p14
((dp15
S'segmentType'
p16
S'line'
p17
sS'x'
I-13
sS'smooth'
p18
I00
sS'y'
I606
s(dp19
g16
S'line'
p20
sS'x'
I-13
sg18
I00
sS'y'
I666
s(dp21
g16
S'line'
p22
sS'x'
I380
sg18
I00
sS'y'
I666
s(dp23
g16
S'line'
p24
sS'x'
I380
sg18
I00
sS'y'
I606
stp25
s(dp26
g14
((dp27
g16
S'qcurve'
p28
sS'x'
I226
sg18
I01
sS'y'
I193
s(dp29
S'y'
I193
sS'x'
I256
sg18
I00
s(dp30
S'y'
I214
sS'x'
I308
sg18
I00
s(dp31
g16
S'qcurve'
p32
sS'x'
I326
sg18
I00
sS'y'
I233
s(dp33
g16
S'line'
p34
sS'x'
I127
sg18
I00
sS'y'
I380
s(dp35
S'y'
I368
sS'x'
I117
sg18
I00
s(dp36
S'y'
I334
sS'x'
I107
sg18
I00
s(dp37
g16
S'qcurve'
p38
sS'x'
I107
sg18
I01
sS'y'
I313
s(dp39
S'y'
I264
sS'x'
I107
sg18
I00
s(dp40
S'y'
I193
sS'x'
I177
sg18
I00
stp41
s(dp42
g14
((dp43
g16
S'qcurve'
p44
sS'x'
I226
sg18
I01
sS'y'
I127
s(dp45
S'y'
I127
sS'x'
I149
sg18
I00
s(dp46
S'y'
I236
sS'x'
I40
sg18
I00
s(dp47
g16
S'qcurve'
p48
sS'x'
I40
sg18
I01
sS'y'
I313
s(dp49
S'y'
I395
sS'x'
I40
sg18
I00
s(dp50
S'y'
I513
sS'x'
I157
sg18
I00
s(dp51
g16
S'qcurve'
p52
sS'x'
I240
sg18
I01
sS'y'
I513
s(dp53
S'y'
I513
sS'x'
I258
sg18
I00
s(dp54
S'y'
I506
sS'x'
I292
sg18
I00
s(dp55
g16
S'qcurve'
p56
sS'x'
I306
sg18
I00
sS'y'
I499
s(dp57
g16
S'line'
p58
sS'x'
I306
sg18
I00
sS'y'
I433
s(dp59
S'y'
I439
sS'x'
I297
sg18
I00
s(dp60
S'y'
I446
sS'x'
I262
sg18
I00
s(dp61
g16
S'qcurve'
p62
sS'x'
I240
sg18
I01
sS'y'
I446
s(dp63
S'y'
I446
sS'x'
I216
sg18
I00
s(dp64
S'y'
I433
sS'x'
I176
sg18
I00
s(dp65
g16
S'qcurve'
p66
sS'x'
I160
sg18
I00
sS'y'
I419
s(dp67
g16
S'line'
p68
sS'x'
I366
sg18
I00
sS'y'
I266
s(dp69
g16
S'line'
p70
sS'x'
I393
sg18
I00
sS'y'
I300
s(dp71
g16
S'line'
p72
sS'x'
I393
sg18
I00
sS'y'
I213
s(dp73
S'y'
I172
sS'x'
I365
sg18
I00
s(dp74
S'y'
I127
sS'x'
I276
sg18
I00
stp75
stp76
sS'components'
p77
(tsS'anchors'
p78
(tsssS'com.typemytype.robofont.mark'
p79
(F0.51200000000000001
F1
F0.0241
F1
tp80
s."
LayerCount: 2
Fore
SplineSet
293.811451539 188.380201254 m 1,0,-1
 171.196181822 400.371661548 l 1,1,2
 152.740016763 383.065044931 152.740016763 383.065044931 142.870008382 359.159959998 c 128,-1,3
 133 335.254875065 133 335.254875065 133 308 c 0,4,5
 133 256 133 256 169 220.5 c 128,-1,6
 205 185 205 185 264 185 c 0,7,8
 279.177252243 185 279.177252243 185 293.811451539 188.380201254 c 1,0,-1
526 606 m 1,9,-1
 -10 606 l 1,10,-1
 -10 684 l 1,11,-1
 526 684 l 1,12,-1
 526 606 l 1,9,-1
466 233 m 1,13,14
 439 175 439 175 384.5 141 c 128,-1,15
 330 107 330 107 264 107 c 0,16,17
 167 107 167 107 107 165 c 128,-1,18
 47 223 47 223 47 308 c 0,19,20
 47 396 47 396 106.5 454 c 128,-1,21
 166 512 166 512 263 512 c 0,22,23
 330 512 330 512 384 477 c 128,-1,24
 438 442 438 442 465 384 c 1,25,-1
 391 350 l 1,26,27
 373 387 373 387 339 410.5 c 128,-1,28
 305 434 305 434 263 434 c 0,29,30
 249.117176017 434 249.117176017 434 236.168033723 431.775748924 c 1,31,-1
 357.048953732 222.782833006 l 1,32,33
 377.883613631 242.564247922 377.883613631 242.564247922 390 269 c 1,34,-1
 466 233 l 1,13,14
EndSplineSet
Ligature2: "HalfFormslookup10 subtable" badeva viramadeva
EndChar

StartChar: badeva_viramadeva_radeva
Encoding: 65552 -1 177
Width: 559
VWidth: 0
Flags: W
PickledData: "(dp1
S'com.typemytype.robofont.layerData'
p2
(dp3
S'mask'
p4
(dp5
S'name'
p6
S'badeva_viramadeva_radeva'
p7
sS'lib'
p8
(dp9
sS'unicodes'
p10
(tsS'width'
p11
I559
sS'contours'
p12
((dp13
S'points'
p14
((dp15
S'segmentType'
p16
S'qcurve'
p17
sS'x'
I237
sS'smooth'
p18
I01
sS'y'
I213
s(dp19
S'y'
I213
sS'x'
I261
sg18
I00
s(dp20
S'y'
I226
sS'x'
I301
sg18
I00
s(dp21
g16
S'qcurve'
p22
sS'x'
I317
sg18
I00
sS'y'
I240
s(dp23
g16
S'line'
p24
sS'x'
I137
sg18
I00
sS'y'
I386
s(dp25
S'y'
I374
sS'x'
I128
sg18
I00
s(dp26
S'y'
I341
sS'x'
I117
sg18
I00
s(dp27
g16
S'qcurve'
p28
sS'x'
I117
sg18
I01
sS'y'
I320
s(dp29
S'y'
I276
sS'x'
I117
sg18
I00
s(dp30
S'y'
I213
sS'x'
I188
sg18
I00
stp31
s(dp32
g14
((dp33
g16
S'qcurve'
p34
sS'x'
I51
sg18
I01
sS'y'
I320
s(dp35
S'y'
I399
sS'x'
I51
sg18
I00
s(dp36
S'y'
I513
sS'x'
I168
sg18
I00
s(dp37
g16
S'qcurve'
p38
sS'x'
I250
sg18
I01
sS'y'
I513
s(dp39
S'y'
I513
sS'x'
I276
sg18
I00
s(dp40
S'y'
I502
sS'x'
I320
sg18
I00
s(dp41
g16
S'qcurve'
p42
sS'x'
I337
sg18
I00
sS'y'
I493
s(dp43
g16
S'line'
p44
sS'x'
I317
sg18
I00
sS'y'
I439
s(dp45
S'y'
I446
sS'x'
I302
sg18
I00
s(dp46
S'y'
I453
sS'x'
I269
sg18
I00
s(dp47
g16
S'qcurve'
p48
sS'x'
I250
sg18
I01
sS'y'
I453
s(dp49
S'y'
I453
sS'x'
I221
sg18
I00
s(dp50
S'y'
I438
sS'x'
I180
sg18
I00
s(dp51
g16
S'qcurve'
p52
sS'x'
I170
sg18
I00
sS'y'
I426
s(dp53
g16
S'line'
p54
sS'x'
I364
sg18
I00
sS'y'
I280
s(dp55
g16
S'line'
p56
sS'x'
I384
sg18
I00
sS'y'
I306
s(dp57
g16
S'line'
p58
sS'x'
I384
sg18
I00
sS'y'
I606
s(dp59
g16
S'line'
p60
sS'x'
I-13
sg18
I00
sS'y'
I606
s(dp61
g16
S'line'
p62
sS'x'
I-13
sg18
I00
sS'y'
I666
s(dp63
g16
S'line'
p64
sS'x'
I563
sg18
I00
sS'y'
I666
s(dp65
g16
S'line'
p66
sS'x'
I563
sg18
I00
sS'y'
I606
s(dp67
g16
S'line'
p68
sS'x'
I450
sg18
I00
sS'y'
I606
s(dp69
g16
S'line'
p70
sS'x'
I450
sg18
I00
sS'y'
I0
s(dp71
g16
S'line'
p72
sS'x'
I384
sg18
I00
sS'y'
I0
s(dp73
g16
S'line'
p74
sS'x'
I384
sg18
I00
sS'y'
I200
s(dp75
g16
S'line'
p76
sS'x'
I84
sg18
I00
sS'y'
I0
s(dp77
g16
S'line'
p78
sS'x'
I51
sg18
I00
sS'y'
I53
s(dp79
g16
S'line'
p80
sS'x'
I206
sg18
I00
sS'y'
I154
s(dp81
S'y'
I169
sS'x'
I138
sg18
I00
s(dp82
S'y'
I262
sS'x'
I51
sg18
I00
stp83
stp84
sS'components'
p85
(tsS'anchors'
p86
(tsssS'com.typemytype.robofont.mark'
p87
(F0.51200000000000001
F1
F0.0241
F1
tp88
s."
LayerCount: 2
Fore
SplineSet
526 684 m 1,0,-1
 569 684 l 1,1,-1
 569 606 l 1,2,-1
 526 606 l 1,3,-1
 473 606 l 1,4,-1
 473 0 l 1,5,-1
 387 0 l 1,6,-1
 387 150.98089172 l 1,7,-1
 122 -33 l 1,8,-1
 78 33 l 1,9,-1
 205.164015939 113.377255357 l 1,10,11
 132.242014298 129.950222779 132.242014298 129.950222779 89.6210071492 183.409385141 c 128,-1,12
 47 236.868547502 47 236.868547502 47 308 c 0,13,14
 47 394 47 394 105.5 453 c 128,-1,15
 164 512 164 512 250 512 c 0,16,17
 277.458725013 512 277.458725013 512 302.750364509 505.909474724 c 128,-1,18
 328.042004006 499.818949448 328.042004006 499.818949448 348.33523399 489.545637666 c 128,-1,19
 368.628463974 479.272325884 368.628463974 479.272325884 387 464.579743158 c 1,20,-1
 387 606 l 1,21,-1
 291 606 l 1,22,-1
 -10 606 l 1,23,-1
 -10 684 l 1,24,-1
 291 684 l 1,25,-1
 526 684 l 1,0,-1
385.835237305 260.610403298 m 1,26,27
 386.426714438 261.714603603 386.426714438 261.714603603 387 262.828800299 c 2,28,-1
 387 357.787738337 l 1,29,30
 368.156924193 392.103930032 368.156924193 392.103930032 335.490793205 413.051965016 c 128,-1,31
 302.824662216 434 302.824662216 434 263 434 c 0,32,33
 224.751201084 434 224.751201084 434 194.949431019 417.59371117 c 1,34,-1
 385.835237305 260.610403298 l 1,26,27
340.031687331 208.935330496 m 1,35,-1
 146.84351955 367.812086239 l 1,36,37
 133 340.527426812 133 340.527426812 133 308 c 0,38,39
 133 256 133 256 169 220.5 c 128,-1,40
 205 185 205 185 264 185 c 0,41,42
 284.882322503 185 284.882322503 185 304.15305551 191.217673084 c 128,-1,43
 323.423788518 197.435346168 323.423788518 197.435346168 340.031687331 208.935330496 c 1,35,-1
EndSplineSet
Ligature2: "VattuVariantslookup30 subtable" badeva viramadeva_radeva
EndChar

StartChar: bar
Encoding: 124 124 178
Width: 266
VWidth: 0
Flags: W
PickledData: "(dp1
S'com.typemytype.robofont.layerData'
p2
(dp3
S'mask'
p4
(dp5
S'name'
p6
S'bar'
p7
sS'lib'
p8
(dp9
sS'unicodes'
p10
(tsS'width'
p11
I266
sS'contours'
p12
((dp13
S'points'
p14
((dp15
S'segmentType'
p16
S'line'
p17
sS'x'
I100
sS'smooth'
p18
I00
sS'y'
I-326
s(dp19
g16
S'line'
p20
sS'x'
I100
sg18
I00
sS'y'
I999
s(dp21
g16
S'line'
p22
sS'x'
I166
sg18
I00
sS'y'
I999
s(dp23
g16
S'line'
p24
sS'x'
I166
sg18
I00
sS'y'
I-326
stp25
stp26
sS'components'
p27
(tsS'anchors'
p28
(tsssS'com.typemytype.robofont.mark'
p29
(F0.44109999999999999
F0.91300000000000003
F0.1201
F1
tp30
s."
LayerCount: 2
Fore
SplineSet
86 -202 m 1,0,-1
 86 800 l 1,1,-1
 178 800 l 1,2,-1
 178 -202 l 1,3,-1
 86 -202 l 1,0,-1
EndSplineSet
EndChar

StartChar: bbadeva
Encoding: 2431 2431 179
Width: 559
VWidth: 0
Flags: W
PickledData: "(dp1
S'com.typemytype.robofont.layerData'
p2
(dp3
S'mask'
p4
(dp5
S'name'
p6
S'bbadeva'
p7
sS'lib'
p8
(dp9
sS'unicodes'
p10
(tsS'width'
p11
I559
sS'contours'
p12
((dp13
S'points'
p14
((dp15
S'segmentType'
p16
S'qcurve'
p17
sS'x'
I225
sS'smooth'
p18
I01
sS'y'
I213
s(dp19
S'y'
I213
sS'x'
I249
sg18
I00
s(dp20
S'y'
I226
sS'x'
I289
sg18
I00
s(dp21
g16
S'qcurve'
p22
sS'x'
I305
sg18
I00
sS'y'
I240
s(dp23
g16
S'line'
p24
sS'x'
I125
sg18
I00
sS'y'
I386
s(dp25
S'y'
I374
sS'x'
I116
sg18
I00
s(dp26
S'y'
I341
sS'x'
I105
sg18
I00
s(dp27
g16
S'qcurve'
p28
sS'x'
I105
sg18
I01
sS'y'
I320
s(dp29
S'y'
I276
sS'x'
I105
sg18
I00
s(dp30
S'y'
I213
sS'x'
I176
sg18
I00
stp31
s(dp32
g14
((dp33
g16
S'qcurve'
p34
sS'x'
I39
sg18
I01
sS'y'
I320
s(dp35
S'y'
I399
sS'x'
I39
sg18
I00
s(dp36
S'y'
I513
sS'x'
I156
sg18
I00
s(dp37
g16
S'qcurve'
p38
sS'x'
I238
sg18
I01
sS'y'
I513
s(dp39
S'y'
I513
sS'x'
I264
sg18
I00
s(dp40
S'y'
I502
sS'x'
I308
sg18
I00
s(dp41
g16
S'qcurve'
p42
sS'x'
I325
sg18
I00
sS'y'
I493
s(dp43
g16
S'line'
p44
sS'x'
I305
sg18
I00
sS'y'
I439
s(dp45
S'y'
I446
sS'x'
I290
sg18
I00
s(dp46
S'y'
I453
sS'x'
I257
sg18
I00
s(dp47
g16
S'qcurve'
p48
sS'x'
I238
sg18
I01
sS'y'
I453
s(dp49
S'y'
I453
sS'x'
I209
sg18
I00
s(dp50
S'y'
I438
sS'x'
I168
sg18
I00
s(dp51
g16
S'qcurve'
p52
sS'x'
I158
sg18
I00
sS'y'
I426
s(dp53
g16
S'line'
p54
sS'x'
I352
sg18
I00
sS'y'
I280
s(dp55
g16
S'line'
p56
sS'x'
I372
sg18
I00
sS'y'
I306
s(dp57
g16
S'line'
p58
sS'x'
I372
sg18
I00
sS'y'
I606
s(dp59
g16
S'line'
p60
sS'x'
I-13
sg18
I00
sS'y'
I606
s(dp61
g16
S'line'
p62
sS'x'
I-13
sg18
I00
sS'y'
I666
s(dp63
g16
S'line'
p64
sS'x'
I551
sg18
I00
sS'y'
I666
s(dp65
g16
S'line'
p66
sS'x'
I551
sg18
I00
sS'y'
I606
s(dp67
g16
S'line'
p68
sS'x'
I438
sg18
I00
sS'y'
I606
s(dp69
g16
S'line'
p70
sS'x'
I438
sg18
I00
sS'y'
I0
s(dp71
g16
S'line'
p72
sS'x'
I438
sg18
I00
sS'y'
I-60
s(dp73
g16
S'line'
p74
sS'x'
I-15
sg18
I00
sS'y'
I-60
s(dp75
g16
S'line'
p76
sS'x'
I-15
sg18
I00
sS'y'
I0
s(dp77
g16
S'line'
p78
sS'x'
I372
sg18
I00
sS'y'
I0
s(dp79
g16
S'line'
p80
sS'x'
I372
sg18
I00
sS'y'
I213
s(dp81
S'y'
I181
sS'x'
I340
sg18
I00
s(dp82
S'y'
I146
sS'x'
I264
sg18
I00
s(dp83
g16
S'qcurve'
p84
sS'x'
I225
sg18
I01
sS'y'
I146
s(dp85
S'y'
I146
sS'x'
I148
sg18
I00
s(dp86
S'y'
I248
sS'x'
I39
sg18
I00
stp87
stp88
sS'components'
p89
(tsS'anchors'
p90
(tsssS'com.typemytype.robofont.mark'
p91
(F0.44109999999999999
F0.91300000000000003
F0.1201
F1
tp92
s."
HStem: -78 78<43 387> 107 78<188.133 284.024> 434 78<239.3 336.485> 606 78<-10 387 473 569>
VStem: 47 86<238.048 380.374> 387 86<0 151.697 230.631 388.281 464.58 606>
AnchorPoint: "DVAnchor3" 406 665 basechar 0
LayerCount: 2
Fore
SplineSet
284.822606933 186.631998857 m 1,0,-1
 164.891560523 393.982663434 l 1,1,2
 149.41005945 377.026887797 149.41005945 377.026887797 141.205029725 354.911168163 c 128,-1,3
 133 332.795448529 133 332.795448529 133 308 c 0,4,5
 133 256 133 256 169 220.5 c 128,-1,6
 205 185 205 185 264 185 c 0,7,8
 274.52681235 185 274.52681235 185 284.822606933 186.631998857 c 1,0,-1
387 262.828800299 m 1,9,-1
 387 357.787738337 l 1,10,11
 368.156924193 392.103930032 368.156924193 392.103930032 335.490793205 413.051965016 c 128,-1,12
 302.824662216 434 302.824662216 434 263 434 c 0,13,14
 249.117176017 434 249.117176017 434 236.168033723 431.775748924 c 1,15,-1
 357.048953732 222.782833006 l 1,16,17
 375.322061899 240.132189139 375.322061899 240.132189139 387 262.828800299 c 1,9,-1
473 -78 m 1,18,-1
 43 -78 l 1,19,-1
 43 0 l 1,20,-1
 387 0 l 1,21,-1
 387 151.697350696 l 1,22,23
 330.455798591 107 330.455798591 107 264 107 c 0,24,25
 167 107 167 107 107 165 c 128,-1,26
 47 223 47 223 47 308 c 0,27,28
 47 394 47 394 105.5 453 c 128,-1,29
 164 512 164 512 250 512 c 0,30,31
 277.458725013 512 277.458725013 512 302.750364509 505.909474724 c 128,-1,32
 328.042004006 499.818949448 328.042004006 499.818949448 348.33523399 489.545637666 c 128,-1,33
 368.628463974 479.272325884 368.628463974 479.272325884 387 464.579743158 c 1,34,-1
 387 606 l 1,35,-1
 291 606 l 1,36,-1
 -10 606 l 1,37,-1
 -10 684 l 1,38,-1
 291 684 l 1,39,-1
 526 684 l 1,40,-1
 569 684 l 1,41,-1
 569 606 l 1,42,-1
 526 606 l 1,43,-1
 473 606 l 1,44,-1
 473 0 l 1,45,-1
 473 -78 l 1,18,-1
EndSplineSet
EndChar

StartChar: bhadeva_viramadeva
Encoding: 65553 -1 181
Width: 522
VWidth: 0
Flags: W
PickledData: "(dp1
S'com.typemytype.robofont.layerData'
p2
(dp3
S'mask'
p4
(dp5
S'name'
p6
S'bhadeva_viramadeva'
p7
sS'lib'
p8
(dp9
sS'unicodes'
p10
(tsS'width'
p11
I522
sS'contours'
p12
((dp13
S'points'
p14
((dp15
S'segmentType'
p16
S'move'
p17
sS'x'
I705
sS'smooth'
p18
I00
sS'y'
I-61
s(dp19
g16
S'line'
p20
sS'x'
I610
sg18
I00
sS'y'
I-61
stp21
s(dp22
g14
((dp23
g16
S'move'
p24
sS'x'
I70
sg18
I01
sS'y'
I-104
s(dp25
S'y'
I-47
sS'x'
I70
sg18
I00
s(dp26
S'y'
I-4
sS'x'
I114
sg18
I00
s(dp27
g16
S'curve'
p28
sS'x'
I168
sg18
I01
sS'y'
I-4
s(dp29
S'y'
I-4
sS'x'
I222
sg18
I00
s(dp30
S'y'
I-48
sS'x'
I265
sg18
I00
s(dp31
g16
S'curve'
p32
sS'x'
I265
sg18
I00
sS'y'
I-104
s(dp33
g16
S'line'
p34
sS'x'
I265
sg18
I00
sS'y'
I-407
s(dp35
g16
S'line'
p36
sS'x'
I265
sg18
I00
sS'y'
I-534
s(dp37
g16
S'line'
p38
sS'x'
I170
sg18
I00
sS'y'
I-405
s(dp39
g16
S'line'
p40
sS'x'
I705
sg18
I00
sS'y'
I-405
stp41
s(dp42
g14
((dp43
g16
S'curve'
p44
sS'x'
I937
sg18
I01
sS'y'
I313
s(dp45
S'y'
I334
sS'x'
I937
sg18
I00
s(dp46
S'y'
I353
sS'x'
I956
sg18
I00
s(dp47
g16
S'curve'
p48
sS'x'
I977
sg18
I01
sS'y'
I353
s(dp49
g16
S'line'
p50
sS'x'
I1030
sg18
I00
sS'y'
I353
s(dp51
g16
S'line'
p52
sS'x'
I1030
sg18
I01
sS'y'
I546
s(dp53
S'y'
I584
sS'x'
I1030
sg18
I00
s(dp54
S'y'
I613
sS'x'
I1005
sg18
I00
s(dp55
g16
S'curve'
p56
sS'x'
I970
sg18
I01
sS'y'
I613
s(dp57
S'y'
I613
sS'x'
I937
sg18
I00
s(dp58
S'y'
I591
sS'x'
I911
sg18
I00
s(dp59
g16
S'curve'
p60
sS'x'
I911
sg18
I01
sS'y'
I566
s(dp61
S'y'
I535
sS'x'
I911
sg18
I00
s(dp62
S'y'
I513
sS'x'
I933
sg18
I00
s(dp63
g16
S'curve'
p64
sS'x'
I964
sg18
I00
sS'y'
I513
s(dp65
g16
S'line'
p66
sS'x'
I964
sg18
I00
sS'y'
I446
s(dp67
S'y'
I446
sS'x'
I898
sg18
I00
s(dp68
S'y'
I500
sS'x'
I844
sg18
I00
s(dp69
g16
S'curve'
p70
sS'x'
I844
sg18
I01
sS'y'
I566
s(dp71
S'y'
I629
sS'x'
I844
sg18
I00
s(dp72
S'y'
I679
sS'x'
I902
sg18
I00
s(dp73
g16
S'curve'
p74
sS'x'
I970
sg18
I01
sS'y'
I679
s(dp75
S'y'
I679
sS'x'
I1040
sg18
I00
s(dp76
S'y'
I620
sS'x'
I1097
sg18
I00
s(dp77
g16
S'curve'
p78
sS'x'
I1097
sg18
I01
sS'y'
I546
s(dp79
g16
S'line'
p80
sS'x'
I1097
sg18
I00
sS'y'
I353
s(dp81
g16
S'line'
p82
sS'x'
I1317
sg18
I00
sS'y'
I353
s(dp83
g16
S'line'
p84
sS'x'
I1317
sg18
I00
sS'y'
I293
s(dp85
g16
S'line'
p86
sS'x'
I1097
sg18
I00
sS'y'
I293
s(dp87
g16
S'line'
p88
sS'x'
I1097
sg18
I01
sS'y'
I233
s(dp89
S'y'
I218
sS'x'
I1097
sg18
I00
s(dp90
S'y'
I206
sS'x'
I1081
sg18
I00
s(dp91
g16
S'curve'
p92
sS'x'
I1064
sg18
I01
sS'y'
I206
s(dp93
S'y'
I206
sS'x'
I1035
sg18
I00
s(dp94
S'y'
I290
sS'x'
I937
sg18
I00
stp95
s(dp96
g14
((dp97
g16
S'line'
p98
sS'x'
I1144
sg18
I00
sS'y'
I606
s(dp99
g16
S'line'
p100
sS'x'
I1144
sg18
I00
sS'y'
I666
s(dp101
g16
S'line'
p102
sS'x'
I1303
sg18
I00
sS'y'
I666
s(dp103
g16
S'line'
p104
sS'x'
I1303
sg18
I00
sS'y'
I606
stp105
s(dp106
g14
((dp107
g16
S'move'
p108
sS'x'
I361
sg18
I00
sS'y'
I874
s(dp109
g16
S'line'
p110
sS'x'
I-347
sg18
I00
sS'y'
I874
stp111
s(dp112
g14
((dp113
g16
S'curve'
p114
sS'x'
I124
sg18
I01
sS'y'
I506
s(dp115
S'y'
I506
sS'x'
I178
sg18
I00
s(dp116
S'y'
I550
sS'x'
I222
sg18
I00
s(dp117
g16
S'curve'
p118
sS'x'
I222
sg18
I01
sS'y'
I604
s(dp119
S'y'
I658
sS'x'
I222
sg18
I00
s(dp120
S'y'
I702
sS'x'
I178
sg18
I00
s(dp121
g16
S'curve'
p122
sS'x'
I124
sg18
I01
sS'y'
I702
s(dp123
S'y'
I702
sS'x'
I70
sg18
I00
s(dp124
S'y'
I658
sS'x'
I26
sg18
I00
s(dp125
g16
S'curve'
p126
sS'x'
I26
sg18
I01
sS'y'
I604
s(dp127
S'y'
I550
sS'x'
I26
sg18
I00
s(dp128
S'y'
I506
sS'x'
I70
sg18
I00
stp129
s(dp130
g14
((dp131
g16
S'move'
p132
sS'x'
I-79
sg18
I00
sS'y'
I878
s(dp133
g16
S'line'
p134
sS'x'
I-79
sg18
I00
sS'y'
I666
s(dp135
S'y'
I598
sS'x'
I-79
sg18
I00
s(dp136
S'y'
I572
sS'x'
I-121
sg18
I00
s(dp137
g16
S'curve'
p138
sS'x'
I-166
sg18
I01
sS'y'
I572
s(dp139
S'y'
I572
sS'x'
I-207
sg18
I00
s(dp140
S'y'
I584
sS'x'
I-219
sg18
I00
s(dp141
g16
S'curve'
p142
sS'x'
I-245
sg18
I00
sS'y'
I621
s(dp143
S'y'
I724
sS'x'
I-318
sg18
I00
stp144
s(dp145
g14
((dp146
g16
S'move'
p147
sS'x'
I-256
sg18
I00
sS'y'
I640
s(dp148
g16
S'line'
p149
sS'x'
I-65
sg18
I00
sS'y'
I315
stp150
s(dp151
g14
((dp152
g16
S'move'
p153
sS'x'
I60
sg18
I00
sS'y'
I874
s(dp154
g16
S'line'
p155
sS'x'
I-347
sg18
I00
sS'y'
I874
stp156
stp157
sS'components'
p158
(tsS'anchors'
p159
(tsssS'com.typemytype.robofont.mark'
p160
(F0.51200000000000001
F1
F0.0241
F1
tp161
s."
LayerCount: 2
Fore
SplineSet
18 651 m 1,0,1
 60 699 60 699 124 699 c 0,2,3
 183 699 183 699 224 661.5 c 128,-1,4
 265 624 265 624 265 562 c 2,5,-1
 265 340 l 1,6,-1
 532 340 l 1,7,-1
 532 262 l 1,8,-1
 214.395348837 262 l 1,9,-1
 263 196 l 1,10,-1
 199 148 l 1,11,-1
 104 277 l 1,12,-1
 136 340 l 1,13,-1
 179 340 l 1,14,-1
 179 562 l 2,15,16
 179 587 179 587 163.5 604 c 128,-1,17
 148 621 148 621 124 621 c 0,18,19
 99 621 99 621 80 599 c 1,20,-1
 18 651 l 1,0,1
EndSplineSet
Ligature2: "HalfFormslookup10 subtable" bhadeva viramadeva
EndChar

StartChar: bhadeva_viramadeva_radeva
Encoding: 65554 -1 182
Width: 651
VWidth: 0
Flags: W
PickledData: "(dp1
S'com.typemytype.robofont.layerData'
p2
(dp3
S'mask'
p4
(dp5
S'name'
p6
S'bhadeva_viramadeva_radeva'
p7
sS'lib'
p8
(dp9
sS'unicodes'
p10
(tsS'width'
p11
F651
sS'contours'
p12
((dp13
S'points'
p14
((dp15
S'segmentType'
p16
S'qcurve'
p17
sS'x'
I120
sS'smooth'
p18
I01
sS'y'
I326
s(dp19
S'y'
I337
sS'x'
I120
sg18
I00
s(dp20
S'y'
I353
sS'x'
I140
sg18
I00
s(dp21
g16
S'qcurve'
p22
sS'x'
I153
sg18
I01
sS'y'
I353
s(dp23
g16
S'line'
p24
sS'x'
I206
sg18
I00
sS'y'
I353
s(dp25
g16
S'line'
p26
sS'x'
I206
sg18
I01
sS'y'
I546
s(dp27
S'y'
I574
sS'x'
I206
sg18
I00
s(dp28
S'y'
I613
sS'x'
I172
sg18
I00
s(dp29
g16
S'qcurve'
p30
sS'x'
I146
sg18
I01
sS'y'
I613
s(dp31
S'y'
I613
sS'x'
I121
sg18
I00
s(dp32
S'y'
I585
sS'x'
I87
sg18
I00
s(dp33
g16
S'qcurve'
p34
sS'x'
I87
sg18
I01
sS'y'
I566
s(dp35
S'y'
I543
sS'x'
I87
sg18
I00
s(dp36
S'y'
I513
sS'x'
I117
sg18
I00
s(dp37
g16
S'qcurve'
p38
sS'x'
I140
sg18
I00
sS'y'
I513
s(dp39
g16
S'line'
p40
sS'x'
I140
sg18
I00
sS'y'
I446
s(dp41
S'y'
I446
sS'x'
I91
sg18
I00
s(dp42
S'y'
I517
sS'x'
I20
sg18
I00
s(dp43
g16
S'qcurve'
p44
sS'x'
I20
sg18
I01
sS'y'
I566
s(dp45
S'y'
I613
sS'x'
I20
sg18
I00
s(dp46
S'y'
I679
sS'x'
I95
sg18
I00
s(dp47
g16
S'qcurve'
p48
sS'x'
I146
sg18
I01
sS'y'
I679
s(dp49
S'y'
I679
sS'x'
I198
sg18
I00
s(dp50
S'y'
I601
sS'x'
I273
sg18
I00
s(dp51
g16
S'qcurve'
p52
sS'x'
I273
sg18
I01
sS'y'
I546
s(dp53
g16
S'line'
p54
sS'x'
I273
sg18
I00
sS'y'
I353
s(dp55
g16
S'line'
p56
sS'x'
I493
sg18
I00
sS'y'
I353
s(dp57
g16
S'line'
p58
sS'x'
I493
sg18
I00
sS'y'
I606
s(dp59
g16
S'line'
p60
sS'x'
I320
sg18
I00
sS'y'
I606
s(dp61
g16
S'line'
p62
sS'x'
I320
sg18
I00
sS'y'
I666
s(dp63
g16
S'line'
p64
sS'x'
I672
sg18
I00
sS'y'
I666
s(dp65
g16
S'line'
p66
sS'x'
I672
sg18
I00
sS'y'
I606
s(dp67
g16
S'line'
p68
sS'x'
I559
sg18
I00
sS'y'
I606
s(dp69
g16
S'line'
p70
sS'x'
I559
sg18
I00
sS'y'
I0
s(dp71
g16
S'line'
p72
sS'x'
I493
sg18
I00
sS'y'
I0
s(dp73
g16
S'line'
p74
sS'x'
I493
sg18
I00
sS'y'
I166
s(dp75
g16
S'line'
p76
sS'x'
I180
sg18
I00
sS'y'
I0
s(dp77
g16
S'line'
p78
sS'x'
I153
sg18
I00
sS'y'
I53
s(dp79
g16
S'line'
p80
sS'x'
I493
sg18
I00
sS'y'
I226
s(dp81
g16
S'line'
p82
sS'x'
I493
sg18
I00
sS'y'
I286
s(dp83
g16
S'line'
p84
sS'x'
I273
sg18
I00
sS'y'
I286
s(dp85
g16
S'line'
p86
sS'x'
I273
sg18
I01
sS'y'
I233
s(dp87
S'y'
I222
sS'x'
I273
sg18
I00
s(dp88
S'y'
I206
sS'x'
I253
sg18
I00
s(dp89
g16
S'qcurve'
p90
sS'x'
I240
sg18
I01
sS'y'
I206
s(dp91
S'y'
I206
sS'x'
I220
sg18
I00
s(dp92
S'y'
I306
sS'x'
I120
sg18
I00
stp93
s(dp94
g14
((dp95
g16
S'line'
p96
sS'x'
I306
sg18
I00
sS'y'
I42
s(dp97
g16
S'line'
p98
sS'x'
I489
sg18
I00
sS'y'
I227
s(dp99
g16
S'line'
p100
sS'x'
I545
sg18
I00
sS'y'
I181
s(dp101
g16
S'line'
p102
sS'x'
I362
sg18
I00
sS'y'
I-14
stp103
stp104
sS'components'
p105
(tsS'anchors'
p106
(tsssS'com.typemytype.robofont.mark'
p107
(F0.51200000000000001
F1
F0.0241
F1
tp108
s."
AnchorPoint: "DVAnchor3" 526 683 basechar 0
LayerCount: 2
Fore
SplineSet
18 651 m 1,0,1
 60 699 60 699 124 699 c 0,2,3
 183 699 183 699 224 661.5 c 128,-1,4
 265 624 265 624 265 562 c 2,5,-1
 265 340 l 1,6,-1
 479 340 l 1,7,-1
 479 606 l 1,8,-1
 383 606 l 1,9,-1
 383 684 l 1,10,-1
 661 684 l 1,11,-1
 661 606 l 1,12,-1
 565 606 l 1,13,-1
 565 0 l 1,14,-1
 479 0 l 1,15,-1
 479 220.101694915 l 1,16,-1
 241 -30 l 1,17,-1
 185 26 l 1,18,-1
 425.068965517 262 l 1,19,-1
 214.395348837 262 l 1,20,-1
 263 196 l 1,21,-1
 199 148 l 1,22,-1
 104 277 l 1,23,-1
 136 340 l 1,24,-1
 179 340 l 1,25,-1
 179 562 l 2,26,27
 179 587 179 587 163.5 604 c 128,-1,28
 148 621 148 621 124 621 c 0,29,30
 99 621 99 621 80 599 c 1,31,-1
 18 651 l 1,0,1
EndSplineSet
LCarets2: 1 0 
Ligature2: "VattuVariantslookup30 subtable" bhadeva viramadeva_radeva
EndChar

StartChar: braceleft
Encoding: 123 123 183
Width: 211
VWidth: 0
Flags: W
PickledData: "(dp1
S'com.typemytype.robofont.layerData'
p2
(dp3
S'mask'
p4
(dp5
S'name'
p6
S'braceleft'
p7
sS'lib'
p8
(dp9
sS'unicodes'
p10
(tsS'width'
p11
I211
sS'contours'
p12
(tsS'components'
p13
(tsS'anchors'
p14
(tsssS'com.typemytype.robofont.mark'
p15
(F0
F1
F0
F1
tp16
s."
LayerCount: 2
Fore
SplineSet
200 824 m 1,0,-1
 155 824 l 2,1,2
 151 824 151 824 147.5 823 c 128,-1,3
 144 822 144 822 142 820 c 128,-1,4
 140 818 140 818 138.5 816 c 128,-1,5
 137 814 137 814 136 810 c 128,-1,6
 135 806 135 806 134 803.5 c 128,-1,7
 133 801 133 801 133 796.5 c 128,-1,8
 133 792 133 792 133 789.5 c 128,-1,9
 133 787 133 787 133 782.5 c 128,-1,10
 133 778 133 778 133 776 c 2,11,-1
 133 422 l 2,12,13
 133 389.096312061 133 389.096312061 121.479361317 368.5 c 1,14,15
 133 347.903687939 133 347.903687939 133 315 c 2,16,-1
 133 -39 l 2,17,18
 133 -41 133 -41 133 -46 c 128,-1,19
 133 -51 133 -51 133 -53.5 c 128,-1,20
 133 -56 133 -56 133 -60.5 c 128,-1,21
 133 -65 133 -65 134 -67.5 c 128,-1,22
 135 -70 135 -70 136 -74 c 128,-1,23
 137 -78 137 -78 138.5 -80 c 128,-1,24
 140 -82 140 -82 142 -84 c 128,-1,25
 144 -86 144 -86 147.5 -87 c 128,-1,26
 151 -88 151 -88 155 -88 c 2,27,-1
 200 -88 l 1,28,-1
 200 -172 l 1,29,-1
 155 -172 l 2,30,31
 101 -172 101 -172 71 -142 c 128,-1,32
 41 -112 41 -112 41 -39 c 2,33,-1
 41 315 l 2,34,35
 41 319 41 319 40 321.5 c 128,-1,36
 39 324 39 324 36 325 c 128,-1,37
 33 326 33 326 31 326 c 128,-1,38
 29 326 29 326 24.5 326.5 c 128,-1,39
 20 327 20 327 18 327 c 1,40,-1
 18 410 l 1,41,-1
 18 411 l 1,42,43
 19 411 19 411 22.5 411 c 128,-1,44
 26 411 26 411 27 411 c 128,-1,45
 28 411 28 411 31 411 c 128,-1,46
 34 411 34 411 35 412 c 128,-1,47
 36 413 36 413 38 414 c 128,-1,48
 40 415 40 415 40.5 417 c 128,-1,49
 41 419 41 419 41 422 c 2,50,-1
 41 776 l 2,51,52
 41 908 41 908 155 908 c 2,53,-1
 200 908 l 1,54,-1
 200 824 l 1,0,-1
EndSplineSet
EndChar

StartChar: bracketleft
Encoding: 91 91 185
Width: 383
VWidth: 0
Flags: W
PickledData: "(dp1
S'com.typemytype.robofont.layerData'
p2
(dp3
S'mask'
p4
(dp5
S'name'
p6
S'bracketleft'
p7
sS'lib'
p8
(dp9
sS'unicodes'
p10
(tsS'width'
p11
I383
sS'contours'
p12
(tsS'components'
p13
(tsS'anchors'
p14
(tsssS'com.typemytype.robofont.mark'
p15
(F0
F1
F0
F1
tp16
s."
LayerCount: 2
Fore
SplineSet
135 -88 m 1,0,-1
 270 -88 l 1,1,-1
 270 -172 l 1,2,-1
 89 -172 l 1,3,-1
 43 -130 l 1,4,-1
 43 867 l 1,5,-1
 89 909 l 1,6,-1
 270 909 l 1,7,-1
 270 825 l 1,8,-1
 135 825 l 1,9,-1
 135 -88 l 1,0,-1
EndSplineSet
EndChar

StartChar: breve
Encoding: 728 728 187
Width: 500
VWidth: 0
Flags: W
PickledData: "(dp1
S'com.typemytype.robofont.layerData'
p2
(dp3
S'mask'
p4
(dp5
S'name'
p6
S'breve'
p7
sS'lib'
p8
(dp9
sS'unicodes'
p10
(tsS'width'
p11
I500
sS'contours'
p12
((dp13
S'points'
p14
((dp15
S'segmentType'
p16
S'line'
p17
sS'x'
I79
sS'smooth'
p18
I00
sS'y'
I932
s(dp19
S'y'
I899
sS'x'
I80
sg18
I00
s(dp20
S'y'
I877
sS'x'
I95
sg18
I00
s(dp21
g16
S'curve'
p22
sS'x'
I127
sg18
I01
sS'y'
I877
s(dp23
S'y'
I877
sS'x'
I158
sg18
I00
s(dp24
S'y'
I899
sS'x'
I173
sg18
I00
s(dp25
g16
S'curve'
p26
sS'x'
I174
sg18
I00
sS'y'
I932
s(dp27
g16
S'line'
p28
sS'x'
I205
sg18
I00
sS'y'
I932
s(dp29
S'y'
I883
sS'x'
I205
sg18
I00
s(dp30
S'y'
I846
sS'x'
I174
sg18
I00
s(dp31
g16
S'curve'
p32
sS'x'
I127
sg18
I01
sS'y'
I846
s(dp33
S'y'
I846
sS'x'
I80
sg18
I00
s(dp34
S'y'
I883
sS'x'
I48
sg18
I00
s(dp35
g16
S'curve'
p36
sS'x'
I48
sg18
I00
sS'y'
I932
stp37
s(dp38
g14
((dp39
g16
S'line'
p40
sS'x'
I110
sg18
I00
sS'y'
I933
s(dp41
g16
S'line'
p42
sS'x'
I110
sg18
I00
sS'y'
I924
s(dp43
S'y'
I930
sS'x'
I110
sg18
I00
s(dp44
S'y'
I930
sS'x'
I134
sg18
I00
s(dp45
g16
S'curve'
p46
sS'x'
I129
sg18
I01
sS'y'
I930
s(dp47
S'y'
I930
sS'x'
I125
sg18
I00
s(dp48
S'y'
I931
sS'x'
I147
sg18
I00
s(dp49
g16
S'curve'
p50
sS'x'
I147
sg18
I00
sS'y'
I924
s(dp51
g16
S'line'
p52
sS'x'
I147
sg18
I00
sS'y'
I933
s(dp53
g16
S'line'
p54
sS'x'
I209
sg18
I00
sS'y'
I933
s(dp55
g16
S'line'
p56
sS'x'
I209
sg18
I01
sS'y'
I924
s(dp57
S'y'
I877
sS'x'
I209
sg18
I00
s(dp58
S'y'
I846
sS'x'
I168
sg18
I00
s(dp59
g16
S'curve'
p60
sS'x'
I129
sg18
I01
sS'y'
I846
s(dp61
S'y'
I846
sS'x'
I88
sg18
I00
s(dp62
S'y'
I878
sS'x'
I48
sg18
I00
s(dp63
g16
S'curve'
p64
sS'x'
I48
sg18
I00
sS'y'
I924
s(dp65
g16
S'line'
p66
sS'x'
I48
sg18
I00
sS'y'
I933
stp67
stp68
sS'components'
p69
(tsS'anchors'
p70
(tsssS'com.typemytype.robofont.mark'
p71
(F0
F1
F0
F1
tp72
s."
LayerCount: 2
Fore
SplineSet
87 902 m 1,0,1
 89 866 89 866 127 866 c 0,2,3
 166 866 166 866 168 902 c 1,4,-1
 222 902 l 1,5,6
 222 863 222 863 196 838 c 128,-1,7
 170 813 170 813 127 813 c 0,8,9
 86 813 86 813 59.5 838.5 c 128,-1,10
 33 864 33 864 33 902 c 1,11,-1
 87 902 l 1,0,1
EndSplineSet
EndChar

StartChar: brokenbar
Encoding: 166 166 188
Width: 266
VWidth: 0
Flags: W
PickledData: "(dp1
S'com.typemytype.robofont.layerData'
p2
(dp3
S'mask'
p4
(dp5
S'name'
p6
S'bar'
p7
sS'lib'
p8
(dp9
sS'unicodes'
p10
(tsS'width'
p11
I266
sS'contours'
p12
((dp13
S'points'
p14
((dp15
S'segmentType'
p16
S'line'
p17
sS'x'
I100
sS'smooth'
p18
I00
sS'y'
I-326
s(dp19
g16
S'line'
p20
sS'x'
I100
sg18
I00
sS'y'
I999
s(dp21
g16
S'line'
p22
sS'x'
I166
sg18
I00
sS'y'
I999
s(dp23
g16
S'line'
p24
sS'x'
I166
sg18
I00
sS'y'
I-326
stp25
stp26
sS'components'
p27
(tsS'anchors'
p28
(tsssS'com.typemytype.robofont.mark'
p29
(F0
F1
F0
F1
tp30
s."
LayerCount: 2
Fore
SplineSet
86 -200 m 1,0,-1
 86 216 l 1,1,-1
 178 216 l 1,2,-1
 178 -200 l 1,3,-1
 86 -200 l 1,0,-1
86 384 m 1,4,-1
 86 800 l 1,5,-1
 178 800 l 1,6,-1
 178 384 l 1,7,-1
 86 384 l 1,4,-1
EndSplineSet
EndChar

StartChar: bullet
Encoding: 8226 8226 189
Width: 282
VWidth: 0
Flags: W
PickledData: "(dp1
S'com.typemytype.robofont.layerData'
p2
(dp3
S'mask'
p4
(dp5
S'name'
p6
S'bullet'
p7
sS'lib'
p8
(dp9
sS'unicodes'
p10
(tsS'width'
p11
I282
sS'contours'
p12
(tsS'components'
p13
(tsS'anchors'
p14
(tsss."
LayerCount: 2
Fore
SplineSet
141 156 m 0,0,1
 186 156 186 156 218 187.5 c 128,-1,2
 250 219 250 219 250 265 c 128,-1,3
 250 311 250 311 218 342.5 c 128,-1,4
 186 374 186 374 141 374 c 0,5,6
 95 374 95 374 63.5 342 c 128,-1,7
 32 310 32 310 32 265 c 0,8,9
 32 219 32 219 63.5 187.5 c 128,-1,10
 95 156 95 156 141 156 c 0,0,1
EndSplineSet
EndChar

StartChar: c
Encoding: 99 99 190
Width: 476
VWidth: 0
Flags: W
PickledData: "(dp1
S'com.typemytype.robofont.layerData'
p2
(dp3
S'mask'
p4
(dp5
S'name'
p6
S'c'
sS'lib'
p7
(dp8
sS'unicodes'
p9
(tsS'width'
p10
I476
sS'contours'
p11
(tsS'components'
p12
(tsS'anchors'
p13
(tsss."
LayerCount: 2
Fore
SplineSet
446 69 m 1,0,1
 388 -10 388 -10 272 -10 c 0,2,3
 168 -10 168 -10 101.5 57.5 c 128,-1,4
 35 125 35 125 35 241 c 0,5,6
 35 354 35 354 102 423.5 c 128,-1,7
 169 493 169 493 270 493 c 0,8,9
 378 493 378 493 441 424 c 1,10,-1
 399 360 l 1,11,12
 351 411 351 411 270 411 c 0,13,14
 204 411 204 411 164.5 362 c 128,-1,15
 125 313 125 313 125 241 c 0,16,17
 125 168 125 168 165 120 c 128,-1,18
 205 72 205 72 272 72 c 0,19,20
 349 72 349 72 391 127 c 1,21,-1
 446 69 l 1,0,1
EndSplineSet
EndChar

StartChar: cadeva
Encoding: 2330 2330 192
Width: 688
VWidth: 0
Flags: W
PickledData: "(dp1
S'com.typemytype.robofont.layerData'
p2
(dp3
S'mask'
p4
(dp5
S'name'
p6
S'cadeva'
p7
sS'lib'
p8
(dp9
sS'unicodes'
p10
(tsS'width'
p11
I688
sS'contours'
p12
((dp13
S'points'
p14
((dp15
S'segmentType'
p16
S'move'
p17
sS'x'
I516
sS'smooth'
p18
I00
sS'y'
I0
s(dp19
g16
S'line'
p20
sS'x'
I516
sg18
I00
sS'y'
I645
stp21
s(dp22
g14
((dp23
g16
S'move'
p24
sS'x'
I655
sg18
I00
sS'y'
I645
s(dp25
g16
S'line'
p26
sS'x'
I-10
sg18
I00
sS'y'
I645
stp27
s(dp28
g14
((dp29
g16
S'move'
p30
sS'x'
I332
sg18
I00
sS'y'
I473
s(dp31
S'y'
I473
sS'x'
I238
sg18
I00
s(dp32
S'y'
I407
sS'x'
I174
sg18
I00
s(dp33
g16
S'curve'
p34
sS'x'
I174
sg18
I01
sS'y'
I307
s(dp35
S'y'
I203
sS'x'
I174
sg18
I00
s(dp36
S'y'
I146
sS'x'
I259
sg18
I00
s(dp37
g16
S'curve'
p38
sS'x'
I345
sg18
I01
sS'y'
I146
s(dp39
S'y'
I146
sS'x'
I436
sg18
I00
s(dp40
S'y'
I203
sS'x'
I516
sg18
I00
s(dp41
g16
S'curve'
p42
sS'x'
I516
sg18
I01
sS'y'
I307
s(dp43
S'y'
I378
sS'x'
I516
sg18
I00
stp44
s(dp45
g14
((dp46
g16
S'move'
p47
sS'x'
I86
sg18
I00
sS'y'
I473
s(dp48
g16
S'line'
p49
sS'x'
I387
sg18
I00
sS'y'
I473
stp50
stp51
sS'components'
p52
(tsS'anchors'
p53
(tsssS'com.typemytype.robofont.mark'
p54
(F0.51200000000000001
F1
F0.0241
F1
tp55
s."
HStem: 0 21G<516 602> 107 78<314.002 473.606> 434 78<43 221.993 306.973 430> 606 78<-10 516 602 698>
VStem: 174 86<235.918 386.19> 516 86<0 148.023 225.527 606>
AnchorPoint: "DVAnchor3" 553 676 basechar 0
LayerCount: 2
Fore
SplineSet
395 512 m 1,0,-1
 430 512 l 1,1,-1
 430 434 l 1,2,-1
 375 434 l 2,3,4
 322 434 322 434 291 398.5 c 128,-1,5
 260 363 260 363 260 307 c 128,-1,6
 260 251 260 251 298 218 c 128,-1,7
 336 185 336 185 388 185 c 0,8,9
 445 185 445 185 480.5 212 c 128,-1,10
 516 239 516 239 516 297 c 2,11,-1
 516 606 l 1,12,-1
 420 606 l 1,13,-1
 -10 606 l 1,14,-1
 -10 684 l 1,15,-1
 420 684 l 1,16,-1
 655 684 l 1,17,-1
 698 684 l 1,18,-1
 698 606 l 1,19,-1
 655 606 l 1,20,-1
 602 606 l 1,21,-1
 602 327 l 1,22,-1
 602 0 l 1,23,-1
 516 0 l 1,24,-1
 516 148.023018181 l 1,25,26
 459.873261149 107 459.873261149 107 388 107 c 0,27,28
 302 107 302 107 238 160.5 c 128,-1,29
 174 214 174 214 174 307 c 0,30,31
 174 378.400327721 174 378.400327721 221.993050799 434 c 1,32,-1
 43 434 l 1,33,-1
 43 512 l 1,34,-1
 395 512 l 1,0,-1
EndSplineSet
EndChar

StartChar: cadeva_viramadeva
Encoding: 65555 -1 193
Width: 645
VWidth: 0
Flags: W
PickledData: "(dp1
S'com.typemytype.robofont.layerData'
p2
(dp3
S'mask'
p4
(dp5
S'name'
p6
S'cadeva_viramadeva'
p7
sS'lib'
p8
(dp9
sS'unicodes'
p10
(tsS'width'
p11
I645
sS'contours'
p12
((dp13
S'points'
p14
((dp15
S'segmentType'
p16
S'line'
p17
sS'x'
I43
sS'smooth'
p18
I00
sS'y'
I512
s(dp19
g16
S'line'
p20
sS'x'
I430
sg18
I00
sS'y'
I512
s(dp21
g16
S'line'
p22
sS'x'
I430
sg18
I00
sS'y'
I434
s(dp23
g16
S'line'
p24
sS'x'
I43
sg18
I00
sS'y'
I434
stp25
s(dp26
g14
((dp27
g16
S'line'
p28
sS'x'
I655
sg18
I00
sS'y'
I606
s(dp29
g16
S'line'
p30
sS'x'
I-10
sg18
I00
sS'y'
I606
s(dp31
g16
S'line'
p32
sS'x'
I-10
sg18
I00
sS'y'
I684
s(dp33
g16
S'line'
p34
sS'x'
I655
sg18
I00
sS'y'
I684
stp35
s(dp36
g14
((dp37
g16
S'line'
p38
sS'x'
I375
sg18
I00
sS'y'
I434
s(dp39
S'y'
I434
sS'x'
I303
sg18
I00
s(dp40
S'y'
I380
sS'x'
I260
sg18
I00
s(dp41
g16
S'curve'
p42
sS'x'
I260
sg18
I01
sS'y'
I307
s(dp43
S'y'
I229
sS'x'
I260
sg18
I00
s(dp44
S'y'
I185
sS'x'
I323
sg18
I00
s(dp45
g16
S'curve'
p46
sS'x'
I388
sg18
I01
sS'y'
I185
s(dp47
S'y'
I185
sS'x'
I457
sg18
I00
s(dp48
S'y'
I229
sS'x'
I516
sg18
I00
s(dp49
g16
S'curve'
p50
sS'x'
I516
sg18
I00
sS'y'
I307
s(dp51
g16
S'line'
p52
sS'x'
I602
sg18
I00
sS'y'
I307
s(dp53
S'y'
I177
sS'x'
I602
sg18
I00
s(dp54
S'y'
I107
sS'x'
I501
sg18
I00
s(dp55
g16
S'curve'
p56
sS'x'
I388
sg18
I01
sS'y'
I107
s(dp57
S'y'
I107
sS'x'
I281
sg18
I00
s(dp58
S'y'
I177
sS'x'
I174
sg18
I00
s(dp59
g16
S'curve'
p60
sS'x'
I174
sg18
I01
sS'y'
I307
s(dp61
S'y'
I434
sS'x'
I174
sg18
I00
s(dp62
S'y'
I512
sS'x'
I259
sg18
I00
s(dp63
g16
S'curve'
p64
sS'x'
I375
sg18
I00
sS'y'
I512
stp65
s(dp66
g14
((dp67
g16
S'line'
p68
sS'x'
I977
sg18
I00
sS'y'
I606
s(dp69
g16
S'line'
p70
sS'x'
I977
sg18
I00
sS'y'
I666
s(dp71
g16
S'line'
p72
sS'x'
I1481
sg18
I00
sS'y'
I666
s(dp73
g16
S'line'
p74
sS'x'
I1481
sg18
I00
sS'y'
I606
stp75
s(dp76
g14
((dp77
g16
S'curve'
p78
sS'x'
I1282
sg18
I01
sS'y'
I120
s(dp79
S'y'
F120
sS'x'
F1192.22
sg18
I00
s(dp80
S'y'
F190.22
sS'x'
F1122
sg18
I00
s(dp81
g16
S'curve'
p82
sS'x'
I1122
sg18
I01
sS'y'
I280
s(dp83
S'y'
F340.30000000000001
sS'x'
F1122
sg18
I00
s(dp84
S'y'
F393.83999999999997
sS'x'
F1148.0999999999999
sg18
I00
s(dp85
g16
S'curve'
p86
sS'x'
I1195
sg18
I00
sS'y'
I426
s(dp87
g16
S'line'
p88
sS'x'
I1002
sg18
I00
sS'y'
I426
s(dp89
g16
S'line'
p90
sS'x'
I1002
sg18
I00
sS'y'
I493
s(dp91
g16
S'line'
p92
sS'x'
I1388
sg18
I00
sS'y'
I493
s(dp93
g16
S'line'
p94
sS'x'
I1388
sg18
I00
sS'y'
I426
s(dp95
g16
S'line'
p96
sS'x'
I1308
sg18
I00
sS'y'
I426
s(dp97
S'y'
F392.5
sS'x'
F1235.6400000000001
sg18
I00
s(dp98
S'y'
F334.94
sS'x'
F1188
sg18
I00
s(dp99
g16
S'curve'
p100
sS'x'
I1188
sg18
I01
sS'y'
I280
s(dp101
S'y'
F227.74000000000001
sS'x'
F1188
sg18
I00
s(dp102
S'y'
F186
sS'x'
F1229.74
sg18
I00
s(dp103
g16
S'curve'
p104
sS'x'
I1282
sg18
I01
sS'y'
I186
s(dp105
S'y'
F186
sS'x'
F1342.3
sg18
I00
s(dp106
S'y'
F261.38
sS'x'
F1422.6400000000001
sg18
I00
s(dp107
g16
S'curve'
p108
sS'x'
I1495
sg18
I00
sS'y'
I386
s(dp109
g16
S'line'
p110
sS'x'
I1495
sg18
I00
sS'y'
I280
s(dp111
S'y'
F179.5
sS'x'
F1425.3199999999999
sg18
I00
s(dp112
S'y'
F120
sS'x'
F1346.3199999999999
sg18
I00
stp113
stp114
sS'components'
p115
(tsS'anchors'
p116
(tsssS'com.typemytype.robofont.mark'
p117
(F0.51200000000000001
F1
F0.0241
F1
tp118
s."
LayerCount: 2
Fore
SplineSet
655 606 m 1,0,-1
 -10 606 l 1,1,-1
 -10 684 l 1,2,-1
 655 684 l 1,3,-1
 655 606 l 1,0,-1
395 512 m 1,4,-1
 430 512 l 1,5,-1
 430 434 l 1,6,-1
 375 434 l 2,7,8
 322 434 322 434 291 398.5 c 128,-1,9
 260 363 260 363 260 307 c 128,-1,10
 260 251 260 251 298 218 c 128,-1,11
 336 185 336 185 388 185 c 0,12,13
 442 185 442 185 479 218 c 128,-1,14
 516 251 516 251 516 307 c 1,15,-1
 602 307 l 1,16,17
 602 214 602 214 540 160.5 c 128,-1,18
 478 107 478 107 388 107 c 0,19,20
 302 107 302 107 238 160.5 c 128,-1,21
 174 214 174 214 174 307 c 0,22,23
 174 378.40032772 174 378.40032772 221.993050799 434 c 1,24,-1
 43 434 l 1,25,-1
 43 512 l 1,26,-1
 395 512 l 1,4,-1
EndSplineSet
Ligature2: "HalfFormslookup10 subtable" cadeva viramadeva
EndChar

StartChar: cadeva_viramadeva_cadeva
Encoding: 65556 -1 194
Width: 1029
VWidth: 0
Flags: W
PickledData: "(dp1
S'com.typemytype.robofont.layerData'
p2
(dp3
S'mask'
p4
(dp5
S'name'
p6
S'cadeva_viramadeva_cadeva'
p7
sS'lib'
p8
(dp9
sS'unicodes'
p10
(tsS'width'
p11
I1029
sS'contours'
p12
((dp13
S'points'
p14
((dp15
S'segmentType'
p16
S'line'
p17
sS'x'
I718
sS'smooth'
p18
I00
sS'y'
I434
s(dp19
S'y'
I434
sS'x'
I646
sg18
I00
s(dp20
S'y'
I380
sS'x'
I603
sg18
I00
s(dp21
g16
S'curve'
p22
sS'x'
I603
sg18
I01
sS'y'
I307
s(dp23
S'y'
I229
sS'x'
I603
sg18
I00
s(dp24
S'y'
I185
sS'x'
I666
sg18
I00
s(dp25
g16
S'curve'
p26
sS'x'
I731
sg18
I01
sS'y'
I185
s(dp27
S'y'
I185
sS'x'
I800
sg18
I00
s(dp28
S'y'
I229
sS'x'
I859
sg18
I00
s(dp29
g16
S'curve'
p30
sS'x'
I859
sg18
I00
sS'y'
I307
s(dp31
g16
S'line'
p32
sS'x'
I945
sg18
I00
sS'y'
I307
s(dp33
S'y'
I177
sS'x'
I945
sg18
I00
s(dp34
S'y'
I107
sS'x'
I844
sg18
I00
s(dp35
g16
S'curve'
p36
sS'x'
I731
sg18
I01
sS'y'
I107
s(dp37
S'y'
I107
sS'x'
I624
sg18
I00
s(dp38
S'y'
I177
sS'x'
I517
sg18
I00
s(dp39
g16
S'curve'
p40
sS'x'
I517
sg18
I01
sS'y'
I307
s(dp41
S'y'
I424
sS'x'
I517
sg18
I00
s(dp42
S'y'
I512
sS'x'
I622
sg18
I00
s(dp43
g16
S'curve'
p44
sS'x'
I738
sg18
I00
sS'y'
I512
stp45
s(dp46
g14
((dp47
g16
S'line'
p48
sS'x'
I376
sg18
I00
sS'y'
I434
s(dp49
S'y'
I434
sS'x'
I304
sg18
I00
s(dp50
S'y'
I380
sS'x'
I261
sg18
I00
s(dp51
g16
S'curve'
p52
sS'x'
I261
sg18
I01
sS'y'
I307
s(dp53
S'y'
I229
sS'x'
I261
sg18
I00
s(dp54
S'y'
I185
sS'x'
I324
sg18
I00
s(dp55
g16
S'curve'
p56
sS'x'
I389
sg18
I01
sS'y'
I185
s(dp57
S'y'
I185
sS'x'
I458
sg18
I00
s(dp58
S'y'
I229
sS'x'
I517
sg18
I00
s(dp59
g16
S'curve'
p60
sS'x'
I517
sg18
I00
sS'y'
I307
s(dp61
g16
S'line'
p62
sS'x'
I603
sg18
I00
sS'y'
I307
s(dp63
S'y'
I177
sS'x'
I603
sg18
I00
s(dp64
S'y'
I107
sS'x'
I502
sg18
I00
s(dp65
g16
S'curve'
p66
sS'x'
I389
sg18
I01
sS'y'
I107
s(dp67
S'y'
I107
sS'x'
I282
sg18
I00
s(dp68
S'y'
I177
sS'x'
I175
sg18
I00
s(dp69
g16
S'curve'
p70
sS'x'
I175
sg18
I01
sS'y'
I307
s(dp71
S'y'
I424
sS'x'
I175
sg18
I00
s(dp72
S'y'
I512
sS'x'
I280
sg18
I00
s(dp73
g16
S'curve'
p74
sS'x'
I396
sg18
I00
sS'y'
I512
stp75
s(dp76
g14
((dp77
g16
S'line'
p78
sS'x'
I998
sg18
I00
sS'y'
I606
s(dp79
g16
S'line'
p80
sS'x'
I333
sg18
I00
sS'y'
I606
s(dp81
g16
S'line'
p82
sS'x'
I333
sg18
I00
sS'y'
I684
s(dp83
g16
S'line'
p84
sS'x'
I998
sg18
I00
sS'y'
I684
stp85
s(dp86
g14
((dp87
g16
S'line'
p88
sS'x'
I655
sg18
I00
sS'y'
I606
s(dp89
g16
S'line'
p90
sS'x'
I-10
sg18
I00
sS'y'
I606
s(dp91
g16
S'line'
p92
sS'x'
I-10
sg18
I00
sS'y'
I684
s(dp93
g16
S'line'
p94
sS'x'
I655
sg18
I00
sS'y'
I684
stp95
s(dp96
g14
((dp97
g16
S'line'
p98
sS'x'
I486
sg18
I00
sS'y'
I512
s(dp99
g16
S'line'
p100
sS'x'
I773
sg18
I00
sS'y'
I512
s(dp101
g16
S'line'
p102
sS'x'
I773
sg18
I00
sS'y'
I434
s(dp103
g16
S'line'
p104
sS'x'
I486
sg18
I00
sS'y'
I434
stp105
s(dp106
g14
((dp107
g16
S'line'
p108
sS'x'
I44
sg18
I00
sS'y'
I512
s(dp109
g16
S'line'
p110
sS'x'
I401
sg18
I00
sS'y'
I512
s(dp111
g16
S'line'
p112
sS'x'
I401
sg18
I00
sS'y'
I434
s(dp113
g16
S'line'
p114
sS'x'
I44
sg18
I00
sS'y'
I434
stp115
s(dp116
g14
((dp117
g16
S'move'
p118
sS'x'
I1030
sg18
I00
sS'y'
I645
stp119
s(dp120
g14
((dp121
g16
S'line'
p122
sS'x'
I1075
sg18
I00
sS'y'
I606
s(dp123
g16
S'line'
p124
sS'x'
I1075
sg18
I00
sS'y'
I666
s(dp125
g16
S'line'
p126
sS'x'
I1750
sg18
I00
sS'y'
I666
s(dp127
g16
S'line'
p128
sS'x'
I1750
sg18
I00
sS'y'
I606
s(dp129
g16
S'line'
p130
sS'x'
I1637
sg18
I00
sS'y'
I606
s(dp131
g16
S'line'
p132
sS'x'
I1637
sg18
I00
sS'y'
I0
s(dp133
g16
S'line'
p134
sS'x'
I1570
sg18
I00
sS'y'
I0
s(dp135
g16
S'line'
p136
sS'x'
I1570
sg18
I00
sS'y'
I233
s(dp137
S'y'
F145.89999999999998
sS'x'
F1520.4200000000001
sg18
I00
s(dp138
S'y'
F93
sS'x'
F1446.6800000000001
sg18
I00
s(dp139
g16
S'curve'
p140
sS'x'
I1377
sg18
I01
sS'y'
I93
s(dp141
S'y'
F93
sS'x'
F1303.3
sg18
I00
s(dp142
S'y'
F141.03999999999999
sS'x'
F1244
sg18
I00
s(dp143
g16
S'curve'
p144
sS'x'
I1244
sg18
I01
sS'y'
I200
s(dp145
S'y'
F218.75999999999999
sS'x'
F1244
sg18
I00
s(dp146
S'y'
F236.91999999999999
sS'x'
F1250.5999999999999
sg18
I00
s(dp147
g16
S'curve'
p148
sS'x'
I1264
sg18
I00
sS'y'
I253
s(dp149
g16
S'line'
p150
sS'x'
I1111
sg18
I00
sS'y'
I253
s(dp151
g16
S'line'
p152
sS'x'
I1111
sg18
I00
sS'y'
I320
s(dp153
g16
S'line'
p154
sS'x'
I1257
sg18
I00
sS'y'
I320
s(dp155
S'y'
F332.06
sS'x'
F1247.6199999999999
sg18
I00
s(dp156
S'y'
F348.57999999999998
sS'x'
F1244
sg18
I00
s(dp157
g16
S'curve'
p158
sS'x'
I1244
sg18
I01
sS'y'
I366
s(dp159
S'y'
F392.80000000000001
sS'x'
F1244
sg18
I00
s(dp160
S'y'
F418.25999999999999
sS'x'
F1258.54
sg18
I00
s(dp161
g16
S'curve'
p162
sS'x'
I1284
sg18
I00
sS'y'
I433
s(dp163
g16
S'line'
p164
sS'x'
I1111
sg18
I00
sS'y'
I433
s(dp165
g16
S'line'
p166
sS'x'
I1111
sg18
I00
sS'y'
I499
s(dp167
g16
S'line'
p168
sS'x'
I1477
sg18
I00
sS'y'
I499
s(dp169
g16
S'line'
p170
sS'x'
I1477
sg18
I00
sS'y'
I433
s(dp171
g16
S'line'
p172
sS'x'
I1390
sg18
I00
sS'y'
I433
s(dp173
S'y'
F418.25999999999999
sS'x'
F1339.0799999999999
sg18
I00
s(dp174
S'y'
F391.45999999999998
sS'x'
F1304
sg18
I00
s(dp175
g16
S'curve'
p176
sS'x'
I1304
sg18
I01
sS'y'
I366
s(dp177
S'y'
F349.92000000000002
sS'x'
F1304
sg18
I00
s(dp178
S'y'
F333.39999999999998
sS'x'
F1312.5799999999999
sg18
I00
s(dp179
g16
S'curve'
p180
sS'x'
I1330
sg18
I00
sS'y'
I320
s(dp181
g16
S'line'
p182
sS'x'
I1450
sg18
I00
sS'y'
I320
s(dp183
g16
S'line'
p184
sS'x'
I1450
sg18
I00
sS'y'
I253
s(dp185
g16
S'line'
p186
sS'x'
I1350
sg18
I00
sS'y'
I253
s(dp187
S'y'
F242.28
sS'x'
F1321.8599999999999
sg18
I00
s(dp188
S'y'
F221.44
sS'x'
F1304
sg18
I00
s(dp189
g16
S'curve'
p190
sS'x'
I1304
sg18
I01
sS'y'
I200
s(dp191
S'y'
F174.53999999999999
sS'x'
F1304
sg18
I00
s(dp192
S'y'
F153
sS'x'
F1335.46
sg18
I00
s(dp193
g16
S'curve'
p194
sS'x'
I1377
sg18
I01
sS'y'
I153
s(dp195
S'y'
F153
sS'x'
F1452.04
sg18
I00
s(dp196
S'y'
F227.44
sS'x'
F1528.46
sg18
I00
s(dp197
g16
S'curve'
p198
sS'x'
I1570
sg18
I00
sS'y'
I340
s(dp199
g16
S'line'
p200
sS'x'
I1570
sg18
I00
sS'y'
I606
stp201
stp202
sS'components'
p203
(tsS'anchors'
p204
(tsssS'com.typemytype.robofont.mark'
p205
(F0.44109999999999999
F0.91300000000000003
F0.1201
F1
tp206
s."
LayerCount: 2
Fore
SplineSet
655 684 m 1,0,-1
 763 684 l 1,1,-1
 998 684 l 1,2,-1
 1041 684 l 1,3,-1
 1041 606 l 1,4,-1
 998 606 l 1,5,-1
 945 606 l 1,6,-1
 945 327 l 1,7,-1
 945 0 l 1,8,-1
 859 0 l 1,9,-1
 859 148.023018181 l 1,10,11
 802.873261149 107 802.873261149 107 731 107 c 0,12,13
 679.525204196 107 679.525204196 107 632.916772898 127.661945481 c 128,-1,14
 586.3083416 148.323890961 586.3083416 148.323890961 556.430051469 186.677071584 c 1,15,16
 526.294779087 150.323286635 526.294779087 150.323286635 482.820474209 128.661643317 c 128,-1,17
 439.34616933 107 439.34616933 107 389 107 c 0,18,19
 303 107 303 107 239 160.5 c 128,-1,20
 175 214 175 214 175 307 c 0,21,22
 175 378.400327721 175 378.400327721 222.993050799 434 c 1,23,-1
 44 434 l 1,24,-1
 44 512 l 1,25,-1
 396 512 l 1,26,-1
 401 512 l 1,27,-1
 401 434 l 1,28,-1
 376 434 l 2,29,30
 323 434 323 434 292 398.5 c 128,-1,31
 261 363 261 363 261 307 c 128,-1,32
 261 251 261 251 299 218 c 128,-1,33
 337 185 337 185 389 185 c 0,34,35
 435.37805251 185 435.37805251 185 476.555544593 212.705230281 c 128,-1,36
 517.733036675 240.410460561 517.733036675 240.410460561 517.690072454 289.169061033 c 0,37,38
 517.224157694 295.102056034 517.224157694 295.102056034 517.076540619 300.064261724 c 0,39,40
 517.061097095 300.21081942 517.061097095 300.21081942 517.039871655 300.523573965 c 0,41,-1
 517.076540619 301 l 2,42,43
 517.038337195 302.48912272 517.038337195 302.48912272 517.019168598 303.990468288 c 128,-1,44
 517 305.491813856 517 305.491813856 517 307 c 0,45,46
 517 378.400327721 517 378.400327721 564.993050799 434 c 1,47,-1
 486 434 l 1,48,-1
 486 512 l 1,49,-1
 738 512 l 1,50,-1
 773 512 l 1,51,-1
 773 434 l 1,52,-1
 718 434 l 2,53,54
 665 434 665 434 634 398.5 c 128,-1,55
 603 363 603 363 603 307 c 128,-1,56
 603 251 603 251 641 218 c 128,-1,57
 679 185 679 185 731 185 c 0,58,59
 788 185 788 185 823.5 212 c 128,-1,60
 859 239 859 239 859 297 c 2,61,-1
 859 606 l 1,62,-1
 763 606 l 1,63,-1
 655 606 l 1,64,-1
 333 606 l 1,65,-1
 -10 606 l 1,66,-1
 -10 684 l 1,67,-1
 333 684 l 1,68,-1
 655 684 l 1,0,-1
EndSplineSet
Ligature2: "PreBaseSubstitutionslookup1 subtable" cadeva_viramadeva cadeva
Ligature2: "LocalizedMrHalfFormslookup1 subtable" cadeva viramadeva cadeva
EndChar

StartChar: cadeva_viramadeva_radeva
Encoding: 65557 -1 195
Width: 688
VWidth: 0
Flags: W
PickledData: "(dp1
S'com.typemytype.robofont.layerData'
p2
(dp3
S'mask'
p4
(dp5
S'name'
p6
S'cadeva_viramadeva_radeva'
p7
sS'lib'
p8
(dp9
sS'unicodes'
p10
(tsS'width'
p11
I688
sS'contours'
p12
((dp13
S'points'
p14
((dp15
S'segmentType'
p16
S'line'
p17
sS'x'
I-13
sS'smooth'
p18
I00
sS'y'
I606
s(dp19
g16
S'line'
p20
sS'x'
I-13
sg18
I00
sS'y'
I666
s(dp21
g16
S'line'
p22
sS'x'
I651
sg18
I00
sS'y'
I666
s(dp23
g16
S'line'
p24
sS'x'
I651
sg18
I00
sS'y'
I606
s(dp25
g16
S'line'
p26
sS'x'
I538
sg18
I00
sS'y'
I606
s(dp27
g16
S'line'
p28
sS'x'
I538
sg18
I00
sS'y'
I0
s(dp29
g16
S'line'
p30
sS'x'
I471
sg18
I00
sS'y'
I0
s(dp31
g16
S'line'
p32
sS'x'
I471
sg18
I00
sS'y'
I216
s(dp33
g16
S'line'
p34
sS'x'
I125
sg18
I00
sS'y'
I-33
s(dp35
g16
S'line'
p36
sS'x'
I85
sg18
I00
sS'y'
I20
s(dp37
g16
S'line'
p38
sS'x'
I242
sg18
I00
sS'y'
I125
s(dp39
S'y'
I138
sS'x'
I193
sg18
I00
s(dp40
S'y'
I225
sS'x'
I132
sg18
I00
s(dp41
g16
S'qcurve'
p42
sS'x'
I132
sg18
I01
sS'y'
I280
s(dp43
S'y'
I328
sS'x'
I132
sg18
I00
s(dp44
S'y'
I406
sS'x'
I170
sg18
I00
s(dp45
g16
S'qcurve'
p46
sS'x'
I205
sg18
I00
sS'y'
I426
s(dp47
g16
S'line'
p48
sS'x'
I12
sg18
I00
sS'y'
I426
s(dp49
g16
S'line'
p50
sS'x'
I12
sg18
I00
sS'y'
I493
s(dp51
g16
S'line'
p52
sS'x'
I405
sg18
I00
sS'y'
I493
s(dp53
g16
S'line'
p54
sS'x'
I405
sg18
I00
sS'y'
I426
s(dp55
g16
S'line'
p56
sS'x'
I312
sg18
I00
sS'y'
I426
s(dp57
S'y'
I407
sS'x'
I261
sg18
I00
s(dp58
S'y'
I328
sS'x'
I198
sg18
I00
s(dp59
g16
S'qcurve'
p60
sS'x'
I198
sg18
I01
sS'y'
I280
s(dp61
S'y'
I241
sS'x'
I198
sg18
I00
s(dp62
S'y'
I186
sS'x'
I253
sg18
I00
s(dp63
g16
S'qcurve'
p64
sS'x'
I292
sg18
I01
sS'y'
I186
s(dp65
S'y'
I186
sS'x'
I321
sg18
I00
s(dp66
S'y'
I249
sS'x'
I414
sg18
I00
s(dp67
g16
S'qcurve'
p68
sS'x'
I471
sg18
I00
sS'y'
I306
s(dp69
g16
S'line'
p70
sS'x'
I471
sg18
I00
sS'y'
I606
stp71
stp72
sS'components'
p73
(tsS'anchors'
p74
(tsssS'com.typemytype.robofont.mark'
p75
(F0.51200000000000001
F1
F0.0241
F1
tp76
s."
LayerCount: 2
Fore
SplineSet
395 512 m 1,0,-1
 430 512 l 1,1,-1
 430 434 l 1,2,-1
 375 434 l 2,3,4
 322 434 322 434 291 398.5 c 128,-1,5
 260 363 260 363 260 307 c 128,-1,6
 260 251 260 251 298 218 c 128,-1,7
 336 185 336 185 388 185 c 0,8,9
 445 185 445 185 480.5 212 c 128,-1,10
 516 239 516 239 516 297 c 2,11,-1
 516 606 l 1,12,-1
 420 606 l 1,13,-1
 -10 606 l 1,14,-1
 -10 684 l 1,15,-1
 420 684 l 1,16,-1
 655 684 l 1,17,-1
 698 684 l 1,18,-1
 698 606 l 1,19,-1
 655 606 l 1,20,-1
 602 606 l 1,21,-1
 602 327 l 1,22,-1
 602 0 l 1,23,-1
 516 0 l 1,24,-1
 516 142.396694215 l 1,25,-1
 347 -28 l 1,26,-1
 291 28 l 1,27,-1
 377.490093892 107.224926005 l 1,28,29
 294.26310763 110.787029029 294.26310763 110.787029029 234.131553815 164.142282762 c 128,-1,30
 174 217.497536495 174 217.497536495 174 307 c 0,31,32
 174 378.400327721 174 378.400327721 221.993050799 434 c 1,33,-1
 43 434 l 1,34,-1
 43 512 l 1,35,-1
 395 512 l 1,0,-1
EndSplineSet
Ligature2: "VattuVariantslookup30 subtable" cadeva viramadeva_radeva
EndChar

StartChar: candrabinduavagrahadeva
Encoding: 43255 43255 196
Width: 626
VWidth: 0
Flags: W
PickledData: "(dp1
S'com.typemytype.robofont.layerData'
p2
(dp3
S'mask'
p4
(dp5
S'name'
p6
S'candrabinduavagrahadeva'
p7
sS'lib'
p8
(dp9
sS'unicodes'
p10
(tsS'width'
p11
I626
sS'contours'
p12
((dp13
S'points'
p14
((dp15
S'segmentType'
p16
S'line'
p17
sS'x'
I267
sS'smooth'
p18
I00
sS'y'
I578
s(dp19
g16
S'line'
p20
sS'x'
I267
sg18
I00
sS'y'
I665
s(dp21
g16
S'line'
p22
sS'x'
I353
sg18
I00
sS'y'
I665
s(dp23
g16
S'line'
p24
sS'x'
I353
sg18
I00
sS'y'
I578
stp25
s(dp26
g14
((dp27
g16
S'qcurve'
p28
sS'x'
I313
sg18
I01
sS'y'
I432
s(dp29
S'y'
I432
sS'x'
I235
sg18
I00
s(dp30
S'y'
I537
sS'x'
I115
sg18
I00
s(dp31
g16
S'qcurve'
p32
sS'x'
I100
sg18
I00
sS'y'
I618
s(dp33
g16
S'line'
p34
sS'x'
I173
sg18
I00
sS'y'
I618
s(dp35
S'y'
I564
sS'x'
I183
sg18
I00
s(dp36
S'y'
I492
sS'x'
I263
sg18
I00
s(dp37
g16
S'qcurve'
p38
sS'x'
I313
sg18
I01
sS'y'
I492
s(dp39
S'y'
I492
sS'x'
I364
sg18
I00
s(dp40
S'y'
I564
sS'x'
I444
sg18
I00
s(dp41
g16
S'qcurve'
p42
sS'x'
I453
sg18
I00
sS'y'
I618
s(dp43
g16
S'line'
p44
sS'x'
I526
sg18
I00
sS'y'
I618
s(dp45
S'y'
I537
sS'x'
I512
sg18
I00
s(dp46
S'y'
I432
sS'x'
I392
sg18
I00
stp47
s(dp48
g14
((dp49
g16
S'qcurve'
p50
sS'x'
I305
sg18
I01
sS'y'
I-33
s(dp51
S'y'
F-33
sS'x'
F278.5
sg6
S'inserted'
p52
s(dp53
S'y'
F-15
sS'x'
F228
s(dp54
g16
S'qcurve'
p55
sS'x'
I204
sg18
I01
sS'y'
I3
s(dp56
S'y'
F21
sS'x'
F180
sg6
S'inserted'
p57
s(dp58
S'y'
F68
sS'x'
F145.5
s(dp59
g16
S'qcurve'
p60
sS'x'
I135
sg18
I00
sS'y'
I97
s(dp61
g16
S'line'
p62
sS'x'
I132
sg18
I00
sS'y'
I104
s(dp63
g16
S'line'
p64
sS'x'
I191
sg18
I00
sS'y'
I129
s(dp65
g16
S'line'
p66
sS'x'
I194
sg18
I00
sS'y'
I122
s(dp67
S'y'
F100
sS'x'
F202
sg6
S'inserted'
p68
s(dp69
S'y'
F64.5
sS'x'
F226
s(dp70
g16
S'qcurve'
p71
sS'x'
I242
sg18
I01
sS'y'
I51
s(dp72
S'y'
F38
sS'x'
F257.5
sg6
S'inserted'
p73
s(dp74
S'y'
F25
sS'x'
F290
s(dp75
g16
S'qcurve'
p76
sS'x'
I307
sg18
I01
sS'y'
I25
s(dp77
S'y'
I25
sS'x'
I330
sg18
I00
s(dp78
S'y'
I61
sS'x'
I364
sg18
I00
s(dp79
g16
S'qcurve'
p80
sS'x'
I364
sg18
I01
sS'y'
I87
s(dp81
S'y'
F98.5
sS'x'
F364
sg6
S'inserted'
p82
s(dp83
S'y'
F123.5
sS'x'
F351
s(dp84
g16
S'qcurve'
p85
sS'x'
I338
sg18
I01
sS'y'
I137
s(dp86
S'y'
F151
sS'x'
F324.5
sg6
S'inserted'
p87
s(dp88
S'y'
F177.5
sS'x'
F287
s(dp89
g16
S'qcurve'
p90
sS'x'
I263
sg18
I01
sS'y'
I190
s(dp91
S'y'
F198.5
sS'x'
F246
sg6
S'inserted'
p92
s(dp93
S'y'
F220.5
sS'x'
F219
s(dp94
g16
S'qcurve'
p95
sS'x'
I209
sg18
I01
sS'y'
I234
s(dp96
S'y'
F247.5
sS'x'
F199.5
sg6
S'inserted'
p97
s(dp98
S'y'
F276
sS'x'
F190
s(dp99
g16
S'qcurve'
p100
sS'x'
I190
sg18
I01
sS'y'
I291
s(dp101
S'y'
F308
sS'x'
F190
sg6
S'inserted'
p102
s(dp103
S'y'
F336.5
sS'x'
F207
s(dp104
g16
S'qcurve'
p105
sS'x'
I224
sg18
I01
sS'y'
I348
s(dp106
S'y'
F359
sS'x'
F240
sg6
S'inserted'
p107
s(dp108
S'y'
F370
sS'x'
F278.5
s(dp109
g16
S'qcurve'
p110
sS'x'
I301
sg18
I01
sS'y'
I370
s(dp111
g16
S'line'
p112
sS'x'
I429
sg18
I00
sS'y'
I370
s(dp113
g16
S'line'
p114
sS'x'
I429
sg18
I00
sS'y'
I315
s(dp115
g16
S'line'
p116
sS'x'
I301
sg18
I01
sS'y'
I315
s(dp117
S'y'
F315
sS'x'
F291
sg6
S'inserted'
p118
s(dp119
S'y'
F310.5
sS'x'
F274
s(dp120
g16
S'qcurve'
p121
sS'x'
I267
sg18
I00
sS'y'
I306
s(dp122
S'y'
F302.5
sS'x'
F260.5
sg6
S'inserted'
p123
s(dp124
S'y'
F294
sS'x'
F254
s(dp125
g16
S'qcurve'
p126
sS'x'
I254
sg18
I01
sS'y'
I289
s(dp127
S'y'
F281
sS'x'
F254
sg6
S'inserted'
p128
s(dp129
S'y'
F262
sS'x'
F265.5
s(dp130
g16
S'qcurve'
p131
sS'x'
I277
sg18
I01
sS'y'
I251
s(dp132
S'y'
F239.5
sS'x'
F289.5
sg6
S'inserted'
p133
s(dp134
S'y'
F216.5
sS'x'
F323.5
s(dp135
g16
S'qcurve'
p136
sS'x'
I345
sg18
I01
sS'y'
I205
s(dp137
S'y'
F194.5
sS'x'
F364.5
sg6
S'inserted'
p138
s(dp139
S'y'
F168.5
sS'x'
F395
s(dp140
g16
S'qcurve'
p141
sS'x'
I406
sg18
I01
sS'y'
I153
s(dp142
S'y'
F137
sS'x'
F417.5
sg6
S'inserted'
p143
s(dp144
S'y'
F104
sS'x'
F429
s(dp145
g16
S'qcurve'
p146
sS'x'
I429
sg18
I01
sS'y'
I87
s(dp147
S'y'
I37
sS'x'
I429
sg18
I00
s(dp148
S'y'
I-33
sS'x'
I358
sg18
I00
stp149
stp150
sS'components'
p151
(tsS'anchors'
p152
(tsssS'com.typemytype.robofont.mark'
p153
(F0.44109999999999999
F0.91300000000000003
F0.1201
F1
tp154
s."
LayerCount: 2
Fore
SplineSet
235 684 m 1,0,1
 237 627 237 627 263 594.5 c 128,-1,2
 289 562 289 562 340 562 c 128,-1,3
 391 562 391 562 417 594.5 c 128,-1,4
 443 627 443 627 445 684 c 1,5,-1
 513 684 l 1,6,7
 513 602 513 602 465 548 c 128,-1,8
 417 494 417 494 340 494 c 0,9,10
 264 494 264 494 215.5 548 c 128,-1,11
 167 602 167 602 167 684 c 1,12,-1
 235 684 l 1,0,1
342 609 m 128,-1,14
 321 609 321 609 307.5 620.5 c 128,-1,15
 294 632 294 632 294 653 c 128,-1,16
 294 674 294 674 307.5 685.5 c 128,-1,17
 321 697 321 697 342 697 c 128,-1,18
 363 697 363 697 376.5 685.5 c 128,-1,19
 390 674 390 674 390 653 c 128,-1,20
 390 632 390 632 376.5 620.5 c 128,-1,13
 363 609 363 609 342 609 c 128,-1,14
162 103 m 1,21,22
 183 84 183 84 220.5 69.5 c 128,-1,23
 258 55 258 55 296 55 c 0,24,25
 384 55 384 55 384 114 c 0,26,27
 384 150 384 150 320 170 c 2,28,-1
 259 189 l 2,29,30
 133 228 133 228 133 310 c 0,31,32
 133 363 133 363 174.5 396.5 c 128,-1,33
 216 430 216 430 293 430 c 2,34,-1
 425 430 l 1,35,-1
 425 362 l 1,36,-1
 293 362 l 2,37,38
 271 362 271 362 257.5 360 c 128,-1,39
 244 358 244 358 231.5 347 c 128,-1,40
 219 336 219 336 219 315 c 0,41,42
 219 292 219 292 235.5 280 c 128,-1,43
 252 268 252 268 283 259 c 2,44,-1
 346 240 l 2,45,46
 470 203 470 203 470 114 c 0,47,48
 470 59 470 59 424 22.5 c 128,-1,49
 378 -14 378 -14 291 -14 c 0,50,51
 239 -14 239 -14 190.5 4.5 c 128,-1,52
 142 23 142 23 112 51 c 1,53,-1
 162 103 l 1,21,22
EndSplineSet
EndChar

StartChar: candrabindudigitthreedeva
Encoding: 43254 43254 198
Width: 472
VWidth: 0
Flags: W
PickledData: "(dp1
S'com.typemytype.robofont.guides'
p2
((dp3
S'angle'
p4
I0
sS'name'
p5
NsS'magnetic'
p6
I5
sS'isGlobal'
p7
I00
sS'y'
I-147
sS'x'
I341
s(dp8
g4
I0
sg5
Nsg6
I5
sg7
I00
sS'y'
I352
sS'x'
I-63
stp9
sS'com.typemytype.robofont.layerData'
p10
(dp11
S'mask'
p12
(dp13
g5
S'candrabindudigitthreedeva'
p14
sS'lib'
p15
(dp16
sS'unicodes'
p17
(tsS'width'
p18
I472
sS'contours'
p19
((dp20
S'points'
p21
((dp22
S'segmentType'
p23
S'move'
p24
sS'x'
I42
sS'y'
I90
s(dp25
g23
S'line'
p26
sS'x'
I106
sS'smooth'
p27
I00
sS'y'
I125
s(dp28
g23
S'line'
p29
sS'x'
I267
sg27
I00
sS'y'
I-139
stp30
s(dp31
g21
((dp32
g23
S'move'
p33
sS'x'
I96
sS'y'
I122
s(dp34
g23
S'line'
p35
sS'x'
I257
sg27
I00
sS'y'
I-146
s(dp36
g23
S'line'
p37
sS'x'
I202
sg27
I00
sS'y'
I-179
s(dp38
g23
S'line'
p39
sS'x'
I42
sg27
I00
sS'y'
I90
stp40
stp41
sS'components'
p42
(tsS'anchors'
p43
(tsssS'com.typemytype.robofont.mark'
p44
(F0.44109999999999999
F0.91300000000000003
F0.1201
F1
tp45
s."
LayerCount: 2
Fore
SplineSet
132 684 m 1,0,1
 134 627 134 627 160 594.5 c 128,-1,2
 186 562 186 562 237 562 c 128,-1,3
 288 562 288 562 314 594.5 c 128,-1,4
 340 627 340 627 342 684 c 1,5,-1
 410 684 l 1,6,7
 410 602 410 602 362 548 c 128,-1,8
 314 494 314 494 237 494 c 0,9,10
 161 494 161 494 112.5 548 c 128,-1,11
 64 602 64 602 64 684 c 1,12,-1
 132 684 l 1,0,1
239 609 m 128,-1,14
 218 609 218 609 204.5 620.5 c 128,-1,15
 191 632 191 632 191 653 c 128,-1,16
 191 674 191 674 204.5 685.5 c 128,-1,17
 218 697 218 697 239 697 c 128,-1,18
 260 697 260 697 273.5 685.5 c 128,-1,19
 287 674 287 674 287 653 c 128,-1,20
 287 632 287 632 273.5 620.5 c 128,-1,13
 260 609 260 609 239 609 c 128,-1,14
207 -180 m 1,21,-1
 46 90 l 1,22,-1
 103 126 l 1,23,-1
 134.616482397 73.960448228 l 1,24,25
 170.12339865 36 170.12339865 36 231 36 c 0,26,27
 264 36 264 36 283.5 56.5 c 128,-1,28
 303 77 303 77 303 112 c 0,29,30
 303 140 303 140 282.5 160.5 c 128,-1,31
 262 181 262 181 233 181 c 1,32,-1
 233 181.840956495 l 1,33,34
 225.719252103 181 225.719252103 181 219 181 c 2,35,-1
 184 181 l 1,36,-1
 184 249 l 1,37,-1
 229 249 l 2,38,39
 255 249 255 249 273 265 c 128,-1,40
 291 281 291 281 291 306 c 0,41,42
 291 329 291 329 272.5 345.5 c 128,-1,43
 254 362 254 362 228 362 c 0,44,45
 180 362 180 362 142 340 c 1,46,-1
 115 396 l 1,47,48
 174 430 174 430 228 430 c 0,49,50
 287 430 287 430 329.5 397 c 128,-1,51
 372 364 372 364 372 310 c 0,52,53
 372 257.483975235 372 257.483975235 322.383791685 219.055199781 c 1,54,55
 384 176.391102773 384 176.391102773 384 112 c 0,56,57
 384 42 384 42 340 7 c 128,-1,58
 296 -28 296 -28 231 -28 c 0,59,60
 227.647281785 -28 227.647281785 -28 224.154527741 -27.7884536307 c 128,-1,61
 220.661773698 -27.5769072614 220.661773698 -27.5769072614 217.124815318 -27.1774440665 c 128,-1,62
 213.587856938 -26.7779808716 213.587856938 -26.7779808716 209.721467527 -26.1609397996 c 128,-1,63
 205.855078117 -25.5438987276 205.855078117 -25.5438987276 201.921085113 -24.7758153464 c 128,-1,64
 197.987092109 -24.0077319652 197.987092109 -24.0077319652 193.534272872 -23.0160391991 c 1,65,-1
 264 -139 l 1,66,-1
 207 -180 l 1,21,-1
EndSplineSet
EndChar

